G04 #@! TF.GenerationSoftware,KiCad,Pcbnew,5.1.4+dfsg1-1*
G04 #@! TF.CreationDate,2020-02-29T16:09:42-08:00*
G04 #@! TF.ProjectId,teensy_audio_player_kicad,7465656e-7379-45f6-9175-64696f5f706c,rev?*
G04 #@! TF.SameCoordinates,Original*
G04 #@! TF.FileFunction,Copper,L1,Top*
G04 #@! TF.FilePolarity,Positive*
%FSLAX46Y46*%
G04 Gerber Fmt 4.6, Leading zero omitted, Abs format (unit mm)*
G04 Created by KiCad (PCBNEW 5.1.4+dfsg1-1) date 2020-02-29 16:09:42*
%MOMM*%
%LPD*%
G04 APERTURE LIST*
%ADD10O,1.600000X1.600000*%
%ADD11R,1.600000X1.600000*%
%ADD12C,0.100000*%
%ADD13C,1.425000*%
%ADD14C,1.600000*%
%ADD15R,1.500000X1.050000*%
%ADD16O,1.500000X1.050000*%
%ADD17O,1.727200X1.727200*%
%ADD18R,1.727200X1.727200*%
%ADD19C,1.700000*%
%ADD20O,1.950000X1.700000*%
%ADD21O,1.700000X1.700000*%
%ADD22R,1.700000X1.700000*%
%ADD23C,0.250000*%
%ADD24C,0.500000*%
%ADD25C,0.254000*%
G04 APERTURE END LIST*
D10*
X80010000Y-59690000D03*
X82550000Y-59690000D03*
X85090000Y-59690000D03*
X87630000Y-59690000D03*
X90170000Y-59690000D03*
D11*
X92710000Y-59690000D03*
D12*
G36*
X104409504Y-66436204D02*
G01*
X104433773Y-66439804D01*
X104457571Y-66445765D01*
X104480671Y-66454030D01*
X104502849Y-66464520D01*
X104523893Y-66477133D01*
X104543598Y-66491747D01*
X104561777Y-66508223D01*
X104578253Y-66526402D01*
X104592867Y-66546107D01*
X104605480Y-66567151D01*
X104615970Y-66589329D01*
X104624235Y-66612429D01*
X104630196Y-66636227D01*
X104633796Y-66660496D01*
X104635000Y-66685000D01*
X104635000Y-67935000D01*
X104633796Y-67959504D01*
X104630196Y-67983773D01*
X104624235Y-68007571D01*
X104615970Y-68030671D01*
X104605480Y-68052849D01*
X104592867Y-68073893D01*
X104578253Y-68093598D01*
X104561777Y-68111777D01*
X104543598Y-68128253D01*
X104523893Y-68142867D01*
X104502849Y-68155480D01*
X104480671Y-68165970D01*
X104457571Y-68174235D01*
X104433773Y-68180196D01*
X104409504Y-68183796D01*
X104385000Y-68185000D01*
X103460000Y-68185000D01*
X103435496Y-68183796D01*
X103411227Y-68180196D01*
X103387429Y-68174235D01*
X103364329Y-68165970D01*
X103342151Y-68155480D01*
X103321107Y-68142867D01*
X103301402Y-68128253D01*
X103283223Y-68111777D01*
X103266747Y-68093598D01*
X103252133Y-68073893D01*
X103239520Y-68052849D01*
X103229030Y-68030671D01*
X103220765Y-68007571D01*
X103214804Y-67983773D01*
X103211204Y-67959504D01*
X103210000Y-67935000D01*
X103210000Y-66685000D01*
X103211204Y-66660496D01*
X103214804Y-66636227D01*
X103220765Y-66612429D01*
X103229030Y-66589329D01*
X103239520Y-66567151D01*
X103252133Y-66546107D01*
X103266747Y-66526402D01*
X103283223Y-66508223D01*
X103301402Y-66491747D01*
X103321107Y-66477133D01*
X103342151Y-66464520D01*
X103364329Y-66454030D01*
X103387429Y-66445765D01*
X103411227Y-66439804D01*
X103435496Y-66436204D01*
X103460000Y-66435000D01*
X104385000Y-66435000D01*
X104409504Y-66436204D01*
X104409504Y-66436204D01*
G37*
D13*
X103922500Y-67310000D03*
D12*
G36*
X107384504Y-66436204D02*
G01*
X107408773Y-66439804D01*
X107432571Y-66445765D01*
X107455671Y-66454030D01*
X107477849Y-66464520D01*
X107498893Y-66477133D01*
X107518598Y-66491747D01*
X107536777Y-66508223D01*
X107553253Y-66526402D01*
X107567867Y-66546107D01*
X107580480Y-66567151D01*
X107590970Y-66589329D01*
X107599235Y-66612429D01*
X107605196Y-66636227D01*
X107608796Y-66660496D01*
X107610000Y-66685000D01*
X107610000Y-67935000D01*
X107608796Y-67959504D01*
X107605196Y-67983773D01*
X107599235Y-68007571D01*
X107590970Y-68030671D01*
X107580480Y-68052849D01*
X107567867Y-68073893D01*
X107553253Y-68093598D01*
X107536777Y-68111777D01*
X107518598Y-68128253D01*
X107498893Y-68142867D01*
X107477849Y-68155480D01*
X107455671Y-68165970D01*
X107432571Y-68174235D01*
X107408773Y-68180196D01*
X107384504Y-68183796D01*
X107360000Y-68185000D01*
X106435000Y-68185000D01*
X106410496Y-68183796D01*
X106386227Y-68180196D01*
X106362429Y-68174235D01*
X106339329Y-68165970D01*
X106317151Y-68155480D01*
X106296107Y-68142867D01*
X106276402Y-68128253D01*
X106258223Y-68111777D01*
X106241747Y-68093598D01*
X106227133Y-68073893D01*
X106214520Y-68052849D01*
X106204030Y-68030671D01*
X106195765Y-68007571D01*
X106189804Y-67983773D01*
X106186204Y-67959504D01*
X106185000Y-67935000D01*
X106185000Y-66685000D01*
X106186204Y-66660496D01*
X106189804Y-66636227D01*
X106195765Y-66612429D01*
X106204030Y-66589329D01*
X106214520Y-66567151D01*
X106227133Y-66546107D01*
X106241747Y-66526402D01*
X106258223Y-66508223D01*
X106276402Y-66491747D01*
X106296107Y-66477133D01*
X106317151Y-66464520D01*
X106339329Y-66454030D01*
X106362429Y-66445765D01*
X106386227Y-66439804D01*
X106410496Y-66436204D01*
X106435000Y-66435000D01*
X107360000Y-66435000D01*
X107384504Y-66436204D01*
X107384504Y-66436204D01*
G37*
D13*
X106897500Y-67310000D03*
D14*
X120650000Y-80010000D03*
X123190000Y-80010000D03*
X125730000Y-80010000D03*
X128270000Y-80010000D03*
X118110000Y-80010000D03*
X115570000Y-80010000D03*
X113030000Y-80010000D03*
X128270000Y-64770000D03*
X125730000Y-64770000D03*
X123190000Y-64770000D03*
X120650000Y-64770000D03*
X110490000Y-80010000D03*
X107950000Y-80010000D03*
X105410000Y-80010000D03*
X102870000Y-80010000D03*
X100330000Y-80010000D03*
X97790000Y-80010000D03*
X95250000Y-80010000D03*
X92710000Y-80010000D03*
X90170000Y-80010000D03*
X87630000Y-80010000D03*
X85090000Y-80010000D03*
X82550000Y-80010000D03*
D11*
X80010000Y-80010000D03*
D14*
X118110000Y-64770000D03*
X115570000Y-64770000D03*
X113030000Y-64770000D03*
X110490000Y-64770000D03*
X107950000Y-64770000D03*
X105410000Y-64770000D03*
X102870000Y-64770000D03*
X100330000Y-64770000D03*
X97790000Y-64770000D03*
X95250000Y-64770000D03*
X92710000Y-64770000D03*
X90170000Y-64770000D03*
X87630000Y-64770000D03*
X85090000Y-64770000D03*
X82550000Y-64770000D03*
X80010000Y-64770000D03*
D10*
X91440000Y-74930000D03*
D14*
X91440000Y-85090000D03*
D12*
G36*
X104789504Y-70191204D02*
G01*
X104813773Y-70194804D01*
X104837571Y-70200765D01*
X104860671Y-70209030D01*
X104882849Y-70219520D01*
X104903893Y-70232133D01*
X104923598Y-70246747D01*
X104941777Y-70263223D01*
X104958253Y-70281402D01*
X104972867Y-70301107D01*
X104985480Y-70322151D01*
X104995970Y-70344329D01*
X105004235Y-70367429D01*
X105010196Y-70391227D01*
X105013796Y-70415496D01*
X105015000Y-70440000D01*
X105015000Y-71365000D01*
X105013796Y-71389504D01*
X105010196Y-71413773D01*
X105004235Y-71437571D01*
X104995970Y-71460671D01*
X104985480Y-71482849D01*
X104972867Y-71503893D01*
X104958253Y-71523598D01*
X104941777Y-71541777D01*
X104923598Y-71558253D01*
X104903893Y-71572867D01*
X104882849Y-71585480D01*
X104860671Y-71595970D01*
X104837571Y-71604235D01*
X104813773Y-71610196D01*
X104789504Y-71613796D01*
X104765000Y-71615000D01*
X103515000Y-71615000D01*
X103490496Y-71613796D01*
X103466227Y-71610196D01*
X103442429Y-71604235D01*
X103419329Y-71595970D01*
X103397151Y-71585480D01*
X103376107Y-71572867D01*
X103356402Y-71558253D01*
X103338223Y-71541777D01*
X103321747Y-71523598D01*
X103307133Y-71503893D01*
X103294520Y-71482849D01*
X103284030Y-71460671D01*
X103275765Y-71437571D01*
X103269804Y-71413773D01*
X103266204Y-71389504D01*
X103265000Y-71365000D01*
X103265000Y-70440000D01*
X103266204Y-70415496D01*
X103269804Y-70391227D01*
X103275765Y-70367429D01*
X103284030Y-70344329D01*
X103294520Y-70322151D01*
X103307133Y-70301107D01*
X103321747Y-70281402D01*
X103338223Y-70263223D01*
X103356402Y-70246747D01*
X103376107Y-70232133D01*
X103397151Y-70219520D01*
X103419329Y-70209030D01*
X103442429Y-70200765D01*
X103466227Y-70194804D01*
X103490496Y-70191204D01*
X103515000Y-70190000D01*
X104765000Y-70190000D01*
X104789504Y-70191204D01*
X104789504Y-70191204D01*
G37*
D13*
X104140000Y-70902500D03*
D12*
G36*
X104789504Y-73166204D02*
G01*
X104813773Y-73169804D01*
X104837571Y-73175765D01*
X104860671Y-73184030D01*
X104882849Y-73194520D01*
X104903893Y-73207133D01*
X104923598Y-73221747D01*
X104941777Y-73238223D01*
X104958253Y-73256402D01*
X104972867Y-73276107D01*
X104985480Y-73297151D01*
X104995970Y-73319329D01*
X105004235Y-73342429D01*
X105010196Y-73366227D01*
X105013796Y-73390496D01*
X105015000Y-73415000D01*
X105015000Y-74340000D01*
X105013796Y-74364504D01*
X105010196Y-74388773D01*
X105004235Y-74412571D01*
X104995970Y-74435671D01*
X104985480Y-74457849D01*
X104972867Y-74478893D01*
X104958253Y-74498598D01*
X104941777Y-74516777D01*
X104923598Y-74533253D01*
X104903893Y-74547867D01*
X104882849Y-74560480D01*
X104860671Y-74570970D01*
X104837571Y-74579235D01*
X104813773Y-74585196D01*
X104789504Y-74588796D01*
X104765000Y-74590000D01*
X103515000Y-74590000D01*
X103490496Y-74588796D01*
X103466227Y-74585196D01*
X103442429Y-74579235D01*
X103419329Y-74570970D01*
X103397151Y-74560480D01*
X103376107Y-74547867D01*
X103356402Y-74533253D01*
X103338223Y-74516777D01*
X103321747Y-74498598D01*
X103307133Y-74478893D01*
X103294520Y-74457849D01*
X103284030Y-74435671D01*
X103275765Y-74412571D01*
X103269804Y-74388773D01*
X103266204Y-74364504D01*
X103265000Y-74340000D01*
X103265000Y-73415000D01*
X103266204Y-73390496D01*
X103269804Y-73366227D01*
X103275765Y-73342429D01*
X103284030Y-73319329D01*
X103294520Y-73297151D01*
X103307133Y-73276107D01*
X103321747Y-73256402D01*
X103338223Y-73238223D01*
X103356402Y-73221747D01*
X103376107Y-73207133D01*
X103397151Y-73194520D01*
X103419329Y-73184030D01*
X103442429Y-73175765D01*
X103466227Y-73169804D01*
X103490496Y-73166204D01*
X103515000Y-73165000D01*
X104765000Y-73165000D01*
X104789504Y-73166204D01*
X104789504Y-73166204D01*
G37*
D13*
X104140000Y-73877500D03*
D15*
X97790000Y-71120000D03*
D16*
X97790000Y-73660000D03*
X97790000Y-72390000D03*
D17*
X93980000Y-99060000D03*
X93980000Y-96520000D03*
X96520000Y-99060000D03*
X96520000Y-96520000D03*
X99060000Y-99060000D03*
X99060000Y-96520000D03*
X101600000Y-99060000D03*
X101600000Y-96520000D03*
X104140000Y-99060000D03*
X104140000Y-96520000D03*
X106680000Y-99060000D03*
X106680000Y-96520000D03*
X109220000Y-99060000D03*
X109220000Y-96520000D03*
X111760000Y-99060000D03*
X111760000Y-96520000D03*
X114300000Y-99060000D03*
X114300000Y-96520000D03*
X116840000Y-99060000D03*
X116840000Y-96520000D03*
X119380000Y-99060000D03*
X119380000Y-96520000D03*
X121920000Y-99060000D03*
X121920000Y-96520000D03*
X124460000Y-99060000D03*
D18*
X124460000Y-96520000D03*
D12*
G36*
X79489504Y-84876204D02*
G01*
X79513773Y-84879804D01*
X79537571Y-84885765D01*
X79560671Y-84894030D01*
X79582849Y-84904520D01*
X79603893Y-84917133D01*
X79623598Y-84931747D01*
X79641777Y-84948223D01*
X79658253Y-84966402D01*
X79672867Y-84986107D01*
X79685480Y-85007151D01*
X79695970Y-85029329D01*
X79704235Y-85052429D01*
X79710196Y-85076227D01*
X79713796Y-85100496D01*
X79715000Y-85125000D01*
X79715000Y-86325000D01*
X79713796Y-86349504D01*
X79710196Y-86373773D01*
X79704235Y-86397571D01*
X79695970Y-86420671D01*
X79685480Y-86442849D01*
X79672867Y-86463893D01*
X79658253Y-86483598D01*
X79641777Y-86501777D01*
X79623598Y-86518253D01*
X79603893Y-86532867D01*
X79582849Y-86545480D01*
X79560671Y-86555970D01*
X79537571Y-86564235D01*
X79513773Y-86570196D01*
X79489504Y-86573796D01*
X79465000Y-86575000D01*
X78015000Y-86575000D01*
X77990496Y-86573796D01*
X77966227Y-86570196D01*
X77942429Y-86564235D01*
X77919329Y-86555970D01*
X77897151Y-86545480D01*
X77876107Y-86532867D01*
X77856402Y-86518253D01*
X77838223Y-86501777D01*
X77821747Y-86483598D01*
X77807133Y-86463893D01*
X77794520Y-86442849D01*
X77784030Y-86420671D01*
X77775765Y-86397571D01*
X77769804Y-86373773D01*
X77766204Y-86349504D01*
X77765000Y-86325000D01*
X77765000Y-85125000D01*
X77766204Y-85100496D01*
X77769804Y-85076227D01*
X77775765Y-85052429D01*
X77784030Y-85029329D01*
X77794520Y-85007151D01*
X77807133Y-84986107D01*
X77821747Y-84966402D01*
X77838223Y-84948223D01*
X77856402Y-84931747D01*
X77876107Y-84917133D01*
X77897151Y-84904520D01*
X77919329Y-84894030D01*
X77942429Y-84885765D01*
X77966227Y-84879804D01*
X77990496Y-84876204D01*
X78015000Y-84875000D01*
X79465000Y-84875000D01*
X79489504Y-84876204D01*
X79489504Y-84876204D01*
G37*
D19*
X78740000Y-85725000D03*
D20*
X78740000Y-88225000D03*
X78740000Y-90725000D03*
D11*
X118110000Y-83820000D03*
D10*
X95250000Y-91440000D03*
X115570000Y-83820000D03*
X97790000Y-91440000D03*
X113030000Y-83820000D03*
X100330000Y-91440000D03*
X110490000Y-83820000D03*
X102870000Y-91440000D03*
X107950000Y-83820000D03*
X105410000Y-91440000D03*
X105410000Y-83820000D03*
X107950000Y-91440000D03*
X102870000Y-83820000D03*
X110490000Y-91440000D03*
X100330000Y-83820000D03*
X113030000Y-91440000D03*
X97790000Y-83820000D03*
X115570000Y-91440000D03*
X95250000Y-83820000D03*
X118110000Y-91440000D03*
D11*
X85090000Y-87884000D03*
D14*
X88890000Y-87884000D03*
D21*
X128270000Y-59690000D03*
X125730000Y-59690000D03*
X123190000Y-59690000D03*
X120650000Y-59690000D03*
X118110000Y-59690000D03*
X115570000Y-59690000D03*
X113030000Y-59690000D03*
X110490000Y-59690000D03*
D22*
X107950000Y-59690000D03*
D23*
X107460870Y-95739130D02*
X106680000Y-96520000D01*
X109220000Y-93980000D02*
X107460870Y-95739130D01*
X115570000Y-83820000D02*
X109220000Y-90170000D01*
X109220000Y-90170000D02*
X109220000Y-93980000D01*
X107150001Y-84619999D02*
X107950000Y-83820000D01*
X106680000Y-85090000D02*
X107150001Y-84619999D01*
X106680000Y-91835002D02*
X106680000Y-85090000D01*
X101600000Y-96520000D02*
X102463599Y-95656401D01*
X102858601Y-95656401D02*
X106680000Y-91835002D01*
X102463599Y-95656401D02*
X102858601Y-95656401D01*
X99923599Y-95656401D02*
X99060000Y-96520000D01*
X105410000Y-83820000D02*
X104140000Y-85090000D01*
X104140000Y-85090000D02*
X104140000Y-91835002D01*
X100318601Y-95656401D02*
X99923599Y-95656401D01*
X104140000Y-91835002D02*
X100318601Y-95656401D01*
X97790000Y-83820000D02*
X96520000Y-85090000D01*
X96520000Y-85090000D02*
X96520000Y-91948000D01*
X96520000Y-91948000D02*
X96520000Y-96520000D01*
X91440000Y-93980000D02*
X93980000Y-96520000D01*
X91440000Y-87630000D02*
X91440000Y-93980000D01*
X91440000Y-87630000D02*
X91440000Y-85090000D01*
X97770871Y-91459129D02*
X97770871Y-92239999D01*
X97790000Y-91440000D02*
X97770871Y-91459129D01*
X94843599Y-98196401D02*
X93980000Y-99060000D01*
X96927731Y-97871399D02*
X95168601Y-97871399D01*
X95168601Y-97871399D02*
X94843599Y-98196401D01*
X97790000Y-97009130D02*
X96927731Y-97871399D01*
X97790000Y-91440000D02*
X97790000Y-97009130D01*
X103705000Y-70902500D02*
X104140000Y-70902500D01*
D24*
X86340001Y-66020001D02*
X85889999Y-65569999D01*
X85889999Y-65569999D02*
X85090000Y-64770000D01*
X85090000Y-86584000D02*
X86340001Y-85333999D01*
X85090000Y-87884000D02*
X85090000Y-86584000D01*
X86360000Y-67310000D02*
X86340001Y-67329999D01*
X103922500Y-67310000D02*
X86360000Y-67310000D01*
X86340001Y-85333999D02*
X86340001Y-67329999D01*
X86340001Y-67329999D02*
X86340001Y-66020001D01*
X103922500Y-70685000D02*
X104140000Y-70902500D01*
X103922500Y-67310000D02*
X103922500Y-70685000D01*
X92710000Y-58390000D02*
X92710000Y-59690000D01*
X92259989Y-57939989D02*
X92710000Y-58390000D01*
X84990009Y-57939989D02*
X92259989Y-57939989D01*
X83839999Y-63519999D02*
X83839999Y-59089999D01*
X83839999Y-59089999D02*
X84990009Y-57939989D01*
X85090000Y-64770000D02*
X83839999Y-63519999D01*
D23*
X113030000Y-82550000D02*
X110490000Y-80010000D01*
X113030000Y-83820000D02*
X113030000Y-82550000D01*
X102870000Y-81280000D02*
X100330000Y-83820000D01*
X105805002Y-81280000D02*
X102870000Y-81280000D01*
X107950000Y-80010000D02*
X107075002Y-80010000D01*
X107075002Y-80010000D02*
X105805002Y-81280000D01*
X113030000Y-74930000D02*
X113030000Y-64770000D01*
X104140000Y-82550000D02*
X107075002Y-82550000D01*
X109220000Y-78740000D02*
X113030000Y-74930000D01*
X102870000Y-83820000D02*
X104140000Y-82550000D01*
X107075002Y-82550000D02*
X109220000Y-80405002D01*
X109220000Y-80405002D02*
X109220000Y-78740000D01*
X110490000Y-69850000D02*
X110490000Y-64770000D01*
X110490000Y-73660000D02*
X110490000Y-69850000D01*
X107950000Y-76200000D02*
X110490000Y-73660000D01*
X99060000Y-90170000D02*
X99060000Y-83185000D01*
X99060000Y-83185000D02*
X101600000Y-80645000D01*
X100330000Y-91440000D02*
X99060000Y-90170000D01*
X101600000Y-80645000D02*
X101600000Y-78740000D01*
X104140000Y-76200000D02*
X107950000Y-76200000D01*
X101600000Y-78740000D02*
X104140000Y-76200000D01*
X95885000Y-64770000D02*
X95250000Y-64770000D01*
X93345000Y-64770000D02*
X92710000Y-64770000D01*
X88994999Y-63594999D02*
X89370001Y-63970001D01*
X88994999Y-59315997D02*
X88994999Y-63594999D01*
X89370001Y-63970001D02*
X90170000Y-64770000D01*
X88194001Y-58514999D02*
X88994999Y-59315997D01*
X86265001Y-58514999D02*
X88194001Y-58514999D01*
X85090000Y-59690000D02*
X86265001Y-58514999D01*
X87630000Y-63500000D02*
X87630000Y-64770000D01*
X87630000Y-59690000D02*
X87630000Y-63500000D01*
X128270000Y-59690000D02*
X128270000Y-64770000D01*
X127470001Y-79210001D02*
X128270000Y-80010000D01*
X127000000Y-78740000D02*
X127470001Y-79210001D01*
X127000000Y-60960000D02*
X127000000Y-78740000D01*
X125730000Y-59690000D02*
X127000000Y-60960000D01*
X123190000Y-59690000D02*
X123190000Y-60960000D01*
X125730000Y-63500000D02*
X125730000Y-64770000D01*
X123190000Y-60960000D02*
X125730000Y-63500000D01*
X124315001Y-78595001D02*
X124930001Y-79210001D01*
X124315001Y-63355001D02*
X124315001Y-78595001D01*
X124930001Y-79210001D02*
X125730000Y-80010000D01*
X120650000Y-59690000D02*
X124315001Y-63355001D01*
X118110000Y-59690000D02*
X123190000Y-64770000D01*
X122390001Y-79210001D02*
X123190000Y-80010000D01*
X119524999Y-76344999D02*
X122390001Y-79210001D01*
X119524999Y-63644999D02*
X119524999Y-76344999D01*
X115570000Y-59690000D02*
X119524999Y-63644999D01*
X119850001Y-79210001D02*
X120650000Y-80010000D01*
X116984999Y-76344999D02*
X119850001Y-79210001D01*
X116984999Y-63644999D02*
X116984999Y-76344999D01*
X113030000Y-59690000D02*
X116984999Y-63644999D01*
X114444999Y-76344999D02*
X117310001Y-79210001D01*
X117310001Y-79210001D02*
X118110000Y-80010000D01*
X114444999Y-63644999D02*
X114444999Y-76344999D01*
X110490000Y-59690000D02*
X114444999Y-63644999D01*
X107950000Y-60790000D02*
X107950000Y-59690000D01*
X106824999Y-61915001D02*
X107950000Y-60790000D01*
X106897500Y-67310000D02*
X106824999Y-67237499D01*
X106824999Y-67237499D02*
X106824999Y-61915001D01*
X98200000Y-73660000D02*
X98425000Y-73660000D01*
X97565000Y-73660000D02*
X97790000Y-73660000D01*
X95250000Y-75975000D02*
X97565000Y-73660000D01*
X95250000Y-80010000D02*
X95250000Y-75975000D01*
X103922500Y-73660000D02*
X97790000Y-73660000D01*
X104140000Y-73877500D02*
X103922500Y-73660000D01*
X93980000Y-72390000D02*
X91440000Y-74930000D01*
X97790000Y-72390000D02*
X93980000Y-72390000D01*
D25*
G36*
X128880000Y-58332229D02*
G01*
X128841034Y-58311401D01*
X128561111Y-58226487D01*
X128342950Y-58205000D01*
X128197050Y-58205000D01*
X127978889Y-58226487D01*
X127698966Y-58311401D01*
X127440986Y-58449294D01*
X127214866Y-58634866D01*
X127029294Y-58860986D01*
X127000000Y-58915791D01*
X126970706Y-58860986D01*
X126785134Y-58634866D01*
X126559014Y-58449294D01*
X126301034Y-58311401D01*
X126021111Y-58226487D01*
X125802950Y-58205000D01*
X125657050Y-58205000D01*
X125438889Y-58226487D01*
X125158966Y-58311401D01*
X124900986Y-58449294D01*
X124674866Y-58634866D01*
X124489294Y-58860986D01*
X124460000Y-58915791D01*
X124430706Y-58860986D01*
X124245134Y-58634866D01*
X124019014Y-58449294D01*
X123761034Y-58311401D01*
X123481111Y-58226487D01*
X123262950Y-58205000D01*
X123117050Y-58205000D01*
X122898889Y-58226487D01*
X122618966Y-58311401D01*
X122360986Y-58449294D01*
X122134866Y-58634866D01*
X121949294Y-58860986D01*
X121920000Y-58915791D01*
X121890706Y-58860986D01*
X121705134Y-58634866D01*
X121479014Y-58449294D01*
X121221034Y-58311401D01*
X120941111Y-58226487D01*
X120722950Y-58205000D01*
X120577050Y-58205000D01*
X120358889Y-58226487D01*
X120078966Y-58311401D01*
X119820986Y-58449294D01*
X119594866Y-58634866D01*
X119409294Y-58860986D01*
X119380000Y-58915791D01*
X119350706Y-58860986D01*
X119165134Y-58634866D01*
X118939014Y-58449294D01*
X118681034Y-58311401D01*
X118401111Y-58226487D01*
X118182950Y-58205000D01*
X118037050Y-58205000D01*
X117818889Y-58226487D01*
X117538966Y-58311401D01*
X117280986Y-58449294D01*
X117054866Y-58634866D01*
X116869294Y-58860986D01*
X116840000Y-58915791D01*
X116810706Y-58860986D01*
X116625134Y-58634866D01*
X116399014Y-58449294D01*
X116141034Y-58311401D01*
X115861111Y-58226487D01*
X115642950Y-58205000D01*
X115497050Y-58205000D01*
X115278889Y-58226487D01*
X114998966Y-58311401D01*
X114740986Y-58449294D01*
X114514866Y-58634866D01*
X114329294Y-58860986D01*
X114300000Y-58915791D01*
X114270706Y-58860986D01*
X114085134Y-58634866D01*
X113859014Y-58449294D01*
X113601034Y-58311401D01*
X113321111Y-58226487D01*
X113102950Y-58205000D01*
X112957050Y-58205000D01*
X112738889Y-58226487D01*
X112458966Y-58311401D01*
X112200986Y-58449294D01*
X111974866Y-58634866D01*
X111789294Y-58860986D01*
X111760000Y-58915791D01*
X111730706Y-58860986D01*
X111545134Y-58634866D01*
X111319014Y-58449294D01*
X111061034Y-58311401D01*
X110781111Y-58226487D01*
X110562950Y-58205000D01*
X110417050Y-58205000D01*
X110198889Y-58226487D01*
X109918966Y-58311401D01*
X109660986Y-58449294D01*
X109434866Y-58634866D01*
X109410393Y-58664687D01*
X109389502Y-58595820D01*
X109330537Y-58485506D01*
X109251185Y-58388815D01*
X109154494Y-58309463D01*
X109044180Y-58250498D01*
X108924482Y-58214188D01*
X108800000Y-58201928D01*
X107100000Y-58201928D01*
X106975518Y-58214188D01*
X106855820Y-58250498D01*
X106745506Y-58309463D01*
X106648815Y-58388815D01*
X106569463Y-58485506D01*
X106510498Y-58595820D01*
X106474188Y-58715518D01*
X106461928Y-58840000D01*
X106461928Y-60540000D01*
X106474188Y-60664482D01*
X106510498Y-60784180D01*
X106569463Y-60894494D01*
X106648815Y-60991185D01*
X106662655Y-61002543D01*
X106313997Y-61351202D01*
X106284999Y-61375000D01*
X106261201Y-61403998D01*
X106261200Y-61403999D01*
X106190025Y-61490725D01*
X106119453Y-61622755D01*
X106075997Y-61766016D01*
X106061323Y-61915001D01*
X106065000Y-61952333D01*
X106065000Y-63488078D01*
X105828574Y-63390147D01*
X105551335Y-63335000D01*
X105268665Y-63335000D01*
X104991426Y-63390147D01*
X104730273Y-63498320D01*
X104495241Y-63655363D01*
X104295363Y-63855241D01*
X104140000Y-64087759D01*
X103984637Y-63855241D01*
X103784759Y-63655363D01*
X103549727Y-63498320D01*
X103288574Y-63390147D01*
X103011335Y-63335000D01*
X102728665Y-63335000D01*
X102451426Y-63390147D01*
X102190273Y-63498320D01*
X101955241Y-63655363D01*
X101755363Y-63855241D01*
X101600000Y-64087759D01*
X101444637Y-63855241D01*
X101244759Y-63655363D01*
X101009727Y-63498320D01*
X100748574Y-63390147D01*
X100471335Y-63335000D01*
X100188665Y-63335000D01*
X99911426Y-63390147D01*
X99650273Y-63498320D01*
X99415241Y-63655363D01*
X99215363Y-63855241D01*
X99060000Y-64087759D01*
X98904637Y-63855241D01*
X98704759Y-63655363D01*
X98469727Y-63498320D01*
X98208574Y-63390147D01*
X97931335Y-63335000D01*
X97648665Y-63335000D01*
X97371426Y-63390147D01*
X97110273Y-63498320D01*
X96875241Y-63655363D01*
X96675363Y-63855241D01*
X96520000Y-64087759D01*
X96364637Y-63855241D01*
X96164759Y-63655363D01*
X95929727Y-63498320D01*
X95668574Y-63390147D01*
X95391335Y-63335000D01*
X95108665Y-63335000D01*
X94831426Y-63390147D01*
X94570273Y-63498320D01*
X94335241Y-63655363D01*
X94135363Y-63855241D01*
X93980000Y-64087759D01*
X93824637Y-63855241D01*
X93624759Y-63655363D01*
X93389727Y-63498320D01*
X93128574Y-63390147D01*
X92851335Y-63335000D01*
X92568665Y-63335000D01*
X92291426Y-63390147D01*
X92030273Y-63498320D01*
X91795241Y-63655363D01*
X91595363Y-63855241D01*
X91440000Y-64087759D01*
X91284637Y-63855241D01*
X91084759Y-63655363D01*
X90849727Y-63498320D01*
X90588574Y-63390147D01*
X90311335Y-63335000D01*
X90028665Y-63335000D01*
X89846113Y-63371312D01*
X89754999Y-63280198D01*
X89754999Y-61063681D01*
X89888691Y-61104236D01*
X90099508Y-61125000D01*
X90240492Y-61125000D01*
X90451309Y-61104236D01*
X90721808Y-61022182D01*
X90971101Y-60888932D01*
X91189608Y-60709608D01*
X91282419Y-60596518D01*
X91284188Y-60614482D01*
X91320498Y-60734180D01*
X91379463Y-60844494D01*
X91458815Y-60941185D01*
X91555506Y-61020537D01*
X91665820Y-61079502D01*
X91785518Y-61115812D01*
X91910000Y-61128072D01*
X93510000Y-61128072D01*
X93634482Y-61115812D01*
X93754180Y-61079502D01*
X93864494Y-61020537D01*
X93961185Y-60941185D01*
X94040537Y-60844494D01*
X94099502Y-60734180D01*
X94135812Y-60614482D01*
X94148072Y-60490000D01*
X94148072Y-59201098D01*
X97945000Y-59201098D01*
X97945000Y-59670902D01*
X98036654Y-60131679D01*
X98216440Y-60565721D01*
X98477450Y-60956349D01*
X98809651Y-61288550D01*
X99200279Y-61549560D01*
X99634321Y-61729346D01*
X100095098Y-61821000D01*
X100564902Y-61821000D01*
X101025679Y-61729346D01*
X101459721Y-61549560D01*
X101850349Y-61288550D01*
X102182550Y-60956349D01*
X102443560Y-60565721D01*
X102623346Y-60131679D01*
X102715000Y-59670902D01*
X102715000Y-59201098D01*
X102623346Y-58740321D01*
X102443560Y-58306279D01*
X102182550Y-57915651D01*
X101850349Y-57583450D01*
X101459721Y-57322440D01*
X101025679Y-57142654D01*
X100564902Y-57051000D01*
X100095098Y-57051000D01*
X99634321Y-57142654D01*
X99200279Y-57322440D01*
X98809651Y-57583450D01*
X98477450Y-57915651D01*
X98216440Y-58306279D01*
X98036654Y-58740321D01*
X97945000Y-59201098D01*
X94148072Y-59201098D01*
X94148072Y-58890000D01*
X94135812Y-58765518D01*
X94099502Y-58645820D01*
X94040537Y-58535506D01*
X93961185Y-58438815D01*
X93864494Y-58359463D01*
X93754180Y-58300498D01*
X93634482Y-58264188D01*
X93586425Y-58259455D01*
X93582195Y-58216510D01*
X93577404Y-58200717D01*
X93531589Y-58049686D01*
X93459946Y-57915651D01*
X93449411Y-57895941D01*
X93338817Y-57761183D01*
X93305045Y-57733467D01*
X92916523Y-57344945D01*
X92888806Y-57311172D01*
X92754048Y-57200578D01*
X92600302Y-57118400D01*
X92433479Y-57067794D01*
X92303466Y-57054989D01*
X92303458Y-57054989D01*
X92259989Y-57050708D01*
X92216520Y-57054989D01*
X85033478Y-57054989D01*
X84990009Y-57050708D01*
X84946540Y-57054989D01*
X84946532Y-57054989D01*
X84816519Y-57067794D01*
X84649696Y-57118400D01*
X84495950Y-57200578D01*
X84394962Y-57283457D01*
X84394960Y-57283459D01*
X84361192Y-57311172D01*
X84333479Y-57344940D01*
X83244950Y-58433470D01*
X83244316Y-58433990D01*
X83101808Y-58357818D01*
X82831309Y-58275764D01*
X82620492Y-58255000D01*
X82479508Y-58255000D01*
X82268691Y-58275764D01*
X81998192Y-58357818D01*
X81748899Y-58491068D01*
X81530392Y-58670392D01*
X81351068Y-58888899D01*
X81280000Y-59021858D01*
X81208932Y-58888899D01*
X81029608Y-58670392D01*
X80811101Y-58491068D01*
X80561808Y-58357818D01*
X80291309Y-58275764D01*
X80080492Y-58255000D01*
X79939508Y-58255000D01*
X79728691Y-58275764D01*
X79458192Y-58357818D01*
X79208899Y-58491068D01*
X78990392Y-58670392D01*
X78811068Y-58888899D01*
X78677818Y-59138192D01*
X78595764Y-59408691D01*
X78568057Y-59690000D01*
X78595764Y-59971309D01*
X78677818Y-60241808D01*
X78811068Y-60491101D01*
X78990392Y-60709608D01*
X79208899Y-60888932D01*
X79458192Y-61022182D01*
X79728691Y-61104236D01*
X79939508Y-61125000D01*
X80080492Y-61125000D01*
X80291309Y-61104236D01*
X80561808Y-61022182D01*
X80811101Y-60888932D01*
X81029608Y-60709608D01*
X81208932Y-60491101D01*
X81280000Y-60358142D01*
X81351068Y-60491101D01*
X81530392Y-60709608D01*
X81748899Y-60888932D01*
X81998192Y-61022182D01*
X82268691Y-61104236D01*
X82479508Y-61125000D01*
X82620492Y-61125000D01*
X82831309Y-61104236D01*
X82955000Y-61066715D01*
X82954999Y-63387447D01*
X82691335Y-63335000D01*
X82408665Y-63335000D01*
X82131426Y-63390147D01*
X81870273Y-63498320D01*
X81635241Y-63655363D01*
X81435363Y-63855241D01*
X81279085Y-64089128D01*
X81246671Y-64028486D01*
X81002702Y-63956903D01*
X80189605Y-64770000D01*
X81002702Y-65583097D01*
X81246671Y-65511514D01*
X81277194Y-65447008D01*
X81278320Y-65449727D01*
X81435363Y-65684759D01*
X81635241Y-65884637D01*
X81870273Y-66041680D01*
X82131426Y-66149853D01*
X82408665Y-66205000D01*
X82691335Y-66205000D01*
X82968574Y-66149853D01*
X83229727Y-66041680D01*
X83464759Y-65884637D01*
X83664637Y-65684759D01*
X83820000Y-65452241D01*
X83975363Y-65684759D01*
X84175241Y-65884637D01*
X84410273Y-66041680D01*
X84671426Y-66149853D01*
X84948665Y-66205000D01*
X85231335Y-66205000D01*
X85266438Y-66198017D01*
X85294952Y-66226531D01*
X85294958Y-66226536D01*
X85455002Y-66386580D01*
X85455001Y-67286529D01*
X85450720Y-67329999D01*
X85455001Y-67373468D01*
X85455001Y-67373475D01*
X85455002Y-67373485D01*
X85455001Y-78619491D01*
X85231335Y-78575000D01*
X84948665Y-78575000D01*
X84671426Y-78630147D01*
X84410273Y-78738320D01*
X84175241Y-78895363D01*
X83975363Y-79095241D01*
X83820000Y-79327759D01*
X83664637Y-79095241D01*
X83464759Y-78895363D01*
X83229727Y-78738320D01*
X82968574Y-78630147D01*
X82691335Y-78575000D01*
X82408665Y-78575000D01*
X82131426Y-78630147D01*
X81870273Y-78738320D01*
X81635241Y-78895363D01*
X81436643Y-79093961D01*
X81435812Y-79085518D01*
X81399502Y-78965820D01*
X81340537Y-78855506D01*
X81261185Y-78758815D01*
X81164494Y-78679463D01*
X81054180Y-78620498D01*
X80934482Y-78584188D01*
X80810000Y-78571928D01*
X79210000Y-78571928D01*
X79085518Y-78584188D01*
X78965820Y-78620498D01*
X78855506Y-78679463D01*
X78758815Y-78758815D01*
X78679463Y-78855506D01*
X78620498Y-78965820D01*
X78584188Y-79085518D01*
X78571928Y-79210000D01*
X78571928Y-80810000D01*
X78584188Y-80934482D01*
X78620498Y-81054180D01*
X78679463Y-81164494D01*
X78758815Y-81261185D01*
X78855506Y-81340537D01*
X78965820Y-81399502D01*
X79085518Y-81435812D01*
X79210000Y-81448072D01*
X80810000Y-81448072D01*
X80934482Y-81435812D01*
X81054180Y-81399502D01*
X81164494Y-81340537D01*
X81261185Y-81261185D01*
X81340537Y-81164494D01*
X81399502Y-81054180D01*
X81435812Y-80934482D01*
X81436643Y-80926039D01*
X81635241Y-81124637D01*
X81870273Y-81281680D01*
X82131426Y-81389853D01*
X82408665Y-81445000D01*
X82691335Y-81445000D01*
X82968574Y-81389853D01*
X83229727Y-81281680D01*
X83464759Y-81124637D01*
X83664637Y-80924759D01*
X83820000Y-80692241D01*
X83975363Y-80924759D01*
X84175241Y-81124637D01*
X84410273Y-81281680D01*
X84671426Y-81389853D01*
X84948665Y-81445000D01*
X85231335Y-81445000D01*
X85455001Y-81400509D01*
X85455001Y-84967420D01*
X84494951Y-85927471D01*
X84461184Y-85955183D01*
X84433471Y-85988951D01*
X84433468Y-85988954D01*
X84350590Y-86089941D01*
X84268412Y-86243687D01*
X84217805Y-86410510D01*
X84213576Y-86453455D01*
X84165518Y-86458188D01*
X84045820Y-86494498D01*
X83935506Y-86553463D01*
X83838815Y-86632815D01*
X83759463Y-86729506D01*
X83700498Y-86839820D01*
X83664188Y-86959518D01*
X83651928Y-87084000D01*
X83651928Y-88684000D01*
X83664188Y-88808482D01*
X83700498Y-88928180D01*
X83759463Y-89038494D01*
X83838815Y-89135185D01*
X83935506Y-89214537D01*
X84045820Y-89273502D01*
X84165518Y-89309812D01*
X84290000Y-89322072D01*
X85890000Y-89322072D01*
X86014482Y-89309812D01*
X86134180Y-89273502D01*
X86244494Y-89214537D01*
X86341185Y-89135185D01*
X86420537Y-89038494D01*
X86479502Y-88928180D01*
X86515812Y-88808482D01*
X86528072Y-88684000D01*
X86528072Y-87742665D01*
X87455000Y-87742665D01*
X87455000Y-88025335D01*
X87510147Y-88302574D01*
X87618320Y-88563727D01*
X87775363Y-88798759D01*
X87975241Y-88998637D01*
X88210273Y-89155680D01*
X88471426Y-89263853D01*
X88748665Y-89319000D01*
X89031335Y-89319000D01*
X89308574Y-89263853D01*
X89569727Y-89155680D01*
X89804759Y-88998637D01*
X90004637Y-88798759D01*
X90161680Y-88563727D01*
X90269853Y-88302574D01*
X90325000Y-88025335D01*
X90325000Y-87742665D01*
X90269853Y-87465426D01*
X90161680Y-87204273D01*
X90004637Y-86969241D01*
X89804759Y-86769363D01*
X89569727Y-86612320D01*
X89308574Y-86504147D01*
X89031335Y-86449000D01*
X88748665Y-86449000D01*
X88471426Y-86504147D01*
X88210273Y-86612320D01*
X87975241Y-86769363D01*
X87775363Y-86969241D01*
X87618320Y-87204273D01*
X87510147Y-87465426D01*
X87455000Y-87742665D01*
X86528072Y-87742665D01*
X86528072Y-87084000D01*
X86515812Y-86959518D01*
X86479502Y-86839820D01*
X86420537Y-86729506D01*
X86341185Y-86632815D01*
X86314590Y-86610989D01*
X86935051Y-85990528D01*
X86968818Y-85962816D01*
X87079412Y-85828058D01*
X87161590Y-85674312D01*
X87212196Y-85507489D01*
X87225001Y-85377476D01*
X87225001Y-85377466D01*
X87229282Y-85334000D01*
X87225001Y-85290534D01*
X87225001Y-81392553D01*
X87488665Y-81445000D01*
X87771335Y-81445000D01*
X88048574Y-81389853D01*
X88309727Y-81281680D01*
X88544759Y-81124637D01*
X88744637Y-80924759D01*
X88900000Y-80692241D01*
X89055363Y-80924759D01*
X89255241Y-81124637D01*
X89490273Y-81281680D01*
X89751426Y-81389853D01*
X90028665Y-81445000D01*
X90311335Y-81445000D01*
X90588574Y-81389853D01*
X90849727Y-81281680D01*
X91084759Y-81124637D01*
X91284637Y-80924759D01*
X91440000Y-80692241D01*
X91595363Y-80924759D01*
X91795241Y-81124637D01*
X92030273Y-81281680D01*
X92291426Y-81389853D01*
X92568665Y-81445000D01*
X92851335Y-81445000D01*
X93128574Y-81389853D01*
X93389727Y-81281680D01*
X93624759Y-81124637D01*
X93824637Y-80924759D01*
X93980000Y-80692241D01*
X94135363Y-80924759D01*
X94335241Y-81124637D01*
X94570273Y-81281680D01*
X94831426Y-81389853D01*
X95108665Y-81445000D01*
X95391335Y-81445000D01*
X95668574Y-81389853D01*
X95929727Y-81281680D01*
X96164759Y-81124637D01*
X96364637Y-80924759D01*
X96520000Y-80692241D01*
X96675363Y-80924759D01*
X96875241Y-81124637D01*
X97110273Y-81281680D01*
X97371426Y-81389853D01*
X97648665Y-81445000D01*
X97931335Y-81445000D01*
X98208574Y-81389853D01*
X98469727Y-81281680D01*
X98704759Y-81124637D01*
X98904637Y-80924759D01*
X99060000Y-80692241D01*
X99215363Y-80924759D01*
X99415241Y-81124637D01*
X99650273Y-81281680D01*
X99818738Y-81351460D01*
X98563750Y-82606449D01*
X98341808Y-82487818D01*
X98071309Y-82405764D01*
X97860492Y-82385000D01*
X97719508Y-82385000D01*
X97508691Y-82405764D01*
X97238192Y-82487818D01*
X96988899Y-82621068D01*
X96770392Y-82800392D01*
X96591068Y-83018899D01*
X96520000Y-83151858D01*
X96448932Y-83018899D01*
X96269608Y-82800392D01*
X96051101Y-82621068D01*
X95801808Y-82487818D01*
X95531309Y-82405764D01*
X95320492Y-82385000D01*
X95179508Y-82385000D01*
X94968691Y-82405764D01*
X94698192Y-82487818D01*
X94448899Y-82621068D01*
X94230392Y-82800392D01*
X94051068Y-83018899D01*
X93917818Y-83268192D01*
X93835764Y-83538691D01*
X93808057Y-83820000D01*
X93835764Y-84101309D01*
X93917818Y-84371808D01*
X94051068Y-84621101D01*
X94230392Y-84839608D01*
X94448899Y-85018932D01*
X94698192Y-85152182D01*
X94968691Y-85234236D01*
X95179508Y-85255000D01*
X95320492Y-85255000D01*
X95531309Y-85234236D01*
X95760000Y-85164864D01*
X95760001Y-90101475D01*
X95733087Y-90088754D01*
X95599039Y-90048096D01*
X95377000Y-90170085D01*
X95377000Y-91313000D01*
X95397000Y-91313000D01*
X95397000Y-91567000D01*
X95377000Y-91567000D01*
X95377000Y-92709915D01*
X95599039Y-92831904D01*
X95733087Y-92791246D01*
X95760000Y-92778526D01*
X95760001Y-95226984D01*
X95683394Y-95267931D01*
X95455203Y-95455203D01*
X95267931Y-95683394D01*
X95250000Y-95716940D01*
X95232069Y-95683394D01*
X95044797Y-95455203D01*
X94816606Y-95267931D01*
X94556264Y-95128775D01*
X94273777Y-95043084D01*
X94053619Y-95021400D01*
X93906381Y-95021400D01*
X93686223Y-95043084D01*
X93603101Y-95068299D01*
X92200000Y-93665199D01*
X92200000Y-91789040D01*
X93858091Y-91789040D01*
X93952930Y-92053881D01*
X94097615Y-92295131D01*
X94286586Y-92503519D01*
X94512580Y-92671037D01*
X94766913Y-92791246D01*
X94900961Y-92831904D01*
X95123000Y-92709915D01*
X95123000Y-91567000D01*
X93979376Y-91567000D01*
X93858091Y-91789040D01*
X92200000Y-91789040D01*
X92200000Y-91090960D01*
X93858091Y-91090960D01*
X93979376Y-91313000D01*
X95123000Y-91313000D01*
X95123000Y-90170085D01*
X94900961Y-90048096D01*
X94766913Y-90088754D01*
X94512580Y-90208963D01*
X94286586Y-90376481D01*
X94097615Y-90584869D01*
X93952930Y-90826119D01*
X93858091Y-91090960D01*
X92200000Y-91090960D01*
X92200000Y-86308043D01*
X92354759Y-86204637D01*
X92554637Y-86004759D01*
X92711680Y-85769727D01*
X92819853Y-85508574D01*
X92875000Y-85231335D01*
X92875000Y-84948665D01*
X92819853Y-84671426D01*
X92711680Y-84410273D01*
X92554637Y-84175241D01*
X92354759Y-83975363D01*
X92119727Y-83818320D01*
X91858574Y-83710147D01*
X91581335Y-83655000D01*
X91298665Y-83655000D01*
X91021426Y-83710147D01*
X90760273Y-83818320D01*
X90525241Y-83975363D01*
X90325363Y-84175241D01*
X90168320Y-84410273D01*
X90060147Y-84671426D01*
X90005000Y-84948665D01*
X90005000Y-85231335D01*
X90060147Y-85508574D01*
X90168320Y-85769727D01*
X90325363Y-86004759D01*
X90525241Y-86204637D01*
X90680001Y-86308044D01*
X90680000Y-87592667D01*
X90680000Y-87592668D01*
X90680001Y-93942668D01*
X90676324Y-93980000D01*
X90690998Y-94128985D01*
X90734454Y-94272246D01*
X90805026Y-94404276D01*
X90876201Y-94491002D01*
X90900000Y-94520001D01*
X90928998Y-94543799D01*
X92528299Y-96143101D01*
X92503084Y-96226223D01*
X92474149Y-96520000D01*
X92503084Y-96813777D01*
X92588775Y-97096264D01*
X92727931Y-97356606D01*
X92915203Y-97584797D01*
X93143394Y-97772069D01*
X93176940Y-97790000D01*
X93143394Y-97807931D01*
X92915203Y-97995203D01*
X92727931Y-98223394D01*
X92588775Y-98483736D01*
X92503084Y-98766223D01*
X92474149Y-99060000D01*
X92503084Y-99353777D01*
X92588775Y-99636264D01*
X92727931Y-99896606D01*
X92915203Y-100124797D01*
X93143394Y-100312069D01*
X93403736Y-100451225D01*
X93686223Y-100536916D01*
X93906381Y-100558600D01*
X94053619Y-100558600D01*
X94273777Y-100536916D01*
X94556264Y-100451225D01*
X94816606Y-100312069D01*
X95044797Y-100124797D01*
X95232069Y-99896606D01*
X95250000Y-99863060D01*
X95267931Y-99896606D01*
X95455203Y-100124797D01*
X95683394Y-100312069D01*
X95943736Y-100451225D01*
X96226223Y-100536916D01*
X96446381Y-100558600D01*
X96593619Y-100558600D01*
X96813777Y-100536916D01*
X97096264Y-100451225D01*
X97356606Y-100312069D01*
X97584797Y-100124797D01*
X97772069Y-99896606D01*
X97790000Y-99863060D01*
X97807931Y-99896606D01*
X97995203Y-100124797D01*
X98223394Y-100312069D01*
X98483736Y-100451225D01*
X98766223Y-100536916D01*
X98986381Y-100558600D01*
X99133619Y-100558600D01*
X99353777Y-100536916D01*
X99636264Y-100451225D01*
X99896606Y-100312069D01*
X100124797Y-100124797D01*
X100312069Y-99896606D01*
X100330000Y-99863060D01*
X100347931Y-99896606D01*
X100535203Y-100124797D01*
X100763394Y-100312069D01*
X101023736Y-100451225D01*
X101306223Y-100536916D01*
X101526381Y-100558600D01*
X101673619Y-100558600D01*
X101893777Y-100536916D01*
X102176264Y-100451225D01*
X102436606Y-100312069D01*
X102664797Y-100124797D01*
X102852069Y-99896606D01*
X102870000Y-99863060D01*
X102887931Y-99896606D01*
X103075203Y-100124797D01*
X103303394Y-100312069D01*
X103563736Y-100451225D01*
X103846223Y-100536916D01*
X104066381Y-100558600D01*
X104213619Y-100558600D01*
X104433777Y-100536916D01*
X104716264Y-100451225D01*
X104976606Y-100312069D01*
X105204797Y-100124797D01*
X105392069Y-99896606D01*
X105410000Y-99863060D01*
X105427931Y-99896606D01*
X105615203Y-100124797D01*
X105843394Y-100312069D01*
X106103736Y-100451225D01*
X106386223Y-100536916D01*
X106606381Y-100558600D01*
X106753619Y-100558600D01*
X106973777Y-100536916D01*
X107256264Y-100451225D01*
X107516606Y-100312069D01*
X107744797Y-100124797D01*
X107932069Y-99896606D01*
X107950000Y-99863060D01*
X107967931Y-99896606D01*
X108155203Y-100124797D01*
X108383394Y-100312069D01*
X108643736Y-100451225D01*
X108926223Y-100536916D01*
X109146381Y-100558600D01*
X109293619Y-100558600D01*
X109513777Y-100536916D01*
X109796264Y-100451225D01*
X110056606Y-100312069D01*
X110284797Y-100124797D01*
X110472069Y-99896606D01*
X110490000Y-99863060D01*
X110507931Y-99896606D01*
X110695203Y-100124797D01*
X110923394Y-100312069D01*
X111183736Y-100451225D01*
X111466223Y-100536916D01*
X111686381Y-100558600D01*
X111833619Y-100558600D01*
X112053777Y-100536916D01*
X112336264Y-100451225D01*
X112596606Y-100312069D01*
X112824797Y-100124797D01*
X113012069Y-99896606D01*
X113030000Y-99863060D01*
X113047931Y-99896606D01*
X113235203Y-100124797D01*
X113463394Y-100312069D01*
X113723736Y-100451225D01*
X114006223Y-100536916D01*
X114226381Y-100558600D01*
X114373619Y-100558600D01*
X114593777Y-100536916D01*
X114876264Y-100451225D01*
X115136606Y-100312069D01*
X115364797Y-100124797D01*
X115552069Y-99896606D01*
X115570000Y-99863060D01*
X115587931Y-99896606D01*
X115775203Y-100124797D01*
X116003394Y-100312069D01*
X116263736Y-100451225D01*
X116546223Y-100536916D01*
X116766381Y-100558600D01*
X116913619Y-100558600D01*
X117133777Y-100536916D01*
X117416264Y-100451225D01*
X117676606Y-100312069D01*
X117904797Y-100124797D01*
X118092069Y-99896606D01*
X118110000Y-99863060D01*
X118127931Y-99896606D01*
X118315203Y-100124797D01*
X118543394Y-100312069D01*
X118803736Y-100451225D01*
X119086223Y-100536916D01*
X119306381Y-100558600D01*
X119453619Y-100558600D01*
X119673777Y-100536916D01*
X119956264Y-100451225D01*
X120216606Y-100312069D01*
X120444797Y-100124797D01*
X120632069Y-99896606D01*
X120650000Y-99863060D01*
X120667931Y-99896606D01*
X120855203Y-100124797D01*
X121083394Y-100312069D01*
X121343736Y-100451225D01*
X121626223Y-100536916D01*
X121846381Y-100558600D01*
X121993619Y-100558600D01*
X122213777Y-100536916D01*
X122496264Y-100451225D01*
X122756606Y-100312069D01*
X122984797Y-100124797D01*
X123172069Y-99896606D01*
X123190000Y-99863060D01*
X123207931Y-99896606D01*
X123395203Y-100124797D01*
X123623394Y-100312069D01*
X123883736Y-100451225D01*
X124166223Y-100536916D01*
X124386381Y-100558600D01*
X124533619Y-100558600D01*
X124753777Y-100536916D01*
X125036264Y-100451225D01*
X125296606Y-100312069D01*
X125524797Y-100124797D01*
X125712069Y-99896606D01*
X125851225Y-99636264D01*
X125936916Y-99353777D01*
X125965851Y-99060000D01*
X125936916Y-98766223D01*
X125851225Y-98483736D01*
X125712069Y-98223394D01*
X125524797Y-97995203D01*
X125516735Y-97988586D01*
X125567780Y-97973102D01*
X125678094Y-97914137D01*
X125774785Y-97834785D01*
X125854137Y-97738094D01*
X125913102Y-97627780D01*
X125949412Y-97508082D01*
X125961672Y-97383600D01*
X125961672Y-95656400D01*
X125949412Y-95531918D01*
X125913102Y-95412220D01*
X125854137Y-95301906D01*
X125774785Y-95205215D01*
X125678094Y-95125863D01*
X125567780Y-95066898D01*
X125448082Y-95030588D01*
X125323600Y-95018328D01*
X123596400Y-95018328D01*
X123471918Y-95030588D01*
X123352220Y-95066898D01*
X123241906Y-95125863D01*
X123145215Y-95205215D01*
X123065863Y-95301906D01*
X123006898Y-95412220D01*
X122991414Y-95463265D01*
X122984797Y-95455203D01*
X122756606Y-95267931D01*
X122496264Y-95128775D01*
X122213777Y-95043084D01*
X121993619Y-95021400D01*
X121846381Y-95021400D01*
X121626223Y-95043084D01*
X121343736Y-95128775D01*
X121083394Y-95267931D01*
X120855203Y-95455203D01*
X120667931Y-95683394D01*
X120650000Y-95716940D01*
X120632069Y-95683394D01*
X120444797Y-95455203D01*
X120216606Y-95267931D01*
X119956264Y-95128775D01*
X119673777Y-95043084D01*
X119453619Y-95021400D01*
X119306381Y-95021400D01*
X119086223Y-95043084D01*
X118803736Y-95128775D01*
X118543394Y-95267931D01*
X118315203Y-95455203D01*
X118127931Y-95683394D01*
X118110000Y-95716940D01*
X118092069Y-95683394D01*
X117904797Y-95455203D01*
X117676606Y-95267931D01*
X117416264Y-95128775D01*
X117133777Y-95043084D01*
X116913619Y-95021400D01*
X116766381Y-95021400D01*
X116546223Y-95043084D01*
X116263736Y-95128775D01*
X116003394Y-95267931D01*
X115775203Y-95455203D01*
X115587931Y-95683394D01*
X115570000Y-95716940D01*
X115552069Y-95683394D01*
X115364797Y-95455203D01*
X115136606Y-95267931D01*
X114876264Y-95128775D01*
X114593777Y-95043084D01*
X114373619Y-95021400D01*
X114226381Y-95021400D01*
X114006223Y-95043084D01*
X113723736Y-95128775D01*
X113463394Y-95267931D01*
X113235203Y-95455203D01*
X113047931Y-95683394D01*
X113030000Y-95716940D01*
X113012069Y-95683394D01*
X112824797Y-95455203D01*
X112596606Y-95267931D01*
X112336264Y-95128775D01*
X112053777Y-95043084D01*
X111833619Y-95021400D01*
X111686381Y-95021400D01*
X111466223Y-95043084D01*
X111183736Y-95128775D01*
X110923394Y-95267931D01*
X110695203Y-95455203D01*
X110507931Y-95683394D01*
X110490000Y-95716940D01*
X110472069Y-95683394D01*
X110284797Y-95455203D01*
X110056606Y-95267931D01*
X109796264Y-95128775D01*
X109513777Y-95043084D01*
X109293619Y-95021400D01*
X109253402Y-95021400D01*
X109731003Y-94543799D01*
X109760001Y-94520001D01*
X109854974Y-94404276D01*
X109925546Y-94272247D01*
X109969003Y-94128986D01*
X109980000Y-94017333D01*
X109983677Y-93980000D01*
X109980000Y-93942667D01*
X109980000Y-92784864D01*
X110208691Y-92854236D01*
X110419508Y-92875000D01*
X110560492Y-92875000D01*
X110771309Y-92854236D01*
X111041808Y-92772182D01*
X111291101Y-92638932D01*
X111509608Y-92459608D01*
X111688932Y-92241101D01*
X111760000Y-92108142D01*
X111831068Y-92241101D01*
X112010392Y-92459608D01*
X112228899Y-92638932D01*
X112478192Y-92772182D01*
X112748691Y-92854236D01*
X112959508Y-92875000D01*
X113100492Y-92875000D01*
X113311309Y-92854236D01*
X113581808Y-92772182D01*
X113831101Y-92638932D01*
X114049608Y-92459608D01*
X114228932Y-92241101D01*
X114300000Y-92108142D01*
X114371068Y-92241101D01*
X114550392Y-92459608D01*
X114768899Y-92638932D01*
X115018192Y-92772182D01*
X115288691Y-92854236D01*
X115499508Y-92875000D01*
X115640492Y-92875000D01*
X115851309Y-92854236D01*
X116121808Y-92772182D01*
X116371101Y-92638932D01*
X116589608Y-92459608D01*
X116768932Y-92241101D01*
X116842579Y-92103318D01*
X116957615Y-92295131D01*
X117146586Y-92503519D01*
X117372580Y-92671037D01*
X117626913Y-92791246D01*
X117760961Y-92831904D01*
X117983000Y-92709915D01*
X117983000Y-91567000D01*
X118237000Y-91567000D01*
X118237000Y-92709915D01*
X118459039Y-92831904D01*
X118593087Y-92791246D01*
X118847420Y-92671037D01*
X119073414Y-92503519D01*
X119262385Y-92295131D01*
X119407070Y-92053881D01*
X119501909Y-91789040D01*
X119380624Y-91567000D01*
X118237000Y-91567000D01*
X117983000Y-91567000D01*
X117963000Y-91567000D01*
X117963000Y-91313000D01*
X117983000Y-91313000D01*
X117983000Y-90170085D01*
X118237000Y-90170085D01*
X118237000Y-91313000D01*
X119380624Y-91313000D01*
X119501909Y-91090960D01*
X119407070Y-90826119D01*
X119262385Y-90584869D01*
X119073414Y-90376481D01*
X118847420Y-90208963D01*
X118593087Y-90088754D01*
X118459039Y-90048096D01*
X118237000Y-90170085D01*
X117983000Y-90170085D01*
X117760961Y-90048096D01*
X117626913Y-90088754D01*
X117372580Y-90208963D01*
X117146586Y-90376481D01*
X116957615Y-90584869D01*
X116842579Y-90776682D01*
X116768932Y-90638899D01*
X116589608Y-90420392D01*
X116371101Y-90241068D01*
X116121808Y-90107818D01*
X115851309Y-90025764D01*
X115640492Y-90005000D01*
X115499508Y-90005000D01*
X115288691Y-90025764D01*
X115018192Y-90107818D01*
X114768899Y-90241068D01*
X114550392Y-90420392D01*
X114371068Y-90638899D01*
X114300000Y-90771858D01*
X114228932Y-90638899D01*
X114049608Y-90420392D01*
X113831101Y-90241068D01*
X113581808Y-90107818D01*
X113311309Y-90025764D01*
X113100492Y-90005000D01*
X112959508Y-90005000D01*
X112748691Y-90025764D01*
X112478192Y-90107818D01*
X112228899Y-90241068D01*
X112010392Y-90420392D01*
X111831068Y-90638899D01*
X111760000Y-90771858D01*
X111688932Y-90638899D01*
X111509608Y-90420392D01*
X111291101Y-90241068D01*
X111041808Y-90107818D01*
X110771309Y-90025764D01*
X110560492Y-90005000D01*
X110459801Y-90005000D01*
X113069703Y-87395098D01*
X123345000Y-87395098D01*
X123345000Y-87864902D01*
X123436654Y-88325679D01*
X123616440Y-88759721D01*
X123877450Y-89150349D01*
X124209651Y-89482550D01*
X124600279Y-89743560D01*
X125034321Y-89923346D01*
X125495098Y-90015000D01*
X125964902Y-90015000D01*
X126425679Y-89923346D01*
X126859721Y-89743560D01*
X127250349Y-89482550D01*
X127582550Y-89150349D01*
X127843560Y-88759721D01*
X128023346Y-88325679D01*
X128115000Y-87864902D01*
X128115000Y-87395098D01*
X128023346Y-86934321D01*
X127843560Y-86500279D01*
X127582550Y-86109651D01*
X127250349Y-85777450D01*
X126859721Y-85516440D01*
X126425679Y-85336654D01*
X125964902Y-85245000D01*
X125495098Y-85245000D01*
X125034321Y-85336654D01*
X124600279Y-85516440D01*
X124209651Y-85777450D01*
X123877450Y-86109651D01*
X123616440Y-86500279D01*
X123436654Y-86934321D01*
X123345000Y-87395098D01*
X113069703Y-87395098D01*
X115244094Y-85220708D01*
X115288691Y-85234236D01*
X115499508Y-85255000D01*
X115640492Y-85255000D01*
X115851309Y-85234236D01*
X116121808Y-85152182D01*
X116371101Y-85018932D01*
X116589608Y-84839608D01*
X116682419Y-84726518D01*
X116684188Y-84744482D01*
X116720498Y-84864180D01*
X116779463Y-84974494D01*
X116858815Y-85071185D01*
X116955506Y-85150537D01*
X117065820Y-85209502D01*
X117185518Y-85245812D01*
X117310000Y-85258072D01*
X118910000Y-85258072D01*
X119034482Y-85245812D01*
X119154180Y-85209502D01*
X119264494Y-85150537D01*
X119361185Y-85071185D01*
X119440537Y-84974494D01*
X119499502Y-84864180D01*
X119535812Y-84744482D01*
X119548072Y-84620000D01*
X119548072Y-83020000D01*
X119535812Y-82895518D01*
X119499502Y-82775820D01*
X119440537Y-82665506D01*
X119361185Y-82568815D01*
X119264494Y-82489463D01*
X119154180Y-82430498D01*
X119034482Y-82394188D01*
X118910000Y-82381928D01*
X117310000Y-82381928D01*
X117185518Y-82394188D01*
X117065820Y-82430498D01*
X116955506Y-82489463D01*
X116858815Y-82568815D01*
X116779463Y-82665506D01*
X116720498Y-82775820D01*
X116684188Y-82895518D01*
X116682419Y-82913482D01*
X116589608Y-82800392D01*
X116371101Y-82621068D01*
X116121808Y-82487818D01*
X115851309Y-82405764D01*
X115640492Y-82385000D01*
X115499508Y-82385000D01*
X115288691Y-82405764D01*
X115018192Y-82487818D01*
X114768899Y-82621068D01*
X114550392Y-82800392D01*
X114371068Y-83018899D01*
X114300000Y-83151858D01*
X114228932Y-83018899D01*
X114049608Y-82800392D01*
X113831101Y-82621068D01*
X113790000Y-82599099D01*
X113790000Y-82587322D01*
X113793676Y-82549999D01*
X113790000Y-82512676D01*
X113790000Y-82512667D01*
X113779003Y-82401014D01*
X113735546Y-82257753D01*
X113664974Y-82125724D01*
X113651811Y-82109685D01*
X113593799Y-82038996D01*
X113593795Y-82038992D01*
X113570001Y-82009999D01*
X113541008Y-81986205D01*
X112999803Y-81445000D01*
X113171335Y-81445000D01*
X113448574Y-81389853D01*
X113709727Y-81281680D01*
X113944759Y-81124637D01*
X114144637Y-80924759D01*
X114300000Y-80692241D01*
X114455363Y-80924759D01*
X114655241Y-81124637D01*
X114890273Y-81281680D01*
X115151426Y-81389853D01*
X115428665Y-81445000D01*
X115711335Y-81445000D01*
X115988574Y-81389853D01*
X116249727Y-81281680D01*
X116484759Y-81124637D01*
X116684637Y-80924759D01*
X116840000Y-80692241D01*
X116995363Y-80924759D01*
X117195241Y-81124637D01*
X117430273Y-81281680D01*
X117691426Y-81389853D01*
X117968665Y-81445000D01*
X118251335Y-81445000D01*
X118528574Y-81389853D01*
X118789727Y-81281680D01*
X119024759Y-81124637D01*
X119224637Y-80924759D01*
X119380000Y-80692241D01*
X119535363Y-80924759D01*
X119735241Y-81124637D01*
X119970273Y-81281680D01*
X120231426Y-81389853D01*
X120508665Y-81445000D01*
X120791335Y-81445000D01*
X121068574Y-81389853D01*
X121329727Y-81281680D01*
X121564759Y-81124637D01*
X121764637Y-80924759D01*
X121920000Y-80692241D01*
X122075363Y-80924759D01*
X122275241Y-81124637D01*
X122510273Y-81281680D01*
X122771426Y-81389853D01*
X123048665Y-81445000D01*
X123331335Y-81445000D01*
X123608574Y-81389853D01*
X123869727Y-81281680D01*
X124104759Y-81124637D01*
X124304637Y-80924759D01*
X124460000Y-80692241D01*
X124615363Y-80924759D01*
X124815241Y-81124637D01*
X125050273Y-81281680D01*
X125311426Y-81389853D01*
X125588665Y-81445000D01*
X125871335Y-81445000D01*
X126148574Y-81389853D01*
X126409727Y-81281680D01*
X126644759Y-81124637D01*
X126844637Y-80924759D01*
X127000000Y-80692241D01*
X127155363Y-80924759D01*
X127355241Y-81124637D01*
X127590273Y-81281680D01*
X127851426Y-81389853D01*
X128128665Y-81445000D01*
X128411335Y-81445000D01*
X128688574Y-81389853D01*
X128880001Y-81310562D01*
X128880001Y-100940000D01*
X76860000Y-100940000D01*
X76860000Y-97555098D01*
X77625000Y-97555098D01*
X77625000Y-98024902D01*
X77716654Y-98485679D01*
X77896440Y-98919721D01*
X78157450Y-99310349D01*
X78489651Y-99642550D01*
X78880279Y-99903560D01*
X79314321Y-100083346D01*
X79775098Y-100175000D01*
X80244902Y-100175000D01*
X80705679Y-100083346D01*
X81139721Y-99903560D01*
X81530349Y-99642550D01*
X81862550Y-99310349D01*
X82123560Y-98919721D01*
X82303346Y-98485679D01*
X82395000Y-98024902D01*
X82395000Y-97555098D01*
X82303346Y-97094321D01*
X82123560Y-96660279D01*
X81862550Y-96269651D01*
X81530349Y-95937450D01*
X81139721Y-95676440D01*
X80705679Y-95496654D01*
X80244902Y-95405000D01*
X79775098Y-95405000D01*
X79314321Y-95496654D01*
X78880279Y-95676440D01*
X78489651Y-95937450D01*
X78157450Y-96269651D01*
X77896440Y-96660279D01*
X77716654Y-97094321D01*
X77625000Y-97555098D01*
X76860000Y-97555098D01*
X76860000Y-88225000D01*
X77122815Y-88225000D01*
X77151487Y-88516111D01*
X77236401Y-88796034D01*
X77374294Y-89054014D01*
X77559866Y-89280134D01*
X77785986Y-89465706D01*
X77803374Y-89475000D01*
X77785986Y-89484294D01*
X77559866Y-89669866D01*
X77374294Y-89895986D01*
X77236401Y-90153966D01*
X77151487Y-90433889D01*
X77122815Y-90725000D01*
X77151487Y-91016111D01*
X77236401Y-91296034D01*
X77374294Y-91554014D01*
X77559866Y-91780134D01*
X77785986Y-91965706D01*
X78043966Y-92103599D01*
X78323889Y-92188513D01*
X78542050Y-92210000D01*
X78937950Y-92210000D01*
X79156111Y-92188513D01*
X79436034Y-92103599D01*
X79694014Y-91965706D01*
X79920134Y-91780134D01*
X80105706Y-91554014D01*
X80243599Y-91296034D01*
X80328513Y-91016111D01*
X80357185Y-90725000D01*
X80328513Y-90433889D01*
X80243599Y-90153966D01*
X80105706Y-89895986D01*
X79920134Y-89669866D01*
X79694014Y-89484294D01*
X79676626Y-89475000D01*
X79694014Y-89465706D01*
X79920134Y-89280134D01*
X80105706Y-89054014D01*
X80243599Y-88796034D01*
X80328513Y-88516111D01*
X80357185Y-88225000D01*
X80328513Y-87933889D01*
X80243599Y-87653966D01*
X80105706Y-87395986D01*
X79924392Y-87175055D01*
X79959180Y-87164502D01*
X80069494Y-87105537D01*
X80166185Y-87026185D01*
X80245537Y-86929494D01*
X80304502Y-86819180D01*
X80340812Y-86699482D01*
X80353072Y-86575000D01*
X80350000Y-86010750D01*
X80191250Y-85852000D01*
X78867000Y-85852000D01*
X78867000Y-85872000D01*
X78613000Y-85872000D01*
X78613000Y-85852000D01*
X77288750Y-85852000D01*
X77130000Y-86010750D01*
X77126928Y-86575000D01*
X77139188Y-86699482D01*
X77175498Y-86819180D01*
X77234463Y-86929494D01*
X77313815Y-87026185D01*
X77410506Y-87105537D01*
X77520820Y-87164502D01*
X77555608Y-87175055D01*
X77374294Y-87395986D01*
X77236401Y-87653966D01*
X77151487Y-87933889D01*
X77122815Y-88225000D01*
X76860000Y-88225000D01*
X76860000Y-84875000D01*
X77126928Y-84875000D01*
X77130000Y-85439250D01*
X77288750Y-85598000D01*
X78613000Y-85598000D01*
X78613000Y-84398750D01*
X78867000Y-84398750D01*
X78867000Y-85598000D01*
X80191250Y-85598000D01*
X80350000Y-85439250D01*
X80353072Y-84875000D01*
X80340812Y-84750518D01*
X80304502Y-84630820D01*
X80245537Y-84520506D01*
X80166185Y-84423815D01*
X80069494Y-84344463D01*
X79959180Y-84285498D01*
X79839482Y-84249188D01*
X79715000Y-84236928D01*
X79025750Y-84240000D01*
X78867000Y-84398750D01*
X78613000Y-84398750D01*
X78454250Y-84240000D01*
X77765000Y-84236928D01*
X77640518Y-84249188D01*
X77520820Y-84285498D01*
X77410506Y-84344463D01*
X77313815Y-84423815D01*
X77234463Y-84520506D01*
X77175498Y-84630820D01*
X77139188Y-84750518D01*
X77126928Y-84875000D01*
X76860000Y-84875000D01*
X76860000Y-65762702D01*
X79196903Y-65762702D01*
X79268486Y-66006671D01*
X79523996Y-66127571D01*
X79798184Y-66196300D01*
X80080512Y-66210217D01*
X80360130Y-66168787D01*
X80626292Y-66073603D01*
X80751514Y-66006671D01*
X80823097Y-65762702D01*
X80010000Y-64949605D01*
X79196903Y-65762702D01*
X76860000Y-65762702D01*
X76860000Y-64840512D01*
X78569783Y-64840512D01*
X78611213Y-65120130D01*
X78706397Y-65386292D01*
X78773329Y-65511514D01*
X79017298Y-65583097D01*
X79830395Y-64770000D01*
X79017298Y-63956903D01*
X78773329Y-64028486D01*
X78652429Y-64283996D01*
X78583700Y-64558184D01*
X78569783Y-64840512D01*
X76860000Y-64840512D01*
X76860000Y-63777298D01*
X79196903Y-63777298D01*
X80010000Y-64590395D01*
X80823097Y-63777298D01*
X80751514Y-63533329D01*
X80496004Y-63412429D01*
X80221816Y-63343700D01*
X79939488Y-63329783D01*
X79659870Y-63371213D01*
X79393708Y-63466397D01*
X79268486Y-63533329D01*
X79196903Y-63777298D01*
X76860000Y-63777298D01*
X76860000Y-56540000D01*
X128880000Y-56540000D01*
X128880000Y-58332229D01*
X128880000Y-58332229D01*
G37*
X128880000Y-58332229D02*
X128841034Y-58311401D01*
X128561111Y-58226487D01*
X128342950Y-58205000D01*
X128197050Y-58205000D01*
X127978889Y-58226487D01*
X127698966Y-58311401D01*
X127440986Y-58449294D01*
X127214866Y-58634866D01*
X127029294Y-58860986D01*
X127000000Y-58915791D01*
X126970706Y-58860986D01*
X126785134Y-58634866D01*
X126559014Y-58449294D01*
X126301034Y-58311401D01*
X126021111Y-58226487D01*
X125802950Y-58205000D01*
X125657050Y-58205000D01*
X125438889Y-58226487D01*
X125158966Y-58311401D01*
X124900986Y-58449294D01*
X124674866Y-58634866D01*
X124489294Y-58860986D01*
X124460000Y-58915791D01*
X124430706Y-58860986D01*
X124245134Y-58634866D01*
X124019014Y-58449294D01*
X123761034Y-58311401D01*
X123481111Y-58226487D01*
X123262950Y-58205000D01*
X123117050Y-58205000D01*
X122898889Y-58226487D01*
X122618966Y-58311401D01*
X122360986Y-58449294D01*
X122134866Y-58634866D01*
X121949294Y-58860986D01*
X121920000Y-58915791D01*
X121890706Y-58860986D01*
X121705134Y-58634866D01*
X121479014Y-58449294D01*
X121221034Y-58311401D01*
X120941111Y-58226487D01*
X120722950Y-58205000D01*
X120577050Y-58205000D01*
X120358889Y-58226487D01*
X120078966Y-58311401D01*
X119820986Y-58449294D01*
X119594866Y-58634866D01*
X119409294Y-58860986D01*
X119380000Y-58915791D01*
X119350706Y-58860986D01*
X119165134Y-58634866D01*
X118939014Y-58449294D01*
X118681034Y-58311401D01*
X118401111Y-58226487D01*
X118182950Y-58205000D01*
X118037050Y-58205000D01*
X117818889Y-58226487D01*
X117538966Y-58311401D01*
X117280986Y-58449294D01*
X117054866Y-58634866D01*
X116869294Y-58860986D01*
X116840000Y-58915791D01*
X116810706Y-58860986D01*
X116625134Y-58634866D01*
X116399014Y-58449294D01*
X116141034Y-58311401D01*
X115861111Y-58226487D01*
X115642950Y-58205000D01*
X115497050Y-58205000D01*
X115278889Y-58226487D01*
X114998966Y-58311401D01*
X114740986Y-58449294D01*
X114514866Y-58634866D01*
X114329294Y-58860986D01*
X114300000Y-58915791D01*
X114270706Y-58860986D01*
X114085134Y-58634866D01*
X113859014Y-58449294D01*
X113601034Y-58311401D01*
X113321111Y-58226487D01*
X113102950Y-58205000D01*
X112957050Y-58205000D01*
X112738889Y-58226487D01*
X112458966Y-58311401D01*
X112200986Y-58449294D01*
X111974866Y-58634866D01*
X111789294Y-58860986D01*
X111760000Y-58915791D01*
X111730706Y-58860986D01*
X111545134Y-58634866D01*
X111319014Y-58449294D01*
X111061034Y-58311401D01*
X110781111Y-58226487D01*
X110562950Y-58205000D01*
X110417050Y-58205000D01*
X110198889Y-58226487D01*
X109918966Y-58311401D01*
X109660986Y-58449294D01*
X109434866Y-58634866D01*
X109410393Y-58664687D01*
X109389502Y-58595820D01*
X109330537Y-58485506D01*
X109251185Y-58388815D01*
X109154494Y-58309463D01*
X109044180Y-58250498D01*
X108924482Y-58214188D01*
X108800000Y-58201928D01*
X107100000Y-58201928D01*
X106975518Y-58214188D01*
X106855820Y-58250498D01*
X106745506Y-58309463D01*
X106648815Y-58388815D01*
X106569463Y-58485506D01*
X106510498Y-58595820D01*
X106474188Y-58715518D01*
X106461928Y-58840000D01*
X106461928Y-60540000D01*
X106474188Y-60664482D01*
X106510498Y-60784180D01*
X106569463Y-60894494D01*
X106648815Y-60991185D01*
X106662655Y-61002543D01*
X106313997Y-61351202D01*
X106284999Y-61375000D01*
X106261201Y-61403998D01*
X106261200Y-61403999D01*
X106190025Y-61490725D01*
X106119453Y-61622755D01*
X106075997Y-61766016D01*
X106061323Y-61915001D01*
X106065000Y-61952333D01*
X106065000Y-63488078D01*
X105828574Y-63390147D01*
X105551335Y-63335000D01*
X105268665Y-63335000D01*
X104991426Y-63390147D01*
X104730273Y-63498320D01*
X104495241Y-63655363D01*
X104295363Y-63855241D01*
X104140000Y-64087759D01*
X103984637Y-63855241D01*
X103784759Y-63655363D01*
X103549727Y-63498320D01*
X103288574Y-63390147D01*
X103011335Y-63335000D01*
X102728665Y-63335000D01*
X102451426Y-63390147D01*
X102190273Y-63498320D01*
X101955241Y-63655363D01*
X101755363Y-63855241D01*
X101600000Y-64087759D01*
X101444637Y-63855241D01*
X101244759Y-63655363D01*
X101009727Y-63498320D01*
X100748574Y-63390147D01*
X100471335Y-63335000D01*
X100188665Y-63335000D01*
X99911426Y-63390147D01*
X99650273Y-63498320D01*
X99415241Y-63655363D01*
X99215363Y-63855241D01*
X99060000Y-64087759D01*
X98904637Y-63855241D01*
X98704759Y-63655363D01*
X98469727Y-63498320D01*
X98208574Y-63390147D01*
X97931335Y-63335000D01*
X97648665Y-63335000D01*
X97371426Y-63390147D01*
X97110273Y-63498320D01*
X96875241Y-63655363D01*
X96675363Y-63855241D01*
X96520000Y-64087759D01*
X96364637Y-63855241D01*
X96164759Y-63655363D01*
X95929727Y-63498320D01*
X95668574Y-63390147D01*
X95391335Y-63335000D01*
X95108665Y-63335000D01*
X94831426Y-63390147D01*
X94570273Y-63498320D01*
X94335241Y-63655363D01*
X94135363Y-63855241D01*
X93980000Y-64087759D01*
X93824637Y-63855241D01*
X93624759Y-63655363D01*
X93389727Y-63498320D01*
X93128574Y-63390147D01*
X92851335Y-63335000D01*
X92568665Y-63335000D01*
X92291426Y-63390147D01*
X92030273Y-63498320D01*
X91795241Y-63655363D01*
X91595363Y-63855241D01*
X91440000Y-64087759D01*
X91284637Y-63855241D01*
X91084759Y-63655363D01*
X90849727Y-63498320D01*
X90588574Y-63390147D01*
X90311335Y-63335000D01*
X90028665Y-63335000D01*
X89846113Y-63371312D01*
X89754999Y-63280198D01*
X89754999Y-61063681D01*
X89888691Y-61104236D01*
X90099508Y-61125000D01*
X90240492Y-61125000D01*
X90451309Y-61104236D01*
X90721808Y-61022182D01*
X90971101Y-60888932D01*
X91189608Y-60709608D01*
X91282419Y-60596518D01*
X91284188Y-60614482D01*
X91320498Y-60734180D01*
X91379463Y-60844494D01*
X91458815Y-60941185D01*
X91555506Y-61020537D01*
X91665820Y-61079502D01*
X91785518Y-61115812D01*
X91910000Y-61128072D01*
X93510000Y-61128072D01*
X93634482Y-61115812D01*
X93754180Y-61079502D01*
X93864494Y-61020537D01*
X93961185Y-60941185D01*
X94040537Y-60844494D01*
X94099502Y-60734180D01*
X94135812Y-60614482D01*
X94148072Y-60490000D01*
X94148072Y-59201098D01*
X97945000Y-59201098D01*
X97945000Y-59670902D01*
X98036654Y-60131679D01*
X98216440Y-60565721D01*
X98477450Y-60956349D01*
X98809651Y-61288550D01*
X99200279Y-61549560D01*
X99634321Y-61729346D01*
X100095098Y-61821000D01*
X100564902Y-61821000D01*
X101025679Y-61729346D01*
X101459721Y-61549560D01*
X101850349Y-61288550D01*
X102182550Y-60956349D01*
X102443560Y-60565721D01*
X102623346Y-60131679D01*
X102715000Y-59670902D01*
X102715000Y-59201098D01*
X102623346Y-58740321D01*
X102443560Y-58306279D01*
X102182550Y-57915651D01*
X101850349Y-57583450D01*
X101459721Y-57322440D01*
X101025679Y-57142654D01*
X100564902Y-57051000D01*
X100095098Y-57051000D01*
X99634321Y-57142654D01*
X99200279Y-57322440D01*
X98809651Y-57583450D01*
X98477450Y-57915651D01*
X98216440Y-58306279D01*
X98036654Y-58740321D01*
X97945000Y-59201098D01*
X94148072Y-59201098D01*
X94148072Y-58890000D01*
X94135812Y-58765518D01*
X94099502Y-58645820D01*
X94040537Y-58535506D01*
X93961185Y-58438815D01*
X93864494Y-58359463D01*
X93754180Y-58300498D01*
X93634482Y-58264188D01*
X93586425Y-58259455D01*
X93582195Y-58216510D01*
X93577404Y-58200717D01*
X93531589Y-58049686D01*
X93459946Y-57915651D01*
X93449411Y-57895941D01*
X93338817Y-57761183D01*
X93305045Y-57733467D01*
X92916523Y-57344945D01*
X92888806Y-57311172D01*
X92754048Y-57200578D01*
X92600302Y-57118400D01*
X92433479Y-57067794D01*
X92303466Y-57054989D01*
X92303458Y-57054989D01*
X92259989Y-57050708D01*
X92216520Y-57054989D01*
X85033478Y-57054989D01*
X84990009Y-57050708D01*
X84946540Y-57054989D01*
X84946532Y-57054989D01*
X84816519Y-57067794D01*
X84649696Y-57118400D01*
X84495950Y-57200578D01*
X84394962Y-57283457D01*
X84394960Y-57283459D01*
X84361192Y-57311172D01*
X84333479Y-57344940D01*
X83244950Y-58433470D01*
X83244316Y-58433990D01*
X83101808Y-58357818D01*
X82831309Y-58275764D01*
X82620492Y-58255000D01*
X82479508Y-58255000D01*
X82268691Y-58275764D01*
X81998192Y-58357818D01*
X81748899Y-58491068D01*
X81530392Y-58670392D01*
X81351068Y-58888899D01*
X81280000Y-59021858D01*
X81208932Y-58888899D01*
X81029608Y-58670392D01*
X80811101Y-58491068D01*
X80561808Y-58357818D01*
X80291309Y-58275764D01*
X80080492Y-58255000D01*
X79939508Y-58255000D01*
X79728691Y-58275764D01*
X79458192Y-58357818D01*
X79208899Y-58491068D01*
X78990392Y-58670392D01*
X78811068Y-58888899D01*
X78677818Y-59138192D01*
X78595764Y-59408691D01*
X78568057Y-59690000D01*
X78595764Y-59971309D01*
X78677818Y-60241808D01*
X78811068Y-60491101D01*
X78990392Y-60709608D01*
X79208899Y-60888932D01*
X79458192Y-61022182D01*
X79728691Y-61104236D01*
X79939508Y-61125000D01*
X80080492Y-61125000D01*
X80291309Y-61104236D01*
X80561808Y-61022182D01*
X80811101Y-60888932D01*
X81029608Y-60709608D01*
X81208932Y-60491101D01*
X81280000Y-60358142D01*
X81351068Y-60491101D01*
X81530392Y-60709608D01*
X81748899Y-60888932D01*
X81998192Y-61022182D01*
X82268691Y-61104236D01*
X82479508Y-61125000D01*
X82620492Y-61125000D01*
X82831309Y-61104236D01*
X82955000Y-61066715D01*
X82954999Y-63387447D01*
X82691335Y-63335000D01*
X82408665Y-63335000D01*
X82131426Y-63390147D01*
X81870273Y-63498320D01*
X81635241Y-63655363D01*
X81435363Y-63855241D01*
X81279085Y-64089128D01*
X81246671Y-64028486D01*
X81002702Y-63956903D01*
X80189605Y-64770000D01*
X81002702Y-65583097D01*
X81246671Y-65511514D01*
X81277194Y-65447008D01*
X81278320Y-65449727D01*
X81435363Y-65684759D01*
X81635241Y-65884637D01*
X81870273Y-66041680D01*
X82131426Y-66149853D01*
X82408665Y-66205000D01*
X82691335Y-66205000D01*
X82968574Y-66149853D01*
X83229727Y-66041680D01*
X83464759Y-65884637D01*
X83664637Y-65684759D01*
X83820000Y-65452241D01*
X83975363Y-65684759D01*
X84175241Y-65884637D01*
X84410273Y-66041680D01*
X84671426Y-66149853D01*
X84948665Y-66205000D01*
X85231335Y-66205000D01*
X85266438Y-66198017D01*
X85294952Y-66226531D01*
X85294958Y-66226536D01*
X85455002Y-66386580D01*
X85455001Y-67286529D01*
X85450720Y-67329999D01*
X85455001Y-67373468D01*
X85455001Y-67373475D01*
X85455002Y-67373485D01*
X85455001Y-78619491D01*
X85231335Y-78575000D01*
X84948665Y-78575000D01*
X84671426Y-78630147D01*
X84410273Y-78738320D01*
X84175241Y-78895363D01*
X83975363Y-79095241D01*
X83820000Y-79327759D01*
X83664637Y-79095241D01*
X83464759Y-78895363D01*
X83229727Y-78738320D01*
X82968574Y-78630147D01*
X82691335Y-78575000D01*
X82408665Y-78575000D01*
X82131426Y-78630147D01*
X81870273Y-78738320D01*
X81635241Y-78895363D01*
X81436643Y-79093961D01*
X81435812Y-79085518D01*
X81399502Y-78965820D01*
X81340537Y-78855506D01*
X81261185Y-78758815D01*
X81164494Y-78679463D01*
X81054180Y-78620498D01*
X80934482Y-78584188D01*
X80810000Y-78571928D01*
X79210000Y-78571928D01*
X79085518Y-78584188D01*
X78965820Y-78620498D01*
X78855506Y-78679463D01*
X78758815Y-78758815D01*
X78679463Y-78855506D01*
X78620498Y-78965820D01*
X78584188Y-79085518D01*
X78571928Y-79210000D01*
X78571928Y-80810000D01*
X78584188Y-80934482D01*
X78620498Y-81054180D01*
X78679463Y-81164494D01*
X78758815Y-81261185D01*
X78855506Y-81340537D01*
X78965820Y-81399502D01*
X79085518Y-81435812D01*
X79210000Y-81448072D01*
X80810000Y-81448072D01*
X80934482Y-81435812D01*
X81054180Y-81399502D01*
X81164494Y-81340537D01*
X81261185Y-81261185D01*
X81340537Y-81164494D01*
X81399502Y-81054180D01*
X81435812Y-80934482D01*
X81436643Y-80926039D01*
X81635241Y-81124637D01*
X81870273Y-81281680D01*
X82131426Y-81389853D01*
X82408665Y-81445000D01*
X82691335Y-81445000D01*
X82968574Y-81389853D01*
X83229727Y-81281680D01*
X83464759Y-81124637D01*
X83664637Y-80924759D01*
X83820000Y-80692241D01*
X83975363Y-80924759D01*
X84175241Y-81124637D01*
X84410273Y-81281680D01*
X84671426Y-81389853D01*
X84948665Y-81445000D01*
X85231335Y-81445000D01*
X85455001Y-81400509D01*
X85455001Y-84967420D01*
X84494951Y-85927471D01*
X84461184Y-85955183D01*
X84433471Y-85988951D01*
X84433468Y-85988954D01*
X84350590Y-86089941D01*
X84268412Y-86243687D01*
X84217805Y-86410510D01*
X84213576Y-86453455D01*
X84165518Y-86458188D01*
X84045820Y-86494498D01*
X83935506Y-86553463D01*
X83838815Y-86632815D01*
X83759463Y-86729506D01*
X83700498Y-86839820D01*
X83664188Y-86959518D01*
X83651928Y-87084000D01*
X83651928Y-88684000D01*
X83664188Y-88808482D01*
X83700498Y-88928180D01*
X83759463Y-89038494D01*
X83838815Y-89135185D01*
X83935506Y-89214537D01*
X84045820Y-89273502D01*
X84165518Y-89309812D01*
X84290000Y-89322072D01*
X85890000Y-89322072D01*
X86014482Y-89309812D01*
X86134180Y-89273502D01*
X86244494Y-89214537D01*
X86341185Y-89135185D01*
X86420537Y-89038494D01*
X86479502Y-88928180D01*
X86515812Y-88808482D01*
X86528072Y-88684000D01*
X86528072Y-87742665D01*
X87455000Y-87742665D01*
X87455000Y-88025335D01*
X87510147Y-88302574D01*
X87618320Y-88563727D01*
X87775363Y-88798759D01*
X87975241Y-88998637D01*
X88210273Y-89155680D01*
X88471426Y-89263853D01*
X88748665Y-89319000D01*
X89031335Y-89319000D01*
X89308574Y-89263853D01*
X89569727Y-89155680D01*
X89804759Y-88998637D01*
X90004637Y-88798759D01*
X90161680Y-88563727D01*
X90269853Y-88302574D01*
X90325000Y-88025335D01*
X90325000Y-87742665D01*
X90269853Y-87465426D01*
X90161680Y-87204273D01*
X90004637Y-86969241D01*
X89804759Y-86769363D01*
X89569727Y-86612320D01*
X89308574Y-86504147D01*
X89031335Y-86449000D01*
X88748665Y-86449000D01*
X88471426Y-86504147D01*
X88210273Y-86612320D01*
X87975241Y-86769363D01*
X87775363Y-86969241D01*
X87618320Y-87204273D01*
X87510147Y-87465426D01*
X87455000Y-87742665D01*
X86528072Y-87742665D01*
X86528072Y-87084000D01*
X86515812Y-86959518D01*
X86479502Y-86839820D01*
X86420537Y-86729506D01*
X86341185Y-86632815D01*
X86314590Y-86610989D01*
X86935051Y-85990528D01*
X86968818Y-85962816D01*
X87079412Y-85828058D01*
X87161590Y-85674312D01*
X87212196Y-85507489D01*
X87225001Y-85377476D01*
X87225001Y-85377466D01*
X87229282Y-85334000D01*
X87225001Y-85290534D01*
X87225001Y-81392553D01*
X87488665Y-81445000D01*
X87771335Y-81445000D01*
X88048574Y-81389853D01*
X88309727Y-81281680D01*
X88544759Y-81124637D01*
X88744637Y-80924759D01*
X88900000Y-80692241D01*
X89055363Y-80924759D01*
X89255241Y-81124637D01*
X89490273Y-81281680D01*
X89751426Y-81389853D01*
X90028665Y-81445000D01*
X90311335Y-81445000D01*
X90588574Y-81389853D01*
X90849727Y-81281680D01*
X91084759Y-81124637D01*
X91284637Y-80924759D01*
X91440000Y-80692241D01*
X91595363Y-80924759D01*
X91795241Y-81124637D01*
X92030273Y-81281680D01*
X92291426Y-81389853D01*
X92568665Y-81445000D01*
X92851335Y-81445000D01*
X93128574Y-81389853D01*
X93389727Y-81281680D01*
X93624759Y-81124637D01*
X93824637Y-80924759D01*
X93980000Y-80692241D01*
X94135363Y-80924759D01*
X94335241Y-81124637D01*
X94570273Y-81281680D01*
X94831426Y-81389853D01*
X95108665Y-81445000D01*
X95391335Y-81445000D01*
X95668574Y-81389853D01*
X95929727Y-81281680D01*
X96164759Y-81124637D01*
X96364637Y-80924759D01*
X96520000Y-80692241D01*
X96675363Y-80924759D01*
X96875241Y-81124637D01*
X97110273Y-81281680D01*
X97371426Y-81389853D01*
X97648665Y-81445000D01*
X97931335Y-81445000D01*
X98208574Y-81389853D01*
X98469727Y-81281680D01*
X98704759Y-81124637D01*
X98904637Y-80924759D01*
X99060000Y-80692241D01*
X99215363Y-80924759D01*
X99415241Y-81124637D01*
X99650273Y-81281680D01*
X99818738Y-81351460D01*
X98563750Y-82606449D01*
X98341808Y-82487818D01*
X98071309Y-82405764D01*
X97860492Y-82385000D01*
X97719508Y-82385000D01*
X97508691Y-82405764D01*
X97238192Y-82487818D01*
X96988899Y-82621068D01*
X96770392Y-82800392D01*
X96591068Y-83018899D01*
X96520000Y-83151858D01*
X96448932Y-83018899D01*
X96269608Y-82800392D01*
X96051101Y-82621068D01*
X95801808Y-82487818D01*
X95531309Y-82405764D01*
X95320492Y-82385000D01*
X95179508Y-82385000D01*
X94968691Y-82405764D01*
X94698192Y-82487818D01*
X94448899Y-82621068D01*
X94230392Y-82800392D01*
X94051068Y-83018899D01*
X93917818Y-83268192D01*
X93835764Y-83538691D01*
X93808057Y-83820000D01*
X93835764Y-84101309D01*
X93917818Y-84371808D01*
X94051068Y-84621101D01*
X94230392Y-84839608D01*
X94448899Y-85018932D01*
X94698192Y-85152182D01*
X94968691Y-85234236D01*
X95179508Y-85255000D01*
X95320492Y-85255000D01*
X95531309Y-85234236D01*
X95760000Y-85164864D01*
X95760001Y-90101475D01*
X95733087Y-90088754D01*
X95599039Y-90048096D01*
X95377000Y-90170085D01*
X95377000Y-91313000D01*
X95397000Y-91313000D01*
X95397000Y-91567000D01*
X95377000Y-91567000D01*
X95377000Y-92709915D01*
X95599039Y-92831904D01*
X95733087Y-92791246D01*
X95760000Y-92778526D01*
X95760001Y-95226984D01*
X95683394Y-95267931D01*
X95455203Y-95455203D01*
X95267931Y-95683394D01*
X95250000Y-95716940D01*
X95232069Y-95683394D01*
X95044797Y-95455203D01*
X94816606Y-95267931D01*
X94556264Y-95128775D01*
X94273777Y-95043084D01*
X94053619Y-95021400D01*
X93906381Y-95021400D01*
X93686223Y-95043084D01*
X93603101Y-95068299D01*
X92200000Y-93665199D01*
X92200000Y-91789040D01*
X93858091Y-91789040D01*
X93952930Y-92053881D01*
X94097615Y-92295131D01*
X94286586Y-92503519D01*
X94512580Y-92671037D01*
X94766913Y-92791246D01*
X94900961Y-92831904D01*
X95123000Y-92709915D01*
X95123000Y-91567000D01*
X93979376Y-91567000D01*
X93858091Y-91789040D01*
X92200000Y-91789040D01*
X92200000Y-91090960D01*
X93858091Y-91090960D01*
X93979376Y-91313000D01*
X95123000Y-91313000D01*
X95123000Y-90170085D01*
X94900961Y-90048096D01*
X94766913Y-90088754D01*
X94512580Y-90208963D01*
X94286586Y-90376481D01*
X94097615Y-90584869D01*
X93952930Y-90826119D01*
X93858091Y-91090960D01*
X92200000Y-91090960D01*
X92200000Y-86308043D01*
X92354759Y-86204637D01*
X92554637Y-86004759D01*
X92711680Y-85769727D01*
X92819853Y-85508574D01*
X92875000Y-85231335D01*
X92875000Y-84948665D01*
X92819853Y-84671426D01*
X92711680Y-84410273D01*
X92554637Y-84175241D01*
X92354759Y-83975363D01*
X92119727Y-83818320D01*
X91858574Y-83710147D01*
X91581335Y-83655000D01*
X91298665Y-83655000D01*
X91021426Y-83710147D01*
X90760273Y-83818320D01*
X90525241Y-83975363D01*
X90325363Y-84175241D01*
X90168320Y-84410273D01*
X90060147Y-84671426D01*
X90005000Y-84948665D01*
X90005000Y-85231335D01*
X90060147Y-85508574D01*
X90168320Y-85769727D01*
X90325363Y-86004759D01*
X90525241Y-86204637D01*
X90680001Y-86308044D01*
X90680000Y-87592667D01*
X90680000Y-87592668D01*
X90680001Y-93942668D01*
X90676324Y-93980000D01*
X90690998Y-94128985D01*
X90734454Y-94272246D01*
X90805026Y-94404276D01*
X90876201Y-94491002D01*
X90900000Y-94520001D01*
X90928998Y-94543799D01*
X92528299Y-96143101D01*
X92503084Y-96226223D01*
X92474149Y-96520000D01*
X92503084Y-96813777D01*
X92588775Y-97096264D01*
X92727931Y-97356606D01*
X92915203Y-97584797D01*
X93143394Y-97772069D01*
X93176940Y-97790000D01*
X93143394Y-97807931D01*
X92915203Y-97995203D01*
X92727931Y-98223394D01*
X92588775Y-98483736D01*
X92503084Y-98766223D01*
X92474149Y-99060000D01*
X92503084Y-99353777D01*
X92588775Y-99636264D01*
X92727931Y-99896606D01*
X92915203Y-100124797D01*
X93143394Y-100312069D01*
X93403736Y-100451225D01*
X93686223Y-100536916D01*
X93906381Y-100558600D01*
X94053619Y-100558600D01*
X94273777Y-100536916D01*
X94556264Y-100451225D01*
X94816606Y-100312069D01*
X95044797Y-100124797D01*
X95232069Y-99896606D01*
X95250000Y-99863060D01*
X95267931Y-99896606D01*
X95455203Y-100124797D01*
X95683394Y-100312069D01*
X95943736Y-100451225D01*
X96226223Y-100536916D01*
X96446381Y-100558600D01*
X96593619Y-100558600D01*
X96813777Y-100536916D01*
X97096264Y-100451225D01*
X97356606Y-100312069D01*
X97584797Y-100124797D01*
X97772069Y-99896606D01*
X97790000Y-99863060D01*
X97807931Y-99896606D01*
X97995203Y-100124797D01*
X98223394Y-100312069D01*
X98483736Y-100451225D01*
X98766223Y-100536916D01*
X98986381Y-100558600D01*
X99133619Y-100558600D01*
X99353777Y-100536916D01*
X99636264Y-100451225D01*
X99896606Y-100312069D01*
X100124797Y-100124797D01*
X100312069Y-99896606D01*
X100330000Y-99863060D01*
X100347931Y-99896606D01*
X100535203Y-100124797D01*
X100763394Y-100312069D01*
X101023736Y-100451225D01*
X101306223Y-100536916D01*
X101526381Y-100558600D01*
X101673619Y-100558600D01*
X101893777Y-100536916D01*
X102176264Y-100451225D01*
X102436606Y-100312069D01*
X102664797Y-100124797D01*
X102852069Y-99896606D01*
X102870000Y-99863060D01*
X102887931Y-99896606D01*
X103075203Y-100124797D01*
X103303394Y-100312069D01*
X103563736Y-100451225D01*
X103846223Y-100536916D01*
X104066381Y-100558600D01*
X104213619Y-100558600D01*
X104433777Y-100536916D01*
X104716264Y-100451225D01*
X104976606Y-100312069D01*
X105204797Y-100124797D01*
X105392069Y-99896606D01*
X105410000Y-99863060D01*
X105427931Y-99896606D01*
X105615203Y-100124797D01*
X105843394Y-100312069D01*
X106103736Y-100451225D01*
X106386223Y-100536916D01*
X106606381Y-100558600D01*
X106753619Y-100558600D01*
X106973777Y-100536916D01*
X107256264Y-100451225D01*
X107516606Y-100312069D01*
X107744797Y-100124797D01*
X107932069Y-99896606D01*
X107950000Y-99863060D01*
X107967931Y-99896606D01*
X108155203Y-100124797D01*
X108383394Y-100312069D01*
X108643736Y-100451225D01*
X108926223Y-100536916D01*
X109146381Y-100558600D01*
X109293619Y-100558600D01*
X109513777Y-100536916D01*
X109796264Y-100451225D01*
X110056606Y-100312069D01*
X110284797Y-100124797D01*
X110472069Y-99896606D01*
X110490000Y-99863060D01*
X110507931Y-99896606D01*
X110695203Y-100124797D01*
X110923394Y-100312069D01*
X111183736Y-100451225D01*
X111466223Y-100536916D01*
X111686381Y-100558600D01*
X111833619Y-100558600D01*
X112053777Y-100536916D01*
X112336264Y-100451225D01*
X112596606Y-100312069D01*
X112824797Y-100124797D01*
X113012069Y-99896606D01*
X113030000Y-99863060D01*
X113047931Y-99896606D01*
X113235203Y-100124797D01*
X113463394Y-100312069D01*
X113723736Y-100451225D01*
X114006223Y-100536916D01*
X114226381Y-100558600D01*
X114373619Y-100558600D01*
X114593777Y-100536916D01*
X114876264Y-100451225D01*
X115136606Y-100312069D01*
X115364797Y-100124797D01*
X115552069Y-99896606D01*
X115570000Y-99863060D01*
X115587931Y-99896606D01*
X115775203Y-100124797D01*
X116003394Y-100312069D01*
X116263736Y-100451225D01*
X116546223Y-100536916D01*
X116766381Y-100558600D01*
X116913619Y-100558600D01*
X117133777Y-100536916D01*
X117416264Y-100451225D01*
X117676606Y-100312069D01*
X117904797Y-100124797D01*
X118092069Y-99896606D01*
X118110000Y-99863060D01*
X118127931Y-99896606D01*
X118315203Y-100124797D01*
X118543394Y-100312069D01*
X118803736Y-100451225D01*
X119086223Y-100536916D01*
X119306381Y-100558600D01*
X119453619Y-100558600D01*
X119673777Y-100536916D01*
X119956264Y-100451225D01*
X120216606Y-100312069D01*
X120444797Y-100124797D01*
X120632069Y-99896606D01*
X120650000Y-99863060D01*
X120667931Y-99896606D01*
X120855203Y-100124797D01*
X121083394Y-100312069D01*
X121343736Y-100451225D01*
X121626223Y-100536916D01*
X121846381Y-100558600D01*
X121993619Y-100558600D01*
X122213777Y-100536916D01*
X122496264Y-100451225D01*
X122756606Y-100312069D01*
X122984797Y-100124797D01*
X123172069Y-99896606D01*
X123190000Y-99863060D01*
X123207931Y-99896606D01*
X123395203Y-100124797D01*
X123623394Y-100312069D01*
X123883736Y-100451225D01*
X124166223Y-100536916D01*
X124386381Y-100558600D01*
X124533619Y-100558600D01*
X124753777Y-100536916D01*
X125036264Y-100451225D01*
X125296606Y-100312069D01*
X125524797Y-100124797D01*
X125712069Y-99896606D01*
X125851225Y-99636264D01*
X125936916Y-99353777D01*
X125965851Y-99060000D01*
X125936916Y-98766223D01*
X125851225Y-98483736D01*
X125712069Y-98223394D01*
X125524797Y-97995203D01*
X125516735Y-97988586D01*
X125567780Y-97973102D01*
X125678094Y-97914137D01*
X125774785Y-97834785D01*
X125854137Y-97738094D01*
X125913102Y-97627780D01*
X125949412Y-97508082D01*
X125961672Y-97383600D01*
X125961672Y-95656400D01*
X125949412Y-95531918D01*
X125913102Y-95412220D01*
X125854137Y-95301906D01*
X125774785Y-95205215D01*
X125678094Y-95125863D01*
X125567780Y-95066898D01*
X125448082Y-95030588D01*
X125323600Y-95018328D01*
X123596400Y-95018328D01*
X123471918Y-95030588D01*
X123352220Y-95066898D01*
X123241906Y-95125863D01*
X123145215Y-95205215D01*
X123065863Y-95301906D01*
X123006898Y-95412220D01*
X122991414Y-95463265D01*
X122984797Y-95455203D01*
X122756606Y-95267931D01*
X122496264Y-95128775D01*
X122213777Y-95043084D01*
X121993619Y-95021400D01*
X121846381Y-95021400D01*
X121626223Y-95043084D01*
X121343736Y-95128775D01*
X121083394Y-95267931D01*
X120855203Y-95455203D01*
X120667931Y-95683394D01*
X120650000Y-95716940D01*
X120632069Y-95683394D01*
X120444797Y-95455203D01*
X120216606Y-95267931D01*
X119956264Y-95128775D01*
X119673777Y-95043084D01*
X119453619Y-95021400D01*
X119306381Y-95021400D01*
X119086223Y-95043084D01*
X118803736Y-95128775D01*
X118543394Y-95267931D01*
X118315203Y-95455203D01*
X118127931Y-95683394D01*
X118110000Y-95716940D01*
X118092069Y-95683394D01*
X117904797Y-95455203D01*
X117676606Y-95267931D01*
X117416264Y-95128775D01*
X117133777Y-95043084D01*
X116913619Y-95021400D01*
X116766381Y-95021400D01*
X116546223Y-95043084D01*
X116263736Y-95128775D01*
X116003394Y-95267931D01*
X115775203Y-95455203D01*
X115587931Y-95683394D01*
X115570000Y-95716940D01*
X115552069Y-95683394D01*
X115364797Y-95455203D01*
X115136606Y-95267931D01*
X114876264Y-95128775D01*
X114593777Y-95043084D01*
X114373619Y-95021400D01*
X114226381Y-95021400D01*
X114006223Y-95043084D01*
X113723736Y-95128775D01*
X113463394Y-95267931D01*
X113235203Y-95455203D01*
X113047931Y-95683394D01*
X113030000Y-95716940D01*
X113012069Y-95683394D01*
X112824797Y-95455203D01*
X112596606Y-95267931D01*
X112336264Y-95128775D01*
X112053777Y-95043084D01*
X111833619Y-95021400D01*
X111686381Y-95021400D01*
X111466223Y-95043084D01*
X111183736Y-95128775D01*
X110923394Y-95267931D01*
X110695203Y-95455203D01*
X110507931Y-95683394D01*
X110490000Y-95716940D01*
X110472069Y-95683394D01*
X110284797Y-95455203D01*
X110056606Y-95267931D01*
X109796264Y-95128775D01*
X109513777Y-95043084D01*
X109293619Y-95021400D01*
X109253402Y-95021400D01*
X109731003Y-94543799D01*
X109760001Y-94520001D01*
X109854974Y-94404276D01*
X109925546Y-94272247D01*
X109969003Y-94128986D01*
X109980000Y-94017333D01*
X109983677Y-93980000D01*
X109980000Y-93942667D01*
X109980000Y-92784864D01*
X110208691Y-92854236D01*
X110419508Y-92875000D01*
X110560492Y-92875000D01*
X110771309Y-92854236D01*
X111041808Y-92772182D01*
X111291101Y-92638932D01*
X111509608Y-92459608D01*
X111688932Y-92241101D01*
X111760000Y-92108142D01*
X111831068Y-92241101D01*
X112010392Y-92459608D01*
X112228899Y-92638932D01*
X112478192Y-92772182D01*
X112748691Y-92854236D01*
X112959508Y-92875000D01*
X113100492Y-92875000D01*
X113311309Y-92854236D01*
X113581808Y-92772182D01*
X113831101Y-92638932D01*
X114049608Y-92459608D01*
X114228932Y-92241101D01*
X114300000Y-92108142D01*
X114371068Y-92241101D01*
X114550392Y-92459608D01*
X114768899Y-92638932D01*
X115018192Y-92772182D01*
X115288691Y-92854236D01*
X115499508Y-92875000D01*
X115640492Y-92875000D01*
X115851309Y-92854236D01*
X116121808Y-92772182D01*
X116371101Y-92638932D01*
X116589608Y-92459608D01*
X116768932Y-92241101D01*
X116842579Y-92103318D01*
X116957615Y-92295131D01*
X117146586Y-92503519D01*
X117372580Y-92671037D01*
X117626913Y-92791246D01*
X117760961Y-92831904D01*
X117983000Y-92709915D01*
X117983000Y-91567000D01*
X118237000Y-91567000D01*
X118237000Y-92709915D01*
X118459039Y-92831904D01*
X118593087Y-92791246D01*
X118847420Y-92671037D01*
X119073414Y-92503519D01*
X119262385Y-92295131D01*
X119407070Y-92053881D01*
X119501909Y-91789040D01*
X119380624Y-91567000D01*
X118237000Y-91567000D01*
X117983000Y-91567000D01*
X117963000Y-91567000D01*
X117963000Y-91313000D01*
X117983000Y-91313000D01*
X117983000Y-90170085D01*
X118237000Y-90170085D01*
X118237000Y-91313000D01*
X119380624Y-91313000D01*
X119501909Y-91090960D01*
X119407070Y-90826119D01*
X119262385Y-90584869D01*
X119073414Y-90376481D01*
X118847420Y-90208963D01*
X118593087Y-90088754D01*
X118459039Y-90048096D01*
X118237000Y-90170085D01*
X117983000Y-90170085D01*
X117760961Y-90048096D01*
X117626913Y-90088754D01*
X117372580Y-90208963D01*
X117146586Y-90376481D01*
X116957615Y-90584869D01*
X116842579Y-90776682D01*
X116768932Y-90638899D01*
X116589608Y-90420392D01*
X116371101Y-90241068D01*
X116121808Y-90107818D01*
X115851309Y-90025764D01*
X115640492Y-90005000D01*
X115499508Y-90005000D01*
X115288691Y-90025764D01*
X115018192Y-90107818D01*
X114768899Y-90241068D01*
X114550392Y-90420392D01*
X114371068Y-90638899D01*
X114300000Y-90771858D01*
X114228932Y-90638899D01*
X114049608Y-90420392D01*
X113831101Y-90241068D01*
X113581808Y-90107818D01*
X113311309Y-90025764D01*
X113100492Y-90005000D01*
X112959508Y-90005000D01*
X112748691Y-90025764D01*
X112478192Y-90107818D01*
X112228899Y-90241068D01*
X112010392Y-90420392D01*
X111831068Y-90638899D01*
X111760000Y-90771858D01*
X111688932Y-90638899D01*
X111509608Y-90420392D01*
X111291101Y-90241068D01*
X111041808Y-90107818D01*
X110771309Y-90025764D01*
X110560492Y-90005000D01*
X110459801Y-90005000D01*
X113069703Y-87395098D01*
X123345000Y-87395098D01*
X123345000Y-87864902D01*
X123436654Y-88325679D01*
X123616440Y-88759721D01*
X123877450Y-89150349D01*
X124209651Y-89482550D01*
X124600279Y-89743560D01*
X125034321Y-89923346D01*
X125495098Y-90015000D01*
X125964902Y-90015000D01*
X126425679Y-89923346D01*
X126859721Y-89743560D01*
X127250349Y-89482550D01*
X127582550Y-89150349D01*
X127843560Y-88759721D01*
X128023346Y-88325679D01*
X128115000Y-87864902D01*
X128115000Y-87395098D01*
X128023346Y-86934321D01*
X127843560Y-86500279D01*
X127582550Y-86109651D01*
X127250349Y-85777450D01*
X126859721Y-85516440D01*
X126425679Y-85336654D01*
X125964902Y-85245000D01*
X125495098Y-85245000D01*
X125034321Y-85336654D01*
X124600279Y-85516440D01*
X124209651Y-85777450D01*
X123877450Y-86109651D01*
X123616440Y-86500279D01*
X123436654Y-86934321D01*
X123345000Y-87395098D01*
X113069703Y-87395098D01*
X115244094Y-85220708D01*
X115288691Y-85234236D01*
X115499508Y-85255000D01*
X115640492Y-85255000D01*
X115851309Y-85234236D01*
X116121808Y-85152182D01*
X116371101Y-85018932D01*
X116589608Y-84839608D01*
X116682419Y-84726518D01*
X116684188Y-84744482D01*
X116720498Y-84864180D01*
X116779463Y-84974494D01*
X116858815Y-85071185D01*
X116955506Y-85150537D01*
X117065820Y-85209502D01*
X117185518Y-85245812D01*
X117310000Y-85258072D01*
X118910000Y-85258072D01*
X119034482Y-85245812D01*
X119154180Y-85209502D01*
X119264494Y-85150537D01*
X119361185Y-85071185D01*
X119440537Y-84974494D01*
X119499502Y-84864180D01*
X119535812Y-84744482D01*
X119548072Y-84620000D01*
X119548072Y-83020000D01*
X119535812Y-82895518D01*
X119499502Y-82775820D01*
X119440537Y-82665506D01*
X119361185Y-82568815D01*
X119264494Y-82489463D01*
X119154180Y-82430498D01*
X119034482Y-82394188D01*
X118910000Y-82381928D01*
X117310000Y-82381928D01*
X117185518Y-82394188D01*
X117065820Y-82430498D01*
X116955506Y-82489463D01*
X116858815Y-82568815D01*
X116779463Y-82665506D01*
X116720498Y-82775820D01*
X116684188Y-82895518D01*
X116682419Y-82913482D01*
X116589608Y-82800392D01*
X116371101Y-82621068D01*
X116121808Y-82487818D01*
X115851309Y-82405764D01*
X115640492Y-82385000D01*
X115499508Y-82385000D01*
X115288691Y-82405764D01*
X115018192Y-82487818D01*
X114768899Y-82621068D01*
X114550392Y-82800392D01*
X114371068Y-83018899D01*
X114300000Y-83151858D01*
X114228932Y-83018899D01*
X114049608Y-82800392D01*
X113831101Y-82621068D01*
X113790000Y-82599099D01*
X113790000Y-82587322D01*
X113793676Y-82549999D01*
X113790000Y-82512676D01*
X113790000Y-82512667D01*
X113779003Y-82401014D01*
X113735546Y-82257753D01*
X113664974Y-82125724D01*
X113651811Y-82109685D01*
X113593799Y-82038996D01*
X113593795Y-82038992D01*
X113570001Y-82009999D01*
X113541008Y-81986205D01*
X112999803Y-81445000D01*
X113171335Y-81445000D01*
X113448574Y-81389853D01*
X113709727Y-81281680D01*
X113944759Y-81124637D01*
X114144637Y-80924759D01*
X114300000Y-80692241D01*
X114455363Y-80924759D01*
X114655241Y-81124637D01*
X114890273Y-81281680D01*
X115151426Y-81389853D01*
X115428665Y-81445000D01*
X115711335Y-81445000D01*
X115988574Y-81389853D01*
X116249727Y-81281680D01*
X116484759Y-81124637D01*
X116684637Y-80924759D01*
X116840000Y-80692241D01*
X116995363Y-80924759D01*
X117195241Y-81124637D01*
X117430273Y-81281680D01*
X117691426Y-81389853D01*
X117968665Y-81445000D01*
X118251335Y-81445000D01*
X118528574Y-81389853D01*
X118789727Y-81281680D01*
X119024759Y-81124637D01*
X119224637Y-80924759D01*
X119380000Y-80692241D01*
X119535363Y-80924759D01*
X119735241Y-81124637D01*
X119970273Y-81281680D01*
X120231426Y-81389853D01*
X120508665Y-81445000D01*
X120791335Y-81445000D01*
X121068574Y-81389853D01*
X121329727Y-81281680D01*
X121564759Y-81124637D01*
X121764637Y-80924759D01*
X121920000Y-80692241D01*
X122075363Y-80924759D01*
X122275241Y-81124637D01*
X122510273Y-81281680D01*
X122771426Y-81389853D01*
X123048665Y-81445000D01*
X123331335Y-81445000D01*
X123608574Y-81389853D01*
X123869727Y-81281680D01*
X124104759Y-81124637D01*
X124304637Y-80924759D01*
X124460000Y-80692241D01*
X124615363Y-80924759D01*
X124815241Y-81124637D01*
X125050273Y-81281680D01*
X125311426Y-81389853D01*
X125588665Y-81445000D01*
X125871335Y-81445000D01*
X126148574Y-81389853D01*
X126409727Y-81281680D01*
X126644759Y-81124637D01*
X126844637Y-80924759D01*
X127000000Y-80692241D01*
X127155363Y-80924759D01*
X127355241Y-81124637D01*
X127590273Y-81281680D01*
X127851426Y-81389853D01*
X128128665Y-81445000D01*
X128411335Y-81445000D01*
X128688574Y-81389853D01*
X128880001Y-81310562D01*
X128880001Y-100940000D01*
X76860000Y-100940000D01*
X76860000Y-97555098D01*
X77625000Y-97555098D01*
X77625000Y-98024902D01*
X77716654Y-98485679D01*
X77896440Y-98919721D01*
X78157450Y-99310349D01*
X78489651Y-99642550D01*
X78880279Y-99903560D01*
X79314321Y-100083346D01*
X79775098Y-100175000D01*
X80244902Y-100175000D01*
X80705679Y-100083346D01*
X81139721Y-99903560D01*
X81530349Y-99642550D01*
X81862550Y-99310349D01*
X82123560Y-98919721D01*
X82303346Y-98485679D01*
X82395000Y-98024902D01*
X82395000Y-97555098D01*
X82303346Y-97094321D01*
X82123560Y-96660279D01*
X81862550Y-96269651D01*
X81530349Y-95937450D01*
X81139721Y-95676440D01*
X80705679Y-95496654D01*
X80244902Y-95405000D01*
X79775098Y-95405000D01*
X79314321Y-95496654D01*
X78880279Y-95676440D01*
X78489651Y-95937450D01*
X78157450Y-96269651D01*
X77896440Y-96660279D01*
X77716654Y-97094321D01*
X77625000Y-97555098D01*
X76860000Y-97555098D01*
X76860000Y-88225000D01*
X77122815Y-88225000D01*
X77151487Y-88516111D01*
X77236401Y-88796034D01*
X77374294Y-89054014D01*
X77559866Y-89280134D01*
X77785986Y-89465706D01*
X77803374Y-89475000D01*
X77785986Y-89484294D01*
X77559866Y-89669866D01*
X77374294Y-89895986D01*
X77236401Y-90153966D01*
X77151487Y-90433889D01*
X77122815Y-90725000D01*
X77151487Y-91016111D01*
X77236401Y-91296034D01*
X77374294Y-91554014D01*
X77559866Y-91780134D01*
X77785986Y-91965706D01*
X78043966Y-92103599D01*
X78323889Y-92188513D01*
X78542050Y-92210000D01*
X78937950Y-92210000D01*
X79156111Y-92188513D01*
X79436034Y-92103599D01*
X79694014Y-91965706D01*
X79920134Y-91780134D01*
X80105706Y-91554014D01*
X80243599Y-91296034D01*
X80328513Y-91016111D01*
X80357185Y-90725000D01*
X80328513Y-90433889D01*
X80243599Y-90153966D01*
X80105706Y-89895986D01*
X79920134Y-89669866D01*
X79694014Y-89484294D01*
X79676626Y-89475000D01*
X79694014Y-89465706D01*
X79920134Y-89280134D01*
X80105706Y-89054014D01*
X80243599Y-88796034D01*
X80328513Y-88516111D01*
X80357185Y-88225000D01*
X80328513Y-87933889D01*
X80243599Y-87653966D01*
X80105706Y-87395986D01*
X79924392Y-87175055D01*
X79959180Y-87164502D01*
X80069494Y-87105537D01*
X80166185Y-87026185D01*
X80245537Y-86929494D01*
X80304502Y-86819180D01*
X80340812Y-86699482D01*
X80353072Y-86575000D01*
X80350000Y-86010750D01*
X80191250Y-85852000D01*
X78867000Y-85852000D01*
X78867000Y-85872000D01*
X78613000Y-85872000D01*
X78613000Y-85852000D01*
X77288750Y-85852000D01*
X77130000Y-86010750D01*
X77126928Y-86575000D01*
X77139188Y-86699482D01*
X77175498Y-86819180D01*
X77234463Y-86929494D01*
X77313815Y-87026185D01*
X77410506Y-87105537D01*
X77520820Y-87164502D01*
X77555608Y-87175055D01*
X77374294Y-87395986D01*
X77236401Y-87653966D01*
X77151487Y-87933889D01*
X77122815Y-88225000D01*
X76860000Y-88225000D01*
X76860000Y-84875000D01*
X77126928Y-84875000D01*
X77130000Y-85439250D01*
X77288750Y-85598000D01*
X78613000Y-85598000D01*
X78613000Y-84398750D01*
X78867000Y-84398750D01*
X78867000Y-85598000D01*
X80191250Y-85598000D01*
X80350000Y-85439250D01*
X80353072Y-84875000D01*
X80340812Y-84750518D01*
X80304502Y-84630820D01*
X80245537Y-84520506D01*
X80166185Y-84423815D01*
X80069494Y-84344463D01*
X79959180Y-84285498D01*
X79839482Y-84249188D01*
X79715000Y-84236928D01*
X79025750Y-84240000D01*
X78867000Y-84398750D01*
X78613000Y-84398750D01*
X78454250Y-84240000D01*
X77765000Y-84236928D01*
X77640518Y-84249188D01*
X77520820Y-84285498D01*
X77410506Y-84344463D01*
X77313815Y-84423815D01*
X77234463Y-84520506D01*
X77175498Y-84630820D01*
X77139188Y-84750518D01*
X77126928Y-84875000D01*
X76860000Y-84875000D01*
X76860000Y-65762702D01*
X79196903Y-65762702D01*
X79268486Y-66006671D01*
X79523996Y-66127571D01*
X79798184Y-66196300D01*
X80080512Y-66210217D01*
X80360130Y-66168787D01*
X80626292Y-66073603D01*
X80751514Y-66006671D01*
X80823097Y-65762702D01*
X80010000Y-64949605D01*
X79196903Y-65762702D01*
X76860000Y-65762702D01*
X76860000Y-64840512D01*
X78569783Y-64840512D01*
X78611213Y-65120130D01*
X78706397Y-65386292D01*
X78773329Y-65511514D01*
X79017298Y-65583097D01*
X79830395Y-64770000D01*
X79017298Y-63956903D01*
X78773329Y-64028486D01*
X78652429Y-64283996D01*
X78583700Y-64558184D01*
X78569783Y-64840512D01*
X76860000Y-64840512D01*
X76860000Y-63777298D01*
X79196903Y-63777298D01*
X80010000Y-64590395D01*
X80823097Y-63777298D01*
X80751514Y-63533329D01*
X80496004Y-63412429D01*
X80221816Y-63343700D01*
X79939488Y-63329783D01*
X79659870Y-63371213D01*
X79393708Y-63466397D01*
X79268486Y-63533329D01*
X79196903Y-63777298D01*
X76860000Y-63777298D01*
X76860000Y-56540000D01*
X128880000Y-56540000D01*
X128880000Y-58332229D01*
M02*
