G04 #@! TF.GenerationSoftware,KiCad,Pcbnew,5.1.4+dfsg1-1*
G04 #@! TF.CreationDate,2020-02-29T16:09:42-08:00*
G04 #@! TF.ProjectId,teensy_audio_player_kicad,7465656e-7379-45f6-9175-64696f5f706c,rev?*
G04 #@! TF.SameCoordinates,Original*
G04 #@! TF.FileFunction,Soldermask,Top*
G04 #@! TF.FilePolarity,Negative*
%FSLAX46Y46*%
G04 Gerber Fmt 4.6, Leading zero omitted, Abs format (unit mm)*
G04 Created by KiCad (PCBNEW 5.1.4+dfsg1-1) date 2020-02-29 16:09:42*
%MOMM*%
%LPD*%
G04 APERTURE LIST*
%ADD10O,1.702000X1.702000*%
%ADD11R,1.702000X1.702000*%
%ADD12C,0.100000*%
%ADD13C,1.527000*%
%ADD14C,1.702000*%
%ADD15R,1.602000X1.152000*%
%ADD16O,1.602000X1.152000*%
%ADD17O,1.829200X1.829200*%
%ADD18R,1.829200X1.829200*%
%ADD19C,1.802000*%
%ADD20O,2.052000X1.802000*%
%ADD21O,1.802000X1.802000*%
%ADD22R,1.802000X1.802000*%
%ADD23C,3.602000*%
G04 APERTURE END LIST*
D10*
X80010000Y-59690000D03*
X82550000Y-59690000D03*
X85090000Y-59690000D03*
X87630000Y-59690000D03*
X90170000Y-59690000D03*
D11*
X92710000Y-59690000D03*
D12*
G36*
X104444363Y-66385290D02*
G01*
X104470369Y-66389148D01*
X104495871Y-66395535D01*
X104520624Y-66404392D01*
X104544390Y-66415633D01*
X104566939Y-66429148D01*
X104588056Y-66444809D01*
X104607535Y-66462465D01*
X104625191Y-66481944D01*
X104640852Y-66503061D01*
X104654367Y-66525610D01*
X104665608Y-66549376D01*
X104674465Y-66574129D01*
X104680852Y-66599631D01*
X104684710Y-66625637D01*
X104686000Y-66651895D01*
X104686000Y-67968105D01*
X104684710Y-67994363D01*
X104680852Y-68020369D01*
X104674465Y-68045871D01*
X104665608Y-68070624D01*
X104654367Y-68094390D01*
X104640852Y-68116939D01*
X104625191Y-68138056D01*
X104607535Y-68157535D01*
X104588056Y-68175191D01*
X104566939Y-68190852D01*
X104544390Y-68204367D01*
X104520624Y-68215608D01*
X104495871Y-68224465D01*
X104470369Y-68230852D01*
X104444363Y-68234710D01*
X104418105Y-68236000D01*
X103426895Y-68236000D01*
X103400637Y-68234710D01*
X103374631Y-68230852D01*
X103349129Y-68224465D01*
X103324376Y-68215608D01*
X103300610Y-68204367D01*
X103278061Y-68190852D01*
X103256944Y-68175191D01*
X103237465Y-68157535D01*
X103219809Y-68138056D01*
X103204148Y-68116939D01*
X103190633Y-68094390D01*
X103179392Y-68070624D01*
X103170535Y-68045871D01*
X103164148Y-68020369D01*
X103160290Y-67994363D01*
X103159000Y-67968105D01*
X103159000Y-66651895D01*
X103160290Y-66625637D01*
X103164148Y-66599631D01*
X103170535Y-66574129D01*
X103179392Y-66549376D01*
X103190633Y-66525610D01*
X103204148Y-66503061D01*
X103219809Y-66481944D01*
X103237465Y-66462465D01*
X103256944Y-66444809D01*
X103278061Y-66429148D01*
X103300610Y-66415633D01*
X103324376Y-66404392D01*
X103349129Y-66395535D01*
X103374631Y-66389148D01*
X103400637Y-66385290D01*
X103426895Y-66384000D01*
X104418105Y-66384000D01*
X104444363Y-66385290D01*
X104444363Y-66385290D01*
G37*
D13*
X103922500Y-67310000D03*
D12*
G36*
X107419363Y-66385290D02*
G01*
X107445369Y-66389148D01*
X107470871Y-66395535D01*
X107495624Y-66404392D01*
X107519390Y-66415633D01*
X107541939Y-66429148D01*
X107563056Y-66444809D01*
X107582535Y-66462465D01*
X107600191Y-66481944D01*
X107615852Y-66503061D01*
X107629367Y-66525610D01*
X107640608Y-66549376D01*
X107649465Y-66574129D01*
X107655852Y-66599631D01*
X107659710Y-66625637D01*
X107661000Y-66651895D01*
X107661000Y-67968105D01*
X107659710Y-67994363D01*
X107655852Y-68020369D01*
X107649465Y-68045871D01*
X107640608Y-68070624D01*
X107629367Y-68094390D01*
X107615852Y-68116939D01*
X107600191Y-68138056D01*
X107582535Y-68157535D01*
X107563056Y-68175191D01*
X107541939Y-68190852D01*
X107519390Y-68204367D01*
X107495624Y-68215608D01*
X107470871Y-68224465D01*
X107445369Y-68230852D01*
X107419363Y-68234710D01*
X107393105Y-68236000D01*
X106401895Y-68236000D01*
X106375637Y-68234710D01*
X106349631Y-68230852D01*
X106324129Y-68224465D01*
X106299376Y-68215608D01*
X106275610Y-68204367D01*
X106253061Y-68190852D01*
X106231944Y-68175191D01*
X106212465Y-68157535D01*
X106194809Y-68138056D01*
X106179148Y-68116939D01*
X106165633Y-68094390D01*
X106154392Y-68070624D01*
X106145535Y-68045871D01*
X106139148Y-68020369D01*
X106135290Y-67994363D01*
X106134000Y-67968105D01*
X106134000Y-66651895D01*
X106135290Y-66625637D01*
X106139148Y-66599631D01*
X106145535Y-66574129D01*
X106154392Y-66549376D01*
X106165633Y-66525610D01*
X106179148Y-66503061D01*
X106194809Y-66481944D01*
X106212465Y-66462465D01*
X106231944Y-66444809D01*
X106253061Y-66429148D01*
X106275610Y-66415633D01*
X106299376Y-66404392D01*
X106324129Y-66395535D01*
X106349631Y-66389148D01*
X106375637Y-66385290D01*
X106401895Y-66384000D01*
X107393105Y-66384000D01*
X107419363Y-66385290D01*
X107419363Y-66385290D01*
G37*
D13*
X106897500Y-67310000D03*
D14*
X120650000Y-80010000D03*
X123190000Y-80010000D03*
X125730000Y-80010000D03*
X128270000Y-80010000D03*
X118110000Y-80010000D03*
X115570000Y-80010000D03*
X113030000Y-80010000D03*
X128270000Y-64770000D03*
X125730000Y-64770000D03*
X123190000Y-64770000D03*
X120650000Y-64770000D03*
X110490000Y-80010000D03*
X107950000Y-80010000D03*
X105410000Y-80010000D03*
X102870000Y-80010000D03*
X100330000Y-80010000D03*
X97790000Y-80010000D03*
X95250000Y-80010000D03*
X92710000Y-80010000D03*
X90170000Y-80010000D03*
X87630000Y-80010000D03*
X85090000Y-80010000D03*
X82550000Y-80010000D03*
D11*
X80010000Y-80010000D03*
D14*
X118110000Y-64770000D03*
X115570000Y-64770000D03*
X113030000Y-64770000D03*
X110490000Y-64770000D03*
X107950000Y-64770000D03*
X105410000Y-64770000D03*
X102870000Y-64770000D03*
X100330000Y-64770000D03*
X97790000Y-64770000D03*
X95250000Y-64770000D03*
X92710000Y-64770000D03*
X90170000Y-64770000D03*
X87630000Y-64770000D03*
X85090000Y-64770000D03*
X82550000Y-64770000D03*
X80010000Y-64770000D03*
D10*
X91440000Y-74930000D03*
D14*
X91440000Y-85090000D03*
D12*
G36*
X104824363Y-70140290D02*
G01*
X104850369Y-70144148D01*
X104875871Y-70150535D01*
X104900624Y-70159392D01*
X104924390Y-70170633D01*
X104946939Y-70184148D01*
X104968056Y-70199809D01*
X104987535Y-70217465D01*
X105005191Y-70236944D01*
X105020852Y-70258061D01*
X105034367Y-70280610D01*
X105045608Y-70304376D01*
X105054465Y-70329129D01*
X105060852Y-70354631D01*
X105064710Y-70380637D01*
X105066000Y-70406895D01*
X105066000Y-71398105D01*
X105064710Y-71424363D01*
X105060852Y-71450369D01*
X105054465Y-71475871D01*
X105045608Y-71500624D01*
X105034367Y-71524390D01*
X105020852Y-71546939D01*
X105005191Y-71568056D01*
X104987535Y-71587535D01*
X104968056Y-71605191D01*
X104946939Y-71620852D01*
X104924390Y-71634367D01*
X104900624Y-71645608D01*
X104875871Y-71654465D01*
X104850369Y-71660852D01*
X104824363Y-71664710D01*
X104798105Y-71666000D01*
X103481895Y-71666000D01*
X103455637Y-71664710D01*
X103429631Y-71660852D01*
X103404129Y-71654465D01*
X103379376Y-71645608D01*
X103355610Y-71634367D01*
X103333061Y-71620852D01*
X103311944Y-71605191D01*
X103292465Y-71587535D01*
X103274809Y-71568056D01*
X103259148Y-71546939D01*
X103245633Y-71524390D01*
X103234392Y-71500624D01*
X103225535Y-71475871D01*
X103219148Y-71450369D01*
X103215290Y-71424363D01*
X103214000Y-71398105D01*
X103214000Y-70406895D01*
X103215290Y-70380637D01*
X103219148Y-70354631D01*
X103225535Y-70329129D01*
X103234392Y-70304376D01*
X103245633Y-70280610D01*
X103259148Y-70258061D01*
X103274809Y-70236944D01*
X103292465Y-70217465D01*
X103311944Y-70199809D01*
X103333061Y-70184148D01*
X103355610Y-70170633D01*
X103379376Y-70159392D01*
X103404129Y-70150535D01*
X103429631Y-70144148D01*
X103455637Y-70140290D01*
X103481895Y-70139000D01*
X104798105Y-70139000D01*
X104824363Y-70140290D01*
X104824363Y-70140290D01*
G37*
D13*
X104140000Y-70902500D03*
D12*
G36*
X104824363Y-73115290D02*
G01*
X104850369Y-73119148D01*
X104875871Y-73125535D01*
X104900624Y-73134392D01*
X104924390Y-73145633D01*
X104946939Y-73159148D01*
X104968056Y-73174809D01*
X104987535Y-73192465D01*
X105005191Y-73211944D01*
X105020852Y-73233061D01*
X105034367Y-73255610D01*
X105045608Y-73279376D01*
X105054465Y-73304129D01*
X105060852Y-73329631D01*
X105064710Y-73355637D01*
X105066000Y-73381895D01*
X105066000Y-74373105D01*
X105064710Y-74399363D01*
X105060852Y-74425369D01*
X105054465Y-74450871D01*
X105045608Y-74475624D01*
X105034367Y-74499390D01*
X105020852Y-74521939D01*
X105005191Y-74543056D01*
X104987535Y-74562535D01*
X104968056Y-74580191D01*
X104946939Y-74595852D01*
X104924390Y-74609367D01*
X104900624Y-74620608D01*
X104875871Y-74629465D01*
X104850369Y-74635852D01*
X104824363Y-74639710D01*
X104798105Y-74641000D01*
X103481895Y-74641000D01*
X103455637Y-74639710D01*
X103429631Y-74635852D01*
X103404129Y-74629465D01*
X103379376Y-74620608D01*
X103355610Y-74609367D01*
X103333061Y-74595852D01*
X103311944Y-74580191D01*
X103292465Y-74562535D01*
X103274809Y-74543056D01*
X103259148Y-74521939D01*
X103245633Y-74499390D01*
X103234392Y-74475624D01*
X103225535Y-74450871D01*
X103219148Y-74425369D01*
X103215290Y-74399363D01*
X103214000Y-74373105D01*
X103214000Y-73381895D01*
X103215290Y-73355637D01*
X103219148Y-73329631D01*
X103225535Y-73304129D01*
X103234392Y-73279376D01*
X103245633Y-73255610D01*
X103259148Y-73233061D01*
X103274809Y-73211944D01*
X103292465Y-73192465D01*
X103311944Y-73174809D01*
X103333061Y-73159148D01*
X103355610Y-73145633D01*
X103379376Y-73134392D01*
X103404129Y-73125535D01*
X103429631Y-73119148D01*
X103455637Y-73115290D01*
X103481895Y-73114000D01*
X104798105Y-73114000D01*
X104824363Y-73115290D01*
X104824363Y-73115290D01*
G37*
D13*
X104140000Y-73877500D03*
D15*
X97790000Y-71120000D03*
D16*
X97790000Y-73660000D03*
X97790000Y-72390000D03*
D17*
X93980000Y-99060000D03*
X93980000Y-96520000D03*
X96520000Y-99060000D03*
X96520000Y-96520000D03*
X99060000Y-99060000D03*
X99060000Y-96520000D03*
X101600000Y-99060000D03*
X101600000Y-96520000D03*
X104140000Y-99060000D03*
X104140000Y-96520000D03*
X106680000Y-99060000D03*
X106680000Y-96520000D03*
X109220000Y-99060000D03*
X109220000Y-96520000D03*
X111760000Y-99060000D03*
X111760000Y-96520000D03*
X114300000Y-99060000D03*
X114300000Y-96520000D03*
X116840000Y-99060000D03*
X116840000Y-96520000D03*
X119380000Y-99060000D03*
X119380000Y-96520000D03*
X121920000Y-99060000D03*
X121920000Y-96520000D03*
X124460000Y-99060000D03*
D18*
X124460000Y-96520000D03*
D12*
G36*
X79526975Y-84825276D02*
G01*
X79552699Y-84829092D01*
X79577925Y-84835411D01*
X79602411Y-84844172D01*
X79625920Y-84855291D01*
X79648226Y-84868661D01*
X79669114Y-84884152D01*
X79688383Y-84901617D01*
X79705848Y-84920886D01*
X79721339Y-84941774D01*
X79734709Y-84964080D01*
X79745828Y-84987589D01*
X79754589Y-85012075D01*
X79760908Y-85037301D01*
X79764724Y-85063025D01*
X79766000Y-85089000D01*
X79766000Y-86361000D01*
X79764724Y-86386975D01*
X79760908Y-86412699D01*
X79754589Y-86437925D01*
X79745828Y-86462411D01*
X79734709Y-86485920D01*
X79721339Y-86508226D01*
X79705848Y-86529114D01*
X79688383Y-86548383D01*
X79669114Y-86565848D01*
X79648226Y-86581339D01*
X79625920Y-86594709D01*
X79602411Y-86605828D01*
X79577925Y-86614589D01*
X79552699Y-86620908D01*
X79526975Y-86624724D01*
X79501000Y-86626000D01*
X77979000Y-86626000D01*
X77953025Y-86624724D01*
X77927301Y-86620908D01*
X77902075Y-86614589D01*
X77877589Y-86605828D01*
X77854080Y-86594709D01*
X77831774Y-86581339D01*
X77810886Y-86565848D01*
X77791617Y-86548383D01*
X77774152Y-86529114D01*
X77758661Y-86508226D01*
X77745291Y-86485920D01*
X77734172Y-86462411D01*
X77725411Y-86437925D01*
X77719092Y-86412699D01*
X77715276Y-86386975D01*
X77714000Y-86361000D01*
X77714000Y-85089000D01*
X77715276Y-85063025D01*
X77719092Y-85037301D01*
X77725411Y-85012075D01*
X77734172Y-84987589D01*
X77745291Y-84964080D01*
X77758661Y-84941774D01*
X77774152Y-84920886D01*
X77791617Y-84901617D01*
X77810886Y-84884152D01*
X77831774Y-84868661D01*
X77854080Y-84855291D01*
X77877589Y-84844172D01*
X77902075Y-84835411D01*
X77927301Y-84829092D01*
X77953025Y-84825276D01*
X77979000Y-84824000D01*
X79501000Y-84824000D01*
X79526975Y-84825276D01*
X79526975Y-84825276D01*
G37*
D19*
X78740000Y-85725000D03*
D20*
X78740000Y-88225000D03*
X78740000Y-90725000D03*
D11*
X118110000Y-83820000D03*
D10*
X95250000Y-91440000D03*
X115570000Y-83820000D03*
X97790000Y-91440000D03*
X113030000Y-83820000D03*
X100330000Y-91440000D03*
X110490000Y-83820000D03*
X102870000Y-91440000D03*
X107950000Y-83820000D03*
X105410000Y-91440000D03*
X105410000Y-83820000D03*
X107950000Y-91440000D03*
X102870000Y-83820000D03*
X110490000Y-91440000D03*
X100330000Y-83820000D03*
X113030000Y-91440000D03*
X97790000Y-83820000D03*
X115570000Y-91440000D03*
X95250000Y-83820000D03*
X118110000Y-91440000D03*
D11*
X85090000Y-87884000D03*
D14*
X88890000Y-87884000D03*
D21*
X128270000Y-59690000D03*
X125730000Y-59690000D03*
X123190000Y-59690000D03*
X120650000Y-59690000D03*
X118110000Y-59690000D03*
X115570000Y-59690000D03*
X113030000Y-59690000D03*
X110490000Y-59690000D03*
D22*
X107950000Y-59690000D03*
D23*
X80010000Y-97790000D03*
X125730000Y-87630000D03*
X100330000Y-59436000D03*
M02*
