M48
; DRILL file {KiCad 5.1.4+dfsg1-1} date Sat 29 Feb 2020 04:11:39 PM PST
; FORMAT={-:-/ absolute / metric / decimal}
; #@! TF.CreationDate,2020-02-29T16:11:39-08:00
; #@! TF.GenerationSoftware,Kicad,Pcbnew,5.1.4+dfsg1-1
; #@! TF.FileFunction,Plated,1,2,PTH
FMAT,2
METRIC
T1C0.750
T2C0.800
T3C0.950
T4C1.016
T5C1.100
%
G90
G05
T1
X97.79Y-71.12
X97.79Y-72.39
X97.79Y-73.66
T2
X85.09Y-87.884
X88.89Y-87.884
X95.25Y-83.82
X95.25Y-91.44
X97.79Y-83.82
X97.79Y-91.44
X100.33Y-83.82
X100.33Y-91.44
X102.87Y-83.82
X102.87Y-91.44
X105.41Y-83.82
X105.41Y-91.44
X107.95Y-83.82
X107.95Y-91.44
X110.49Y-83.82
X110.49Y-91.44
X113.03Y-83.82
X113.03Y-91.44
X115.57Y-83.82
X115.57Y-91.44
X118.11Y-83.82
X118.11Y-91.44
X91.44Y-74.93
X91.44Y-85.09
T3
X78.74Y-85.725
X78.74Y-88.225
X78.74Y-90.725
T4
X93.98Y-96.52
X93.98Y-99.06
X96.52Y-96.52
X96.52Y-99.06
X99.06Y-96.52
X99.06Y-99.06
X101.6Y-96.52
X101.6Y-99.06
X104.14Y-96.52
X104.14Y-99.06
X106.68Y-96.52
X106.68Y-99.06
X109.22Y-96.52
X109.22Y-99.06
X111.76Y-96.52
X111.76Y-99.06
X114.3Y-96.52
X114.3Y-99.06
X116.84Y-96.52
X116.84Y-99.06
X119.38Y-96.52
X119.38Y-99.06
X121.92Y-96.52
X121.92Y-99.06
X124.46Y-96.52
X124.46Y-99.06
T5
X107.95Y-59.69
X110.49Y-59.69
X113.03Y-59.69
X115.57Y-59.69
X118.11Y-59.69
X120.65Y-59.69
X123.19Y-59.69
X125.73Y-59.69
X128.27Y-59.69
X80.01Y-64.77
X80.01Y-80.01
X82.55Y-64.77
X82.55Y-80.01
X85.09Y-64.77
X85.09Y-80.01
X87.63Y-64.77
X87.63Y-80.01
X90.17Y-64.77
X90.17Y-80.01
X92.71Y-64.77
X92.71Y-80.01
X95.25Y-64.77
X95.25Y-80.01
X97.79Y-64.77
X97.79Y-80.01
X100.33Y-64.77
X100.33Y-80.01
X102.87Y-64.77
X102.87Y-80.01
X105.41Y-64.77
X105.41Y-80.01
X107.95Y-64.77
X107.95Y-80.01
X110.49Y-64.77
X110.49Y-80.01
X113.03Y-64.77
X113.03Y-80.01
X115.57Y-64.77
X115.57Y-80.01
X118.11Y-64.77
X118.11Y-80.01
X120.65Y-64.77
X120.65Y-80.01
X123.19Y-64.77
X123.19Y-80.01
X125.73Y-64.77
X125.73Y-80.01
X128.27Y-64.77
X128.27Y-80.01
X80.01Y-59.69
X82.55Y-59.69
X85.09Y-59.69
X87.63Y-59.69
X90.17Y-59.69
X92.71Y-59.69
T0
M30
