G04 #@! TF.GenerationSoftware,KiCad,Pcbnew,5.1.4+dfsg1-1*
G04 #@! TF.CreationDate,2020-02-29T16:09:42-08:00*
G04 #@! TF.ProjectId,teensy_audio_player_kicad,7465656e-7379-45f6-9175-64696f5f706c,rev?*
G04 #@! TF.SameCoordinates,Original*
G04 #@! TF.FileFunction,Soldermask,Bot*
G04 #@! TF.FilePolarity,Negative*
%FSLAX46Y46*%
G04 Gerber Fmt 4.6, Leading zero omitted, Abs format (unit mm)*
G04 Created by KiCad (PCBNEW 5.1.4+dfsg1-1) date 2020-02-29 16:09:42*
%MOMM*%
%LPD*%
G04 APERTURE LIST*
%ADD10O,1.702000X1.702000*%
%ADD11R,1.702000X1.702000*%
%ADD12C,1.702000*%
%ADD13R,1.602000X1.152000*%
%ADD14O,1.602000X1.152000*%
%ADD15O,1.829200X1.829200*%
%ADD16R,1.829200X1.829200*%
%ADD17C,0.100000*%
%ADD18C,1.802000*%
%ADD19O,2.052000X1.802000*%
%ADD20O,1.802000X1.802000*%
%ADD21R,1.802000X1.802000*%
%ADD22C,3.602000*%
G04 APERTURE END LIST*
D10*
X80010000Y-59690000D03*
X82550000Y-59690000D03*
X85090000Y-59690000D03*
X87630000Y-59690000D03*
X90170000Y-59690000D03*
D11*
X92710000Y-59690000D03*
D12*
X120650000Y-80010000D03*
X123190000Y-80010000D03*
X125730000Y-80010000D03*
X128270000Y-80010000D03*
X118110000Y-80010000D03*
X115570000Y-80010000D03*
X113030000Y-80010000D03*
X128270000Y-64770000D03*
X125730000Y-64770000D03*
X123190000Y-64770000D03*
X120650000Y-64770000D03*
X110490000Y-80010000D03*
X107950000Y-80010000D03*
X105410000Y-80010000D03*
X102870000Y-80010000D03*
X100330000Y-80010000D03*
X97790000Y-80010000D03*
X95250000Y-80010000D03*
X92710000Y-80010000D03*
X90170000Y-80010000D03*
X87630000Y-80010000D03*
X85090000Y-80010000D03*
X82550000Y-80010000D03*
D11*
X80010000Y-80010000D03*
D12*
X118110000Y-64770000D03*
X115570000Y-64770000D03*
X113030000Y-64770000D03*
X110490000Y-64770000D03*
X107950000Y-64770000D03*
X105410000Y-64770000D03*
X102870000Y-64770000D03*
X100330000Y-64770000D03*
X97790000Y-64770000D03*
X95250000Y-64770000D03*
X92710000Y-64770000D03*
X90170000Y-64770000D03*
X87630000Y-64770000D03*
X85090000Y-64770000D03*
X82550000Y-64770000D03*
X80010000Y-64770000D03*
D10*
X91440000Y-74930000D03*
D12*
X91440000Y-85090000D03*
D13*
X97790000Y-71120000D03*
D14*
X97790000Y-73660000D03*
X97790000Y-72390000D03*
D15*
X93980000Y-99060000D03*
X93980000Y-96520000D03*
X96520000Y-99060000D03*
X96520000Y-96520000D03*
X99060000Y-99060000D03*
X99060000Y-96520000D03*
X101600000Y-99060000D03*
X101600000Y-96520000D03*
X104140000Y-99060000D03*
X104140000Y-96520000D03*
X106680000Y-99060000D03*
X106680000Y-96520000D03*
X109220000Y-99060000D03*
X109220000Y-96520000D03*
X111760000Y-99060000D03*
X111760000Y-96520000D03*
X114300000Y-99060000D03*
X114300000Y-96520000D03*
X116840000Y-99060000D03*
X116840000Y-96520000D03*
X119380000Y-99060000D03*
X119380000Y-96520000D03*
X121920000Y-99060000D03*
X121920000Y-96520000D03*
X124460000Y-99060000D03*
D16*
X124460000Y-96520000D03*
D17*
G36*
X79526975Y-84825276D02*
G01*
X79552699Y-84829092D01*
X79577925Y-84835411D01*
X79602411Y-84844172D01*
X79625920Y-84855291D01*
X79648226Y-84868661D01*
X79669114Y-84884152D01*
X79688383Y-84901617D01*
X79705848Y-84920886D01*
X79721339Y-84941774D01*
X79734709Y-84964080D01*
X79745828Y-84987589D01*
X79754589Y-85012075D01*
X79760908Y-85037301D01*
X79764724Y-85063025D01*
X79766000Y-85089000D01*
X79766000Y-86361000D01*
X79764724Y-86386975D01*
X79760908Y-86412699D01*
X79754589Y-86437925D01*
X79745828Y-86462411D01*
X79734709Y-86485920D01*
X79721339Y-86508226D01*
X79705848Y-86529114D01*
X79688383Y-86548383D01*
X79669114Y-86565848D01*
X79648226Y-86581339D01*
X79625920Y-86594709D01*
X79602411Y-86605828D01*
X79577925Y-86614589D01*
X79552699Y-86620908D01*
X79526975Y-86624724D01*
X79501000Y-86626000D01*
X77979000Y-86626000D01*
X77953025Y-86624724D01*
X77927301Y-86620908D01*
X77902075Y-86614589D01*
X77877589Y-86605828D01*
X77854080Y-86594709D01*
X77831774Y-86581339D01*
X77810886Y-86565848D01*
X77791617Y-86548383D01*
X77774152Y-86529114D01*
X77758661Y-86508226D01*
X77745291Y-86485920D01*
X77734172Y-86462411D01*
X77725411Y-86437925D01*
X77719092Y-86412699D01*
X77715276Y-86386975D01*
X77714000Y-86361000D01*
X77714000Y-85089000D01*
X77715276Y-85063025D01*
X77719092Y-85037301D01*
X77725411Y-85012075D01*
X77734172Y-84987589D01*
X77745291Y-84964080D01*
X77758661Y-84941774D01*
X77774152Y-84920886D01*
X77791617Y-84901617D01*
X77810886Y-84884152D01*
X77831774Y-84868661D01*
X77854080Y-84855291D01*
X77877589Y-84844172D01*
X77902075Y-84835411D01*
X77927301Y-84829092D01*
X77953025Y-84825276D01*
X77979000Y-84824000D01*
X79501000Y-84824000D01*
X79526975Y-84825276D01*
X79526975Y-84825276D01*
G37*
D18*
X78740000Y-85725000D03*
D19*
X78740000Y-88225000D03*
X78740000Y-90725000D03*
D11*
X118110000Y-83820000D03*
D10*
X95250000Y-91440000D03*
X115570000Y-83820000D03*
X97790000Y-91440000D03*
X113030000Y-83820000D03*
X100330000Y-91440000D03*
X110490000Y-83820000D03*
X102870000Y-91440000D03*
X107950000Y-83820000D03*
X105410000Y-91440000D03*
X105410000Y-83820000D03*
X107950000Y-91440000D03*
X102870000Y-83820000D03*
X110490000Y-91440000D03*
X100330000Y-83820000D03*
X113030000Y-91440000D03*
X97790000Y-83820000D03*
X115570000Y-91440000D03*
X95250000Y-83820000D03*
X118110000Y-91440000D03*
D11*
X85090000Y-87884000D03*
D12*
X88890000Y-87884000D03*
D20*
X128270000Y-59690000D03*
X125730000Y-59690000D03*
X123190000Y-59690000D03*
X120650000Y-59690000D03*
X118110000Y-59690000D03*
X115570000Y-59690000D03*
X113030000Y-59690000D03*
X110490000Y-59690000D03*
D21*
X107950000Y-59690000D03*
D22*
X80010000Y-97790000D03*
X125730000Y-87630000D03*
X100330000Y-59436000D03*
M02*
