G04 #@! TF.GenerationSoftware,KiCad,Pcbnew,5.1.4+dfsg1-1*
G04 #@! TF.CreationDate,2020-02-29T16:09:42-08:00*
G04 #@! TF.ProjectId,teensy_audio_player_kicad,7465656e-7379-45f6-9175-64696f5f706c,rev?*
G04 #@! TF.SameCoordinates,Original*
G04 #@! TF.FileFunction,Legend,Top*
G04 #@! TF.FilePolarity,Positive*
%FSLAX46Y46*%
G04 Gerber Fmt 4.6, Leading zero omitted, Abs format (unit mm)*
G04 Created by KiCad (PCBNEW 5.1.4+dfsg1-1) date 2020-02-29 16:09:42*
%MOMM*%
%LPD*%
G04 APERTURE LIST*
%ADD10C,0.120000*%
%ADD11C,0.150000*%
%ADD12C,0.100000*%
G04 APERTURE END LIST*
D10*
X94040000Y-58360000D02*
X94040000Y-59690000D01*
X92710000Y-58360000D02*
X94040000Y-58360000D01*
X91440000Y-58360000D02*
X91440000Y-61020000D01*
X91440000Y-61020000D02*
X78680000Y-61020000D01*
X91440000Y-58360000D02*
X78680000Y-58360000D01*
X78680000Y-58360000D02*
X78680000Y-61020000D01*
X106012064Y-66400000D02*
X104807936Y-66400000D01*
X106012064Y-68220000D02*
X104807936Y-68220000D01*
D11*
X95250000Y-68580000D02*
X95250000Y-71120000D01*
X95250000Y-71120000D02*
X97790000Y-71120000D01*
X97790000Y-71120000D02*
X97790000Y-68580000D01*
X97790000Y-68580000D02*
X95250000Y-68580000D01*
X102870000Y-77470000D02*
X99060000Y-77470000D01*
X99060000Y-77470000D02*
X99060000Y-74930000D01*
X99060000Y-74930000D02*
X102870000Y-74930000D01*
X102870000Y-74930000D02*
X102870000Y-77470000D01*
X116840000Y-78740000D02*
X116840000Y-66040000D01*
X104140000Y-66040000D02*
X104140000Y-78740000D01*
X104140000Y-78740000D02*
X116840000Y-78740000D01*
X104140000Y-66040000D02*
X116840000Y-66040000D01*
X138430000Y-77470000D02*
X139700000Y-77470000D01*
X138430000Y-76200000D02*
X139700000Y-76200000D01*
X138430000Y-74930000D02*
X139700000Y-74930000D01*
X138430000Y-73660000D02*
X139700000Y-73660000D01*
X138430000Y-72390000D02*
X139700000Y-72390000D01*
X138430000Y-71120000D02*
X139700000Y-71120000D01*
X138430000Y-69850000D02*
X139700000Y-69850000D01*
X138430000Y-68580000D02*
X139700000Y-68580000D01*
X138430000Y-67310000D02*
X139700000Y-67310000D01*
X139700000Y-78740000D02*
X138430000Y-77470000D01*
X138430000Y-77470000D02*
X138430000Y-67310000D01*
X138430000Y-67310000D02*
X139700000Y-66040000D01*
X139700000Y-66040000D02*
X127000000Y-66040000D01*
X127000000Y-66040000D02*
X127000000Y-78740000D01*
X127000000Y-78740000D02*
X139700000Y-78740000D01*
X139700000Y-63500000D02*
X78740000Y-63500000D01*
X78740000Y-81280000D02*
X139700000Y-81280000D01*
X78740000Y-76200000D02*
X77470000Y-76200000D01*
X77470000Y-76200000D02*
X77470000Y-68580000D01*
X77470000Y-68580000D02*
X78740000Y-68580000D01*
X83820000Y-76200000D02*
X83820000Y-68580000D01*
X83820000Y-68580000D02*
X78740000Y-68580000D01*
X83820000Y-76200000D02*
X78740000Y-76200000D01*
X123190000Y-69850000D02*
X123190000Y-74930000D01*
X123190000Y-74930000D02*
X120650000Y-74930000D01*
X120650000Y-74930000D02*
X120650000Y-69850000D01*
X120650000Y-69850000D02*
X123190000Y-69850000D01*
X139700000Y-63500000D02*
X139700000Y-81280000D01*
X78740000Y-81280000D02*
X78740000Y-63500000D01*
D12*
G36*
X110236000Y-67437000D02*
G01*
X110490000Y-67691000D01*
X110109000Y-67945000D01*
X109855000Y-67691000D01*
X110236000Y-67437000D01*
G37*
X110236000Y-67437000D02*
X110490000Y-67691000D01*
X110109000Y-67945000D01*
X109855000Y-67691000D01*
X110236000Y-67437000D01*
G36*
X109982000Y-68961000D02*
G01*
X110236000Y-69215000D01*
X109855000Y-69469000D01*
X109601000Y-69215000D01*
X109982000Y-68961000D01*
G37*
X109982000Y-68961000D02*
X110236000Y-69215000D01*
X109855000Y-69469000D01*
X109601000Y-69215000D01*
X109982000Y-68961000D01*
G36*
X109855000Y-69723000D02*
G01*
X110109000Y-69977000D01*
X109728000Y-70231000D01*
X109474000Y-69977000D01*
X109855000Y-69723000D01*
G37*
X109855000Y-69723000D02*
X110109000Y-69977000D01*
X109728000Y-70231000D01*
X109474000Y-69977000D01*
X109855000Y-69723000D01*
G36*
X110998000Y-68199000D02*
G01*
X111252000Y-68453000D01*
X110871000Y-68707000D01*
X110617000Y-68453000D01*
X110998000Y-68199000D01*
G37*
X110998000Y-68199000D02*
X111252000Y-68453000D01*
X110871000Y-68707000D01*
X110617000Y-68453000D01*
X110998000Y-68199000D01*
G36*
X110363000Y-69342000D02*
G01*
X110617000Y-69596000D01*
X110236000Y-69850000D01*
X109982000Y-69596000D01*
X110363000Y-69342000D01*
G37*
X110363000Y-69342000D02*
X110617000Y-69596000D01*
X110236000Y-69850000D01*
X109982000Y-69596000D01*
X110363000Y-69342000D01*
G36*
X110871000Y-68961000D02*
G01*
X111125000Y-69215000D01*
X110744000Y-69469000D01*
X110490000Y-69215000D01*
X110871000Y-68961000D01*
G37*
X110871000Y-68961000D02*
X111125000Y-69215000D01*
X110744000Y-69469000D01*
X110490000Y-69215000D01*
X110871000Y-68961000D01*
G36*
X110617000Y-67818000D02*
G01*
X110871000Y-68072000D01*
X110490000Y-68326000D01*
X110236000Y-68072000D01*
X110617000Y-67818000D01*
G37*
X110617000Y-67818000D02*
X110871000Y-68072000D01*
X110490000Y-68326000D01*
X110236000Y-68072000D01*
X110617000Y-67818000D01*
G36*
X110490000Y-68580000D02*
G01*
X110744000Y-68834000D01*
X110363000Y-69088000D01*
X110109000Y-68834000D01*
X110490000Y-68580000D01*
G37*
X110490000Y-68580000D02*
X110744000Y-68834000D01*
X110363000Y-69088000D01*
X110109000Y-68834000D01*
X110490000Y-68580000D01*
D10*
X105050000Y-72992064D02*
X105050000Y-71787936D01*
X103230000Y-72992064D02*
X103230000Y-71787936D01*
X95951522Y-74228478D02*
G75*
G03X100390000Y-72390000I1838478J1838478D01*
G01*
X95951522Y-70551522D02*
G75*
G02X100390000Y-72390000I1838478J-1838478D01*
G01*
X95940000Y-70590000D02*
X95940000Y-74190000D01*
X130060000Y-92865000D02*
X130060000Y-95405000D01*
X130060000Y-92865000D02*
X127520000Y-92865000D01*
X129810000Y-93115000D02*
X129810000Y-102465000D01*
X88630000Y-93115000D02*
X129810000Y-93115000D01*
X88630000Y-102465000D02*
X88630000Y-93115000D01*
X129810000Y-102465000D02*
X88630000Y-102465000D01*
X81200000Y-83165000D02*
X75230000Y-83165000D01*
X75230000Y-83165000D02*
X75230000Y-93285000D01*
X75230000Y-93285000D02*
X81200000Y-93285000D01*
X81200000Y-93285000D02*
X81200000Y-83165000D01*
X81190000Y-86475000D02*
X80440000Y-86475000D01*
X80440000Y-86475000D02*
X80440000Y-89975000D01*
X80440000Y-89975000D02*
X81190000Y-89975000D01*
X81190000Y-89975000D02*
X81190000Y-86475000D01*
X81190000Y-83175000D02*
X80440000Y-83175000D01*
X80440000Y-83175000D02*
X80440000Y-84975000D01*
X80440000Y-84975000D02*
X81190000Y-84975000D01*
X81190000Y-84975000D02*
X81190000Y-83175000D01*
X81190000Y-91475000D02*
X80440000Y-91475000D01*
X80440000Y-91475000D02*
X80440000Y-93275000D01*
X80440000Y-93275000D02*
X81190000Y-93275000D01*
X81190000Y-93275000D02*
X81190000Y-91475000D01*
X78940000Y-83175000D02*
X78940000Y-83925000D01*
X78940000Y-83925000D02*
X75990000Y-83925000D01*
X75990000Y-83925000D02*
X75990000Y-88225000D01*
X78940000Y-93275000D02*
X78940000Y-92525000D01*
X78940000Y-92525000D02*
X75990000Y-92525000D01*
X75990000Y-92525000D02*
X75990000Y-88225000D01*
X81490000Y-84125000D02*
X81490000Y-82875000D01*
X81490000Y-82875000D02*
X80240000Y-82875000D01*
X119440000Y-88630000D02*
G75*
G02X119440000Y-86630000I0J1000000D01*
G01*
X119440000Y-86630000D02*
X119440000Y-84980000D01*
X119440000Y-84980000D02*
X93920000Y-84980000D01*
X93920000Y-84980000D02*
X93920000Y-90280000D01*
X93920000Y-90280000D02*
X119440000Y-90280000D01*
X119440000Y-90280000D02*
X119440000Y-88630000D01*
X91110000Y-87884000D02*
G75*
G03X91110000Y-87884000I-4120000J0D01*
G01*
X86990000Y-83804000D02*
X86990000Y-91964000D01*
X87030000Y-83804000D02*
X87030000Y-91964000D01*
X87070000Y-83804000D02*
X87070000Y-91964000D01*
X87110000Y-83805000D02*
X87110000Y-91963000D01*
X87150000Y-83807000D02*
X87150000Y-91961000D01*
X87190000Y-83808000D02*
X87190000Y-91960000D01*
X87230000Y-83810000D02*
X87230000Y-91958000D01*
X87270000Y-83813000D02*
X87270000Y-91955000D01*
X87310000Y-83816000D02*
X87310000Y-91952000D01*
X87350000Y-83819000D02*
X87350000Y-91949000D01*
X87390000Y-83823000D02*
X87390000Y-91945000D01*
X87430000Y-83827000D02*
X87430000Y-91941000D01*
X87470000Y-83832000D02*
X87470000Y-91936000D01*
X87510000Y-83836000D02*
X87510000Y-91932000D01*
X87550000Y-83842000D02*
X87550000Y-91926000D01*
X87590000Y-83847000D02*
X87590000Y-91921000D01*
X87630000Y-83854000D02*
X87630000Y-91914000D01*
X87670000Y-83860000D02*
X87670000Y-91908000D01*
X87711000Y-83867000D02*
X87711000Y-91901000D01*
X87751000Y-83874000D02*
X87751000Y-91894000D01*
X87791000Y-83882000D02*
X87791000Y-91886000D01*
X87831000Y-83890000D02*
X87831000Y-91878000D01*
X87871000Y-83899000D02*
X87871000Y-86844000D01*
X87871000Y-88924000D02*
X87871000Y-91869000D01*
X87911000Y-83908000D02*
X87911000Y-86844000D01*
X87911000Y-88924000D02*
X87911000Y-91860000D01*
X87951000Y-83917000D02*
X87951000Y-86844000D01*
X87951000Y-88924000D02*
X87951000Y-91851000D01*
X87991000Y-83927000D02*
X87991000Y-86844000D01*
X87991000Y-88924000D02*
X87991000Y-91841000D01*
X88031000Y-83937000D02*
X88031000Y-86844000D01*
X88031000Y-88924000D02*
X88031000Y-91831000D01*
X88071000Y-83948000D02*
X88071000Y-86844000D01*
X88071000Y-88924000D02*
X88071000Y-91820000D01*
X88111000Y-83959000D02*
X88111000Y-86844000D01*
X88111000Y-88924000D02*
X88111000Y-91809000D01*
X88151000Y-83970000D02*
X88151000Y-86844000D01*
X88151000Y-88924000D02*
X88151000Y-91798000D01*
X88191000Y-83982000D02*
X88191000Y-86844000D01*
X88191000Y-88924000D02*
X88191000Y-91786000D01*
X88231000Y-83995000D02*
X88231000Y-86844000D01*
X88231000Y-88924000D02*
X88231000Y-91773000D01*
X88271000Y-84007000D02*
X88271000Y-86844000D01*
X88271000Y-88924000D02*
X88271000Y-91761000D01*
X88311000Y-84021000D02*
X88311000Y-86844000D01*
X88311000Y-88924000D02*
X88311000Y-91747000D01*
X88351000Y-84034000D02*
X88351000Y-86844000D01*
X88351000Y-88924000D02*
X88351000Y-91734000D01*
X88391000Y-84049000D02*
X88391000Y-86844000D01*
X88391000Y-88924000D02*
X88391000Y-91719000D01*
X88431000Y-84063000D02*
X88431000Y-86844000D01*
X88431000Y-88924000D02*
X88431000Y-91705000D01*
X88471000Y-84079000D02*
X88471000Y-86844000D01*
X88471000Y-88924000D02*
X88471000Y-91689000D01*
X88511000Y-84094000D02*
X88511000Y-86844000D01*
X88511000Y-88924000D02*
X88511000Y-91674000D01*
X88551000Y-84110000D02*
X88551000Y-86844000D01*
X88551000Y-88924000D02*
X88551000Y-91658000D01*
X88591000Y-84127000D02*
X88591000Y-86844000D01*
X88591000Y-88924000D02*
X88591000Y-91641000D01*
X88631000Y-84144000D02*
X88631000Y-86844000D01*
X88631000Y-88924000D02*
X88631000Y-91624000D01*
X88671000Y-84162000D02*
X88671000Y-86844000D01*
X88671000Y-88924000D02*
X88671000Y-91606000D01*
X88711000Y-84180000D02*
X88711000Y-86844000D01*
X88711000Y-88924000D02*
X88711000Y-91588000D01*
X88751000Y-84198000D02*
X88751000Y-86844000D01*
X88751000Y-88924000D02*
X88751000Y-91570000D01*
X88791000Y-84218000D02*
X88791000Y-86844000D01*
X88791000Y-88924000D02*
X88791000Y-91550000D01*
X88831000Y-84237000D02*
X88831000Y-86844000D01*
X88831000Y-88924000D02*
X88831000Y-91531000D01*
X88871000Y-84257000D02*
X88871000Y-86844000D01*
X88871000Y-88924000D02*
X88871000Y-91511000D01*
X88911000Y-84278000D02*
X88911000Y-86844000D01*
X88911000Y-88924000D02*
X88911000Y-91490000D01*
X88951000Y-84300000D02*
X88951000Y-86844000D01*
X88951000Y-88924000D02*
X88951000Y-91468000D01*
X88991000Y-84322000D02*
X88991000Y-86844000D01*
X88991000Y-88924000D02*
X88991000Y-91446000D01*
X89031000Y-84344000D02*
X89031000Y-86844000D01*
X89031000Y-88924000D02*
X89031000Y-91424000D01*
X89071000Y-84367000D02*
X89071000Y-86844000D01*
X89071000Y-88924000D02*
X89071000Y-91401000D01*
X89111000Y-84391000D02*
X89111000Y-86844000D01*
X89111000Y-88924000D02*
X89111000Y-91377000D01*
X89151000Y-84415000D02*
X89151000Y-86844000D01*
X89151000Y-88924000D02*
X89151000Y-91353000D01*
X89191000Y-84440000D02*
X89191000Y-86844000D01*
X89191000Y-88924000D02*
X89191000Y-91328000D01*
X89231000Y-84466000D02*
X89231000Y-86844000D01*
X89231000Y-88924000D02*
X89231000Y-91302000D01*
X89271000Y-84492000D02*
X89271000Y-86844000D01*
X89271000Y-88924000D02*
X89271000Y-91276000D01*
X89311000Y-84519000D02*
X89311000Y-86844000D01*
X89311000Y-88924000D02*
X89311000Y-91249000D01*
X89351000Y-84546000D02*
X89351000Y-86844000D01*
X89351000Y-88924000D02*
X89351000Y-91222000D01*
X89391000Y-84575000D02*
X89391000Y-86844000D01*
X89391000Y-88924000D02*
X89391000Y-91193000D01*
X89431000Y-84604000D02*
X89431000Y-86844000D01*
X89431000Y-88924000D02*
X89431000Y-91164000D01*
X89471000Y-84634000D02*
X89471000Y-86844000D01*
X89471000Y-88924000D02*
X89471000Y-91134000D01*
X89511000Y-84664000D02*
X89511000Y-86844000D01*
X89511000Y-88924000D02*
X89511000Y-91104000D01*
X89551000Y-84695000D02*
X89551000Y-86844000D01*
X89551000Y-88924000D02*
X89551000Y-91073000D01*
X89591000Y-84728000D02*
X89591000Y-86844000D01*
X89591000Y-88924000D02*
X89591000Y-91040000D01*
X89631000Y-84760000D02*
X89631000Y-86844000D01*
X89631000Y-88924000D02*
X89631000Y-91008000D01*
X89671000Y-84794000D02*
X89671000Y-86844000D01*
X89671000Y-88924000D02*
X89671000Y-90974000D01*
X89711000Y-84829000D02*
X89711000Y-86844000D01*
X89711000Y-88924000D02*
X89711000Y-90939000D01*
X89751000Y-84865000D02*
X89751000Y-86844000D01*
X89751000Y-88924000D02*
X89751000Y-90903000D01*
X89791000Y-84901000D02*
X89791000Y-86844000D01*
X89791000Y-88924000D02*
X89791000Y-90867000D01*
X89831000Y-84939000D02*
X89831000Y-86844000D01*
X89831000Y-88924000D02*
X89831000Y-90829000D01*
X89871000Y-84977000D02*
X89871000Y-86844000D01*
X89871000Y-88924000D02*
X89871000Y-90791000D01*
X89911000Y-85017000D02*
X89911000Y-86844000D01*
X89911000Y-88924000D02*
X89911000Y-90751000D01*
X89951000Y-85058000D02*
X89951000Y-90710000D01*
X89991000Y-85100000D02*
X89991000Y-90668000D01*
X90031000Y-85143000D02*
X90031000Y-90625000D01*
X90071000Y-85187000D02*
X90071000Y-90581000D01*
X90111000Y-85233000D02*
X90111000Y-90535000D01*
X90151000Y-85280000D02*
X90151000Y-90488000D01*
X90191000Y-85328000D02*
X90191000Y-90440000D01*
X90231000Y-85379000D02*
X90231000Y-90389000D01*
X90271000Y-85430000D02*
X90271000Y-90338000D01*
X90311000Y-85484000D02*
X90311000Y-90284000D01*
X90351000Y-85539000D02*
X90351000Y-90229000D01*
X90391000Y-85597000D02*
X90391000Y-90171000D01*
X90431000Y-85656000D02*
X90431000Y-90112000D01*
X90471000Y-85718000D02*
X90471000Y-90050000D01*
X90511000Y-85782000D02*
X90511000Y-89986000D01*
X90551000Y-85850000D02*
X90551000Y-89918000D01*
X90591000Y-85920000D02*
X90591000Y-89848000D01*
X90631000Y-85994000D02*
X90631000Y-89774000D01*
X90671000Y-86071000D02*
X90671000Y-89697000D01*
X90711000Y-86153000D02*
X90711000Y-89615000D01*
X90751000Y-86239000D02*
X90751000Y-89529000D01*
X90791000Y-86332000D02*
X90791000Y-89436000D01*
X90831000Y-86431000D02*
X90831000Y-89337000D01*
X90871000Y-86538000D02*
X90871000Y-89230000D01*
X90911000Y-86655000D02*
X90911000Y-89113000D01*
X90951000Y-86786000D02*
X90951000Y-88982000D01*
X90991000Y-86936000D02*
X90991000Y-88832000D01*
X91031000Y-87116000D02*
X91031000Y-88652000D01*
X91071000Y-87351000D02*
X91071000Y-88417000D01*
X82580302Y-85569000D02*
X83380302Y-85569000D01*
X82980302Y-85169000D02*
X82980302Y-85969000D01*
X106620000Y-61020000D02*
X106620000Y-59690000D01*
X107950000Y-61020000D02*
X106620000Y-61020000D01*
X109220000Y-61020000D02*
X109220000Y-58360000D01*
X109220000Y-58360000D02*
X129600000Y-58360000D01*
X109220000Y-61020000D02*
X129600000Y-61020000D01*
X129600000Y-61020000D02*
X129600000Y-58360000D01*
D11*
X94492380Y-60451904D02*
X95301904Y-60451904D01*
X95397142Y-60404285D01*
X95444761Y-60356666D01*
X95492380Y-60261428D01*
X95492380Y-60070952D01*
X95444761Y-59975714D01*
X95397142Y-59928095D01*
X95301904Y-59880476D01*
X94492380Y-59880476D01*
X94492380Y-59499523D02*
X94492380Y-58880476D01*
X94873333Y-59213809D01*
X94873333Y-59070952D01*
X94920952Y-58975714D01*
X94968571Y-58928095D01*
X95063809Y-58880476D01*
X95301904Y-58880476D01*
X95397142Y-58928095D01*
X95444761Y-58975714D01*
X95492380Y-59070952D01*
X95492380Y-59356666D01*
X95444761Y-59451904D01*
X95397142Y-59499523D01*
X105243333Y-69582380D02*
X104910000Y-69106190D01*
X104671904Y-69582380D02*
X104671904Y-68582380D01*
X105052857Y-68582380D01*
X105148095Y-68630000D01*
X105195714Y-68677619D01*
X105243333Y-68772857D01*
X105243333Y-68915714D01*
X105195714Y-69010952D01*
X105148095Y-69058571D01*
X105052857Y-69106190D01*
X104671904Y-69106190D01*
X106195714Y-69582380D02*
X105624285Y-69582380D01*
X105910000Y-69582380D02*
X105910000Y-68582380D01*
X105814761Y-68725238D01*
X105719523Y-68820476D01*
X105624285Y-68868095D01*
X108458095Y-61682380D02*
X108458095Y-62491904D01*
X108505714Y-62587142D01*
X108553333Y-62634761D01*
X108648571Y-62682380D01*
X108839047Y-62682380D01*
X108934285Y-62634761D01*
X108981904Y-62587142D01*
X109029523Y-62491904D01*
X109029523Y-61682380D01*
X110029523Y-62682380D02*
X109458095Y-62682380D01*
X109743809Y-62682380D02*
X109743809Y-61682380D01*
X109648571Y-61825238D01*
X109553333Y-61920476D01*
X109458095Y-61968095D01*
X105440000Y-72706666D02*
X105440000Y-72006666D01*
X105673333Y-72506666D01*
X105906666Y-72006666D01*
X105906666Y-72706666D01*
X106240000Y-72706666D02*
X106240000Y-72006666D01*
X106640000Y-72706666D02*
X106340000Y-72306666D01*
X106640000Y-72006666D02*
X106240000Y-72406666D01*
X107240000Y-72006666D02*
X107106666Y-72006666D01*
X107040000Y-72040000D01*
X107006666Y-72073333D01*
X106940000Y-72173333D01*
X106906666Y-72306666D01*
X106906666Y-72573333D01*
X106940000Y-72640000D01*
X106973333Y-72673333D01*
X107040000Y-72706666D01*
X107173333Y-72706666D01*
X107240000Y-72673333D01*
X107273333Y-72640000D01*
X107306666Y-72573333D01*
X107306666Y-72406666D01*
X107273333Y-72340000D01*
X107240000Y-72306666D01*
X107173333Y-72273333D01*
X107040000Y-72273333D01*
X106973333Y-72306666D01*
X106940000Y-72340000D01*
X106906666Y-72406666D01*
X107906666Y-72006666D02*
X107773333Y-72006666D01*
X107706666Y-72040000D01*
X107673333Y-72073333D01*
X107606666Y-72173333D01*
X107573333Y-72306666D01*
X107573333Y-72573333D01*
X107606666Y-72640000D01*
X107640000Y-72673333D01*
X107706666Y-72706666D01*
X107840000Y-72706666D01*
X107906666Y-72673333D01*
X107940000Y-72640000D01*
X107973333Y-72573333D01*
X107973333Y-72406666D01*
X107940000Y-72340000D01*
X107906666Y-72306666D01*
X107840000Y-72273333D01*
X107706666Y-72273333D01*
X107640000Y-72306666D01*
X107606666Y-72340000D01*
X107573333Y-72406666D01*
X108506666Y-72340000D02*
X108273333Y-72340000D01*
X108273333Y-72706666D02*
X108273333Y-72006666D01*
X108606666Y-72006666D01*
X108806666Y-72006666D02*
X109273333Y-72706666D01*
X109273333Y-72006666D02*
X108806666Y-72706666D01*
X109906666Y-72706666D02*
X109506666Y-72706666D01*
X109706666Y-72706666D02*
X109706666Y-72006666D01*
X109640000Y-72106666D01*
X109573333Y-72173333D01*
X109506666Y-72206666D01*
X110206666Y-72706666D02*
X110206666Y-72006666D01*
X110440000Y-72506666D01*
X110673333Y-72006666D01*
X110673333Y-72706666D01*
X111240000Y-72340000D02*
X111340000Y-72373333D01*
X111373333Y-72406666D01*
X111406666Y-72473333D01*
X111406666Y-72573333D01*
X111373333Y-72640000D01*
X111340000Y-72673333D01*
X111273333Y-72706666D01*
X111006666Y-72706666D01*
X111006666Y-72006666D01*
X111240000Y-72006666D01*
X111306666Y-72040000D01*
X111340000Y-72073333D01*
X111373333Y-72140000D01*
X111373333Y-72206666D01*
X111340000Y-72273333D01*
X111306666Y-72306666D01*
X111240000Y-72340000D01*
X111006666Y-72340000D01*
X111606666Y-72006666D02*
X111840000Y-72706666D01*
X112073333Y-72006666D01*
X112306666Y-72706666D02*
X112306666Y-72006666D01*
X112540000Y-72506666D01*
X112773333Y-72006666D01*
X112773333Y-72706666D01*
X113106666Y-72706666D02*
X113106666Y-72006666D01*
X113273333Y-72006666D01*
X113373333Y-72040000D01*
X113440000Y-72106666D01*
X113473333Y-72173333D01*
X113506666Y-72306666D01*
X113506666Y-72406666D01*
X113473333Y-72540000D01*
X113440000Y-72606666D01*
X113373333Y-72673333D01*
X113273333Y-72706666D01*
X113106666Y-72706666D01*
X114173333Y-72706666D02*
X113773333Y-72706666D01*
X113973333Y-72706666D02*
X113973333Y-72006666D01*
X113906666Y-72106666D01*
X113840000Y-72173333D01*
X113773333Y-72206666D01*
X114573333Y-72306666D02*
X114506666Y-72273333D01*
X114473333Y-72240000D01*
X114440000Y-72173333D01*
X114440000Y-72140000D01*
X114473333Y-72073333D01*
X114506666Y-72040000D01*
X114573333Y-72006666D01*
X114706666Y-72006666D01*
X114773333Y-72040000D01*
X114806666Y-72073333D01*
X114840000Y-72140000D01*
X114840000Y-72173333D01*
X114806666Y-72240000D01*
X114773333Y-72273333D01*
X114706666Y-72306666D01*
X114573333Y-72306666D01*
X114506666Y-72340000D01*
X114473333Y-72373333D01*
X114440000Y-72440000D01*
X114440000Y-72573333D01*
X114473333Y-72640000D01*
X114506666Y-72673333D01*
X114573333Y-72706666D01*
X114706666Y-72706666D01*
X114773333Y-72673333D01*
X114806666Y-72640000D01*
X114840000Y-72573333D01*
X114840000Y-72440000D01*
X114806666Y-72373333D01*
X114773333Y-72340000D01*
X114706666Y-72306666D01*
X115640000Y-71973333D02*
X115040000Y-72873333D01*
X105890000Y-73849666D02*
X105890000Y-73149666D01*
X106123333Y-73649666D01*
X106356666Y-73149666D01*
X106356666Y-73849666D01*
X106690000Y-73849666D02*
X106690000Y-73149666D01*
X107090000Y-73849666D02*
X106790000Y-73449666D01*
X107090000Y-73149666D02*
X106690000Y-73549666D01*
X107690000Y-73149666D02*
X107556666Y-73149666D01*
X107490000Y-73183000D01*
X107456666Y-73216333D01*
X107390000Y-73316333D01*
X107356666Y-73449666D01*
X107356666Y-73716333D01*
X107390000Y-73783000D01*
X107423333Y-73816333D01*
X107490000Y-73849666D01*
X107623333Y-73849666D01*
X107690000Y-73816333D01*
X107723333Y-73783000D01*
X107756666Y-73716333D01*
X107756666Y-73549666D01*
X107723333Y-73483000D01*
X107690000Y-73449666D01*
X107623333Y-73416333D01*
X107490000Y-73416333D01*
X107423333Y-73449666D01*
X107390000Y-73483000D01*
X107356666Y-73549666D01*
X108356666Y-73383000D02*
X108356666Y-73849666D01*
X108190000Y-73116333D02*
X108023333Y-73616333D01*
X108456666Y-73616333D01*
X108956666Y-73483000D02*
X108723333Y-73483000D01*
X108723333Y-73849666D02*
X108723333Y-73149666D01*
X109056666Y-73149666D01*
X109256666Y-73149666D02*
X109723333Y-73849666D01*
X109723333Y-73149666D02*
X109256666Y-73849666D01*
X110323333Y-73149666D02*
X109990000Y-73149666D01*
X109956666Y-73483000D01*
X109990000Y-73449666D01*
X110056666Y-73416333D01*
X110223333Y-73416333D01*
X110290000Y-73449666D01*
X110323333Y-73483000D01*
X110356666Y-73549666D01*
X110356666Y-73716333D01*
X110323333Y-73783000D01*
X110290000Y-73816333D01*
X110223333Y-73849666D01*
X110056666Y-73849666D01*
X109990000Y-73816333D01*
X109956666Y-73783000D01*
X111023333Y-73849666D02*
X110623333Y-73849666D01*
X110823333Y-73849666D02*
X110823333Y-73149666D01*
X110756666Y-73249666D01*
X110690000Y-73316333D01*
X110623333Y-73349666D01*
X111290000Y-73216333D02*
X111323333Y-73183000D01*
X111390000Y-73149666D01*
X111556666Y-73149666D01*
X111623333Y-73183000D01*
X111656666Y-73216333D01*
X111690000Y-73283000D01*
X111690000Y-73349666D01*
X111656666Y-73449666D01*
X111256666Y-73849666D01*
X111690000Y-73849666D01*
X111890000Y-73149666D02*
X112123333Y-73849666D01*
X112356666Y-73149666D01*
X112590000Y-73849666D02*
X112590000Y-73149666D01*
X112823333Y-73649666D01*
X113056666Y-73149666D01*
X113056666Y-73849666D01*
X113390000Y-73849666D02*
X113390000Y-73149666D01*
X113556666Y-73149666D01*
X113656666Y-73183000D01*
X113723333Y-73249666D01*
X113756666Y-73316333D01*
X113790000Y-73449666D01*
X113790000Y-73549666D01*
X113756666Y-73683000D01*
X113723333Y-73749666D01*
X113656666Y-73816333D01*
X113556666Y-73849666D01*
X113390000Y-73849666D01*
X114456666Y-73849666D02*
X114056666Y-73849666D01*
X114256666Y-73849666D02*
X114256666Y-73149666D01*
X114190000Y-73249666D01*
X114123333Y-73316333D01*
X114056666Y-73349666D01*
X114723333Y-73216333D02*
X114756666Y-73183000D01*
X114823333Y-73149666D01*
X114990000Y-73149666D01*
X115056666Y-73183000D01*
X115090000Y-73216333D01*
X115123333Y-73283000D01*
X115123333Y-73349666D01*
X115090000Y-73449666D01*
X114690000Y-73849666D01*
X115123333Y-73849666D01*
X102772380Y-72556666D02*
X102296190Y-72890000D01*
X102772380Y-73128095D02*
X101772380Y-73128095D01*
X101772380Y-72747142D01*
X101820000Y-72651904D01*
X101867619Y-72604285D01*
X101962857Y-72556666D01*
X102105714Y-72556666D01*
X102200952Y-72604285D01*
X102248571Y-72651904D01*
X102296190Y-72747142D01*
X102296190Y-73128095D01*
X101772380Y-72223333D02*
X101772380Y-71604285D01*
X102153333Y-71937619D01*
X102153333Y-71794761D01*
X102200952Y-71699523D01*
X102248571Y-71651904D01*
X102343809Y-71604285D01*
X102581904Y-71604285D01*
X102677142Y-71651904D01*
X102724761Y-71699523D01*
X102772380Y-71794761D01*
X102772380Y-72080476D01*
X102724761Y-72175714D01*
X102677142Y-72223333D01*
X101897619Y-72485238D02*
X101850000Y-72580476D01*
X101754761Y-72675714D01*
X101611904Y-72818571D01*
X101564285Y-72913809D01*
X101564285Y-73009047D01*
X101802380Y-72961428D02*
X101754761Y-73056666D01*
X101659523Y-73151904D01*
X101469047Y-73199523D01*
X101135714Y-73199523D01*
X100945238Y-73151904D01*
X100850000Y-73056666D01*
X100802380Y-72961428D01*
X100802380Y-72770952D01*
X100850000Y-72675714D01*
X100945238Y-72580476D01*
X101135714Y-72532857D01*
X101469047Y-72532857D01*
X101659523Y-72580476D01*
X101754761Y-72675714D01*
X101802380Y-72770952D01*
X101802380Y-72961428D01*
X101802380Y-71580476D02*
X101802380Y-72151904D01*
X101802380Y-71866190D02*
X100802380Y-71866190D01*
X100945238Y-71961428D01*
X101040476Y-72056666D01*
X101088095Y-72151904D01*
X130262380Y-102958333D02*
X130976666Y-102958333D01*
X131119523Y-103005952D01*
X131214761Y-103101190D01*
X131262380Y-103244047D01*
X131262380Y-103339285D01*
X131262380Y-101958333D02*
X131262380Y-102529761D01*
X131262380Y-102244047D02*
X130262380Y-102244047D01*
X130405238Y-102339285D01*
X130500476Y-102434523D01*
X130548095Y-102529761D01*
X81742380Y-88558333D02*
X82456666Y-88558333D01*
X82599523Y-88605952D01*
X82694761Y-88701190D01*
X82742380Y-88844047D01*
X82742380Y-88939285D01*
X81837619Y-88129761D02*
X81790000Y-88082142D01*
X81742380Y-87986904D01*
X81742380Y-87748809D01*
X81790000Y-87653571D01*
X81837619Y-87605952D01*
X81932857Y-87558333D01*
X82028095Y-87558333D01*
X82170952Y-87605952D01*
X82742380Y-88177380D01*
X82742380Y-87558333D01*
X119892380Y-88391904D02*
X120701904Y-88391904D01*
X120797142Y-88344285D01*
X120844761Y-88296666D01*
X120892380Y-88201428D01*
X120892380Y-88010952D01*
X120844761Y-87915714D01*
X120797142Y-87868095D01*
X120701904Y-87820476D01*
X119892380Y-87820476D01*
X119987619Y-87391904D02*
X119940000Y-87344285D01*
X119892380Y-87249047D01*
X119892380Y-87010952D01*
X119940000Y-86915714D01*
X119987619Y-86868095D01*
X120082857Y-86820476D01*
X120178095Y-86820476D01*
X120320952Y-86868095D01*
X120892380Y-87439523D01*
X120892380Y-86820476D01*
X86823333Y-82991142D02*
X86775714Y-83038761D01*
X86632857Y-83086380D01*
X86537619Y-83086380D01*
X86394761Y-83038761D01*
X86299523Y-82943523D01*
X86251904Y-82848285D01*
X86204285Y-82657809D01*
X86204285Y-82514952D01*
X86251904Y-82324476D01*
X86299523Y-82229238D01*
X86394761Y-82134000D01*
X86537619Y-82086380D01*
X86632857Y-82086380D01*
X86775714Y-82134000D01*
X86823333Y-82181619D01*
X87775714Y-83086380D02*
X87204285Y-83086380D01*
X87490000Y-83086380D02*
X87490000Y-82086380D01*
X87394761Y-82229238D01*
X87299523Y-82324476D01*
X87204285Y-82372095D01*
X105072380Y-60023333D02*
X105786666Y-60023333D01*
X105929523Y-60070952D01*
X106024761Y-60166190D01*
X106072380Y-60309047D01*
X106072380Y-60404285D01*
X105072380Y-59642380D02*
X105072380Y-59023333D01*
X105453333Y-59356666D01*
X105453333Y-59213809D01*
X105500952Y-59118571D01*
X105548571Y-59070952D01*
X105643809Y-59023333D01*
X105881904Y-59023333D01*
X105977142Y-59070952D01*
X106024761Y-59118571D01*
X106072380Y-59213809D01*
X106072380Y-59499523D01*
X106024761Y-59594761D01*
X105977142Y-59642380D01*
M02*
