G04 #@! TF.GenerationSoftware,KiCad,Pcbnew,5.1.4+dfsg1-1*
G04 #@! TF.CreationDate,2020-02-29T16:09:42-08:00*
G04 #@! TF.ProjectId,teensy_audio_player_kicad,7465656e-7379-45f6-9175-64696f5f706c,rev?*
G04 #@! TF.SameCoordinates,Original*
G04 #@! TF.FileFunction,Copper,L2,Bot*
G04 #@! TF.FilePolarity,Positive*
%FSLAX46Y46*%
G04 Gerber Fmt 4.6, Leading zero omitted, Abs format (unit mm)*
G04 Created by KiCad (PCBNEW 5.1.4+dfsg1-1) date 2020-02-29 16:09:42*
%MOMM*%
%LPD*%
G04 APERTURE LIST*
%ADD10O,1.600000X1.600000*%
%ADD11R,1.600000X1.600000*%
%ADD12C,1.600000*%
%ADD13R,1.500000X1.050000*%
%ADD14O,1.500000X1.050000*%
%ADD15O,1.727200X1.727200*%
%ADD16R,1.727200X1.727200*%
%ADD17C,0.100000*%
%ADD18C,1.700000*%
%ADD19O,1.950000X1.700000*%
%ADD20O,1.700000X1.700000*%
%ADD21R,1.700000X1.700000*%
%ADD22C,0.250000*%
%ADD23C,0.254000*%
G04 APERTURE END LIST*
D10*
X80010000Y-59690000D03*
X82550000Y-59690000D03*
X85090000Y-59690000D03*
X87630000Y-59690000D03*
X90170000Y-59690000D03*
D11*
X92710000Y-59690000D03*
D12*
X120650000Y-80010000D03*
X123190000Y-80010000D03*
X125730000Y-80010000D03*
X128270000Y-80010000D03*
X118110000Y-80010000D03*
X115570000Y-80010000D03*
X113030000Y-80010000D03*
X128270000Y-64770000D03*
X125730000Y-64770000D03*
X123190000Y-64770000D03*
X120650000Y-64770000D03*
X110490000Y-80010000D03*
X107950000Y-80010000D03*
X105410000Y-80010000D03*
X102870000Y-80010000D03*
X100330000Y-80010000D03*
X97790000Y-80010000D03*
X95250000Y-80010000D03*
X92710000Y-80010000D03*
X90170000Y-80010000D03*
X87630000Y-80010000D03*
X85090000Y-80010000D03*
X82550000Y-80010000D03*
D11*
X80010000Y-80010000D03*
D12*
X118110000Y-64770000D03*
X115570000Y-64770000D03*
X113030000Y-64770000D03*
X110490000Y-64770000D03*
X107950000Y-64770000D03*
X105410000Y-64770000D03*
X102870000Y-64770000D03*
X100330000Y-64770000D03*
X97790000Y-64770000D03*
X95250000Y-64770000D03*
X92710000Y-64770000D03*
X90170000Y-64770000D03*
X87630000Y-64770000D03*
X85090000Y-64770000D03*
X82550000Y-64770000D03*
X80010000Y-64770000D03*
D10*
X91440000Y-74930000D03*
D12*
X91440000Y-85090000D03*
D13*
X97790000Y-71120000D03*
D14*
X97790000Y-73660000D03*
X97790000Y-72390000D03*
D15*
X93980000Y-99060000D03*
X93980000Y-96520000D03*
X96520000Y-99060000D03*
X96520000Y-96520000D03*
X99060000Y-99060000D03*
X99060000Y-96520000D03*
X101600000Y-99060000D03*
X101600000Y-96520000D03*
X104140000Y-99060000D03*
X104140000Y-96520000D03*
X106680000Y-99060000D03*
X106680000Y-96520000D03*
X109220000Y-99060000D03*
X109220000Y-96520000D03*
X111760000Y-99060000D03*
X111760000Y-96520000D03*
X114300000Y-99060000D03*
X114300000Y-96520000D03*
X116840000Y-99060000D03*
X116840000Y-96520000D03*
X119380000Y-99060000D03*
X119380000Y-96520000D03*
X121920000Y-99060000D03*
X121920000Y-96520000D03*
X124460000Y-99060000D03*
D16*
X124460000Y-96520000D03*
D17*
G36*
X79489504Y-84876204D02*
G01*
X79513773Y-84879804D01*
X79537571Y-84885765D01*
X79560671Y-84894030D01*
X79582849Y-84904520D01*
X79603893Y-84917133D01*
X79623598Y-84931747D01*
X79641777Y-84948223D01*
X79658253Y-84966402D01*
X79672867Y-84986107D01*
X79685480Y-85007151D01*
X79695970Y-85029329D01*
X79704235Y-85052429D01*
X79710196Y-85076227D01*
X79713796Y-85100496D01*
X79715000Y-85125000D01*
X79715000Y-86325000D01*
X79713796Y-86349504D01*
X79710196Y-86373773D01*
X79704235Y-86397571D01*
X79695970Y-86420671D01*
X79685480Y-86442849D01*
X79672867Y-86463893D01*
X79658253Y-86483598D01*
X79641777Y-86501777D01*
X79623598Y-86518253D01*
X79603893Y-86532867D01*
X79582849Y-86545480D01*
X79560671Y-86555970D01*
X79537571Y-86564235D01*
X79513773Y-86570196D01*
X79489504Y-86573796D01*
X79465000Y-86575000D01*
X78015000Y-86575000D01*
X77990496Y-86573796D01*
X77966227Y-86570196D01*
X77942429Y-86564235D01*
X77919329Y-86555970D01*
X77897151Y-86545480D01*
X77876107Y-86532867D01*
X77856402Y-86518253D01*
X77838223Y-86501777D01*
X77821747Y-86483598D01*
X77807133Y-86463893D01*
X77794520Y-86442849D01*
X77784030Y-86420671D01*
X77775765Y-86397571D01*
X77769804Y-86373773D01*
X77766204Y-86349504D01*
X77765000Y-86325000D01*
X77765000Y-85125000D01*
X77766204Y-85100496D01*
X77769804Y-85076227D01*
X77775765Y-85052429D01*
X77784030Y-85029329D01*
X77794520Y-85007151D01*
X77807133Y-84986107D01*
X77821747Y-84966402D01*
X77838223Y-84948223D01*
X77856402Y-84931747D01*
X77876107Y-84917133D01*
X77897151Y-84904520D01*
X77919329Y-84894030D01*
X77942429Y-84885765D01*
X77966227Y-84879804D01*
X77990496Y-84876204D01*
X78015000Y-84875000D01*
X79465000Y-84875000D01*
X79489504Y-84876204D01*
X79489504Y-84876204D01*
G37*
D18*
X78740000Y-85725000D03*
D19*
X78740000Y-88225000D03*
X78740000Y-90725000D03*
D11*
X118110000Y-83820000D03*
D10*
X95250000Y-91440000D03*
X115570000Y-83820000D03*
X97790000Y-91440000D03*
X113030000Y-83820000D03*
X100330000Y-91440000D03*
X110490000Y-83820000D03*
X102870000Y-91440000D03*
X107950000Y-83820000D03*
X105410000Y-91440000D03*
X105410000Y-83820000D03*
X107950000Y-91440000D03*
X102870000Y-83820000D03*
X110490000Y-91440000D03*
X100330000Y-83820000D03*
X113030000Y-91440000D03*
X97790000Y-83820000D03*
X115570000Y-91440000D03*
X95250000Y-83820000D03*
X118110000Y-91440000D03*
D11*
X85090000Y-87884000D03*
D12*
X88890000Y-87884000D03*
D20*
X128270000Y-59690000D03*
X125730000Y-59690000D03*
X123190000Y-59690000D03*
X120650000Y-59690000D03*
X118110000Y-59690000D03*
X115570000Y-59690000D03*
X113030000Y-59690000D03*
X110490000Y-59690000D03*
D21*
X107950000Y-59690000D03*
D22*
X81280000Y-60960000D02*
X81280000Y-74930000D01*
X82550000Y-59690000D02*
X81280000Y-60960000D01*
X103505000Y-78105000D02*
X105410000Y-80010000D01*
X81280000Y-74930000D02*
X84455000Y-78105000D01*
X84455000Y-78105000D02*
X103505000Y-78105000D01*
X108585000Y-81915000D02*
X110490000Y-83820000D01*
X97790000Y-80010000D02*
X99695000Y-81915000D01*
X99695000Y-81915000D02*
X108585000Y-81915000D01*
D23*
G36*
X128880000Y-58332229D02*
G01*
X128841034Y-58311401D01*
X128561111Y-58226487D01*
X128342950Y-58205000D01*
X128197050Y-58205000D01*
X127978889Y-58226487D01*
X127698966Y-58311401D01*
X127440986Y-58449294D01*
X127214866Y-58634866D01*
X127029294Y-58860986D01*
X127000000Y-58915791D01*
X126970706Y-58860986D01*
X126785134Y-58634866D01*
X126559014Y-58449294D01*
X126301034Y-58311401D01*
X126021111Y-58226487D01*
X125802950Y-58205000D01*
X125657050Y-58205000D01*
X125438889Y-58226487D01*
X125158966Y-58311401D01*
X124900986Y-58449294D01*
X124674866Y-58634866D01*
X124489294Y-58860986D01*
X124460000Y-58915791D01*
X124430706Y-58860986D01*
X124245134Y-58634866D01*
X124019014Y-58449294D01*
X123761034Y-58311401D01*
X123481111Y-58226487D01*
X123262950Y-58205000D01*
X123117050Y-58205000D01*
X122898889Y-58226487D01*
X122618966Y-58311401D01*
X122360986Y-58449294D01*
X122134866Y-58634866D01*
X121949294Y-58860986D01*
X121920000Y-58915791D01*
X121890706Y-58860986D01*
X121705134Y-58634866D01*
X121479014Y-58449294D01*
X121221034Y-58311401D01*
X120941111Y-58226487D01*
X120722950Y-58205000D01*
X120577050Y-58205000D01*
X120358889Y-58226487D01*
X120078966Y-58311401D01*
X119820986Y-58449294D01*
X119594866Y-58634866D01*
X119409294Y-58860986D01*
X119380000Y-58915791D01*
X119350706Y-58860986D01*
X119165134Y-58634866D01*
X118939014Y-58449294D01*
X118681034Y-58311401D01*
X118401111Y-58226487D01*
X118182950Y-58205000D01*
X118037050Y-58205000D01*
X117818889Y-58226487D01*
X117538966Y-58311401D01*
X117280986Y-58449294D01*
X117054866Y-58634866D01*
X116869294Y-58860986D01*
X116840000Y-58915791D01*
X116810706Y-58860986D01*
X116625134Y-58634866D01*
X116399014Y-58449294D01*
X116141034Y-58311401D01*
X115861111Y-58226487D01*
X115642950Y-58205000D01*
X115497050Y-58205000D01*
X115278889Y-58226487D01*
X114998966Y-58311401D01*
X114740986Y-58449294D01*
X114514866Y-58634866D01*
X114329294Y-58860986D01*
X114300000Y-58915791D01*
X114270706Y-58860986D01*
X114085134Y-58634866D01*
X113859014Y-58449294D01*
X113601034Y-58311401D01*
X113321111Y-58226487D01*
X113102950Y-58205000D01*
X112957050Y-58205000D01*
X112738889Y-58226487D01*
X112458966Y-58311401D01*
X112200986Y-58449294D01*
X111974866Y-58634866D01*
X111789294Y-58860986D01*
X111760000Y-58915791D01*
X111730706Y-58860986D01*
X111545134Y-58634866D01*
X111319014Y-58449294D01*
X111061034Y-58311401D01*
X110781111Y-58226487D01*
X110562950Y-58205000D01*
X110417050Y-58205000D01*
X110198889Y-58226487D01*
X109918966Y-58311401D01*
X109660986Y-58449294D01*
X109434866Y-58634866D01*
X109410393Y-58664687D01*
X109389502Y-58595820D01*
X109330537Y-58485506D01*
X109251185Y-58388815D01*
X109154494Y-58309463D01*
X109044180Y-58250498D01*
X108924482Y-58214188D01*
X108800000Y-58201928D01*
X107100000Y-58201928D01*
X106975518Y-58214188D01*
X106855820Y-58250498D01*
X106745506Y-58309463D01*
X106648815Y-58388815D01*
X106569463Y-58485506D01*
X106510498Y-58595820D01*
X106474188Y-58715518D01*
X106461928Y-58840000D01*
X106461928Y-60540000D01*
X106474188Y-60664482D01*
X106510498Y-60784180D01*
X106569463Y-60894494D01*
X106648815Y-60991185D01*
X106745506Y-61070537D01*
X106855820Y-61129502D01*
X106975518Y-61165812D01*
X107100000Y-61178072D01*
X108800000Y-61178072D01*
X108924482Y-61165812D01*
X109044180Y-61129502D01*
X109154494Y-61070537D01*
X109251185Y-60991185D01*
X109330537Y-60894494D01*
X109389502Y-60784180D01*
X109410393Y-60715313D01*
X109434866Y-60745134D01*
X109660986Y-60930706D01*
X109918966Y-61068599D01*
X110198889Y-61153513D01*
X110417050Y-61175000D01*
X110562950Y-61175000D01*
X110781111Y-61153513D01*
X111061034Y-61068599D01*
X111319014Y-60930706D01*
X111545134Y-60745134D01*
X111730706Y-60519014D01*
X111760000Y-60464209D01*
X111789294Y-60519014D01*
X111974866Y-60745134D01*
X112200986Y-60930706D01*
X112458966Y-61068599D01*
X112738889Y-61153513D01*
X112957050Y-61175000D01*
X113102950Y-61175000D01*
X113321111Y-61153513D01*
X113601034Y-61068599D01*
X113859014Y-60930706D01*
X114085134Y-60745134D01*
X114270706Y-60519014D01*
X114300000Y-60464209D01*
X114329294Y-60519014D01*
X114514866Y-60745134D01*
X114740986Y-60930706D01*
X114998966Y-61068599D01*
X115278889Y-61153513D01*
X115497050Y-61175000D01*
X115642950Y-61175000D01*
X115861111Y-61153513D01*
X116141034Y-61068599D01*
X116399014Y-60930706D01*
X116625134Y-60745134D01*
X116810706Y-60519014D01*
X116840000Y-60464209D01*
X116869294Y-60519014D01*
X117054866Y-60745134D01*
X117280986Y-60930706D01*
X117538966Y-61068599D01*
X117818889Y-61153513D01*
X118037050Y-61175000D01*
X118182950Y-61175000D01*
X118401111Y-61153513D01*
X118681034Y-61068599D01*
X118939014Y-60930706D01*
X119165134Y-60745134D01*
X119350706Y-60519014D01*
X119380000Y-60464209D01*
X119409294Y-60519014D01*
X119594866Y-60745134D01*
X119820986Y-60930706D01*
X120078966Y-61068599D01*
X120358889Y-61153513D01*
X120577050Y-61175000D01*
X120722950Y-61175000D01*
X120941111Y-61153513D01*
X121221034Y-61068599D01*
X121479014Y-60930706D01*
X121705134Y-60745134D01*
X121890706Y-60519014D01*
X121920000Y-60464209D01*
X121949294Y-60519014D01*
X122134866Y-60745134D01*
X122360986Y-60930706D01*
X122618966Y-61068599D01*
X122898889Y-61153513D01*
X123117050Y-61175000D01*
X123262950Y-61175000D01*
X123481111Y-61153513D01*
X123761034Y-61068599D01*
X124019014Y-60930706D01*
X124245134Y-60745134D01*
X124430706Y-60519014D01*
X124460000Y-60464209D01*
X124489294Y-60519014D01*
X124674866Y-60745134D01*
X124900986Y-60930706D01*
X125158966Y-61068599D01*
X125438889Y-61153513D01*
X125657050Y-61175000D01*
X125802950Y-61175000D01*
X126021111Y-61153513D01*
X126301034Y-61068599D01*
X126559014Y-60930706D01*
X126785134Y-60745134D01*
X126970706Y-60519014D01*
X127000000Y-60464209D01*
X127029294Y-60519014D01*
X127214866Y-60745134D01*
X127440986Y-60930706D01*
X127698966Y-61068599D01*
X127978889Y-61153513D01*
X128197050Y-61175000D01*
X128342950Y-61175000D01*
X128561111Y-61153513D01*
X128841034Y-61068599D01*
X128880000Y-61047771D01*
X128880000Y-63469438D01*
X128688574Y-63390147D01*
X128411335Y-63335000D01*
X128128665Y-63335000D01*
X127851426Y-63390147D01*
X127590273Y-63498320D01*
X127355241Y-63655363D01*
X127155363Y-63855241D01*
X127000000Y-64087759D01*
X126844637Y-63855241D01*
X126644759Y-63655363D01*
X126409727Y-63498320D01*
X126148574Y-63390147D01*
X125871335Y-63335000D01*
X125588665Y-63335000D01*
X125311426Y-63390147D01*
X125050273Y-63498320D01*
X124815241Y-63655363D01*
X124615363Y-63855241D01*
X124460000Y-64087759D01*
X124304637Y-63855241D01*
X124104759Y-63655363D01*
X123869727Y-63498320D01*
X123608574Y-63390147D01*
X123331335Y-63335000D01*
X123048665Y-63335000D01*
X122771426Y-63390147D01*
X122510273Y-63498320D01*
X122275241Y-63655363D01*
X122075363Y-63855241D01*
X121920000Y-64087759D01*
X121764637Y-63855241D01*
X121564759Y-63655363D01*
X121329727Y-63498320D01*
X121068574Y-63390147D01*
X120791335Y-63335000D01*
X120508665Y-63335000D01*
X120231426Y-63390147D01*
X119970273Y-63498320D01*
X119735241Y-63655363D01*
X119535363Y-63855241D01*
X119380000Y-64087759D01*
X119224637Y-63855241D01*
X119024759Y-63655363D01*
X118789727Y-63498320D01*
X118528574Y-63390147D01*
X118251335Y-63335000D01*
X117968665Y-63335000D01*
X117691426Y-63390147D01*
X117430273Y-63498320D01*
X117195241Y-63655363D01*
X116995363Y-63855241D01*
X116839085Y-64089128D01*
X116806671Y-64028486D01*
X116562702Y-63956903D01*
X115749605Y-64770000D01*
X116562702Y-65583097D01*
X116806671Y-65511514D01*
X116837194Y-65447008D01*
X116838320Y-65449727D01*
X116995363Y-65684759D01*
X117195241Y-65884637D01*
X117430273Y-66041680D01*
X117691426Y-66149853D01*
X117968665Y-66205000D01*
X118251335Y-66205000D01*
X118528574Y-66149853D01*
X118789727Y-66041680D01*
X119024759Y-65884637D01*
X119224637Y-65684759D01*
X119380000Y-65452241D01*
X119535363Y-65684759D01*
X119735241Y-65884637D01*
X119970273Y-66041680D01*
X120231426Y-66149853D01*
X120508665Y-66205000D01*
X120791335Y-66205000D01*
X121068574Y-66149853D01*
X121329727Y-66041680D01*
X121564759Y-65884637D01*
X121764637Y-65684759D01*
X121920000Y-65452241D01*
X122075363Y-65684759D01*
X122275241Y-65884637D01*
X122510273Y-66041680D01*
X122771426Y-66149853D01*
X123048665Y-66205000D01*
X123331335Y-66205000D01*
X123608574Y-66149853D01*
X123869727Y-66041680D01*
X124104759Y-65884637D01*
X124304637Y-65684759D01*
X124460000Y-65452241D01*
X124615363Y-65684759D01*
X124815241Y-65884637D01*
X125050273Y-66041680D01*
X125311426Y-66149853D01*
X125588665Y-66205000D01*
X125871335Y-66205000D01*
X126148574Y-66149853D01*
X126409727Y-66041680D01*
X126644759Y-65884637D01*
X126844637Y-65684759D01*
X127000000Y-65452241D01*
X127155363Y-65684759D01*
X127355241Y-65884637D01*
X127590273Y-66041680D01*
X127851426Y-66149853D01*
X128128665Y-66205000D01*
X128411335Y-66205000D01*
X128688574Y-66149853D01*
X128880000Y-66070562D01*
X128880000Y-78709438D01*
X128688574Y-78630147D01*
X128411335Y-78575000D01*
X128128665Y-78575000D01*
X127851426Y-78630147D01*
X127590273Y-78738320D01*
X127355241Y-78895363D01*
X127155363Y-79095241D01*
X127000000Y-79327759D01*
X126844637Y-79095241D01*
X126644759Y-78895363D01*
X126409727Y-78738320D01*
X126148574Y-78630147D01*
X125871335Y-78575000D01*
X125588665Y-78575000D01*
X125311426Y-78630147D01*
X125050273Y-78738320D01*
X124815241Y-78895363D01*
X124615363Y-79095241D01*
X124460000Y-79327759D01*
X124304637Y-79095241D01*
X124104759Y-78895363D01*
X123869727Y-78738320D01*
X123608574Y-78630147D01*
X123331335Y-78575000D01*
X123048665Y-78575000D01*
X122771426Y-78630147D01*
X122510273Y-78738320D01*
X122275241Y-78895363D01*
X122075363Y-79095241D01*
X121920000Y-79327759D01*
X121764637Y-79095241D01*
X121564759Y-78895363D01*
X121329727Y-78738320D01*
X121068574Y-78630147D01*
X120791335Y-78575000D01*
X120508665Y-78575000D01*
X120231426Y-78630147D01*
X119970273Y-78738320D01*
X119735241Y-78895363D01*
X119535363Y-79095241D01*
X119380000Y-79327759D01*
X119224637Y-79095241D01*
X119024759Y-78895363D01*
X118789727Y-78738320D01*
X118528574Y-78630147D01*
X118251335Y-78575000D01*
X117968665Y-78575000D01*
X117691426Y-78630147D01*
X117430273Y-78738320D01*
X117195241Y-78895363D01*
X116995363Y-79095241D01*
X116840000Y-79327759D01*
X116684637Y-79095241D01*
X116484759Y-78895363D01*
X116249727Y-78738320D01*
X115988574Y-78630147D01*
X115711335Y-78575000D01*
X115428665Y-78575000D01*
X115151426Y-78630147D01*
X114890273Y-78738320D01*
X114655241Y-78895363D01*
X114455363Y-79095241D01*
X114300000Y-79327759D01*
X114144637Y-79095241D01*
X113944759Y-78895363D01*
X113709727Y-78738320D01*
X113448574Y-78630147D01*
X113171335Y-78575000D01*
X112888665Y-78575000D01*
X112611426Y-78630147D01*
X112350273Y-78738320D01*
X112115241Y-78895363D01*
X111915363Y-79095241D01*
X111760000Y-79327759D01*
X111604637Y-79095241D01*
X111404759Y-78895363D01*
X111169727Y-78738320D01*
X110908574Y-78630147D01*
X110631335Y-78575000D01*
X110348665Y-78575000D01*
X110071426Y-78630147D01*
X109810273Y-78738320D01*
X109575241Y-78895363D01*
X109375363Y-79095241D01*
X109220000Y-79327759D01*
X109064637Y-79095241D01*
X108864759Y-78895363D01*
X108629727Y-78738320D01*
X108368574Y-78630147D01*
X108091335Y-78575000D01*
X107808665Y-78575000D01*
X107531426Y-78630147D01*
X107270273Y-78738320D01*
X107035241Y-78895363D01*
X106835363Y-79095241D01*
X106680000Y-79327759D01*
X106524637Y-79095241D01*
X106324759Y-78895363D01*
X106089727Y-78738320D01*
X105828574Y-78630147D01*
X105551335Y-78575000D01*
X105268665Y-78575000D01*
X105086114Y-78611312D01*
X104068804Y-77594003D01*
X104045001Y-77564999D01*
X103929276Y-77470026D01*
X103797247Y-77399454D01*
X103653986Y-77355997D01*
X103542333Y-77345000D01*
X103542322Y-77345000D01*
X103505000Y-77341324D01*
X103467678Y-77345000D01*
X84769802Y-77345000D01*
X82354802Y-74930000D01*
X89998057Y-74930000D01*
X90025764Y-75211309D01*
X90107818Y-75481808D01*
X90241068Y-75731101D01*
X90420392Y-75949608D01*
X90638899Y-76128932D01*
X90888192Y-76262182D01*
X91158691Y-76344236D01*
X91369508Y-76365000D01*
X91510492Y-76365000D01*
X91721309Y-76344236D01*
X91991808Y-76262182D01*
X92241101Y-76128932D01*
X92459608Y-75949608D01*
X92638932Y-75731101D01*
X92772182Y-75481808D01*
X92854236Y-75211309D01*
X92881943Y-74930000D01*
X92854236Y-74648691D01*
X92772182Y-74378192D01*
X92638932Y-74128899D01*
X92459608Y-73910392D01*
X92241101Y-73731068D01*
X91991808Y-73597818D01*
X91721309Y-73515764D01*
X91510492Y-73495000D01*
X91369508Y-73495000D01*
X91158691Y-73515764D01*
X90888192Y-73597818D01*
X90638899Y-73731068D01*
X90420392Y-73910392D01*
X90241068Y-74128899D01*
X90107818Y-74378192D01*
X90025764Y-74648691D01*
X89998057Y-74930000D01*
X82354802Y-74930000D01*
X82040000Y-74615199D01*
X82040000Y-72390000D01*
X96399388Y-72390000D01*
X96421785Y-72617400D01*
X96488115Y-72836060D01*
X96589105Y-73025000D01*
X96488115Y-73213940D01*
X96421785Y-73432600D01*
X96399388Y-73660000D01*
X96421785Y-73887400D01*
X96488115Y-74106060D01*
X96595829Y-74307579D01*
X96740788Y-74484212D01*
X96917421Y-74629171D01*
X97118940Y-74736885D01*
X97337600Y-74803215D01*
X97508021Y-74820000D01*
X98071979Y-74820000D01*
X98242400Y-74803215D01*
X98461060Y-74736885D01*
X98662579Y-74629171D01*
X98839212Y-74484212D01*
X98984171Y-74307579D01*
X99091885Y-74106060D01*
X99158215Y-73887400D01*
X99180612Y-73660000D01*
X99158215Y-73432600D01*
X99091885Y-73213940D01*
X98990895Y-73025000D01*
X99091885Y-72836060D01*
X99158215Y-72617400D01*
X99180612Y-72390000D01*
X99158215Y-72162600D01*
X99094907Y-71953902D01*
X99129502Y-71889180D01*
X99165812Y-71769482D01*
X99178072Y-71645000D01*
X99175000Y-71405750D01*
X99016250Y-71247000D01*
X98243109Y-71247000D01*
X98242400Y-71246785D01*
X98071979Y-71230000D01*
X97508021Y-71230000D01*
X97337600Y-71246785D01*
X97336891Y-71247000D01*
X96563750Y-71247000D01*
X96405000Y-71405750D01*
X96401928Y-71645000D01*
X96414188Y-71769482D01*
X96450498Y-71889180D01*
X96485093Y-71953902D01*
X96421785Y-72162600D01*
X96399388Y-72390000D01*
X82040000Y-72390000D01*
X82040000Y-70595000D01*
X96401928Y-70595000D01*
X96405000Y-70834250D01*
X96563750Y-70993000D01*
X97663000Y-70993000D01*
X97663000Y-70118750D01*
X97917000Y-70118750D01*
X97917000Y-70993000D01*
X99016250Y-70993000D01*
X99175000Y-70834250D01*
X99178072Y-70595000D01*
X99165812Y-70470518D01*
X99129502Y-70350820D01*
X99070537Y-70240506D01*
X98991185Y-70143815D01*
X98894494Y-70064463D01*
X98784180Y-70005498D01*
X98664482Y-69969188D01*
X98540000Y-69956928D01*
X98075750Y-69960000D01*
X97917000Y-70118750D01*
X97663000Y-70118750D01*
X97504250Y-69960000D01*
X97040000Y-69956928D01*
X96915518Y-69969188D01*
X96795820Y-70005498D01*
X96685506Y-70064463D01*
X96588815Y-70143815D01*
X96509463Y-70240506D01*
X96450498Y-70350820D01*
X96414188Y-70470518D01*
X96401928Y-70595000D01*
X82040000Y-70595000D01*
X82040000Y-66111983D01*
X82131426Y-66149853D01*
X82408665Y-66205000D01*
X82691335Y-66205000D01*
X82968574Y-66149853D01*
X83229727Y-66041680D01*
X83464759Y-65884637D01*
X83664637Y-65684759D01*
X83820000Y-65452241D01*
X83975363Y-65684759D01*
X84175241Y-65884637D01*
X84410273Y-66041680D01*
X84671426Y-66149853D01*
X84948665Y-66205000D01*
X85231335Y-66205000D01*
X85508574Y-66149853D01*
X85769727Y-66041680D01*
X86004759Y-65884637D01*
X86204637Y-65684759D01*
X86360000Y-65452241D01*
X86515363Y-65684759D01*
X86715241Y-65884637D01*
X86950273Y-66041680D01*
X87211426Y-66149853D01*
X87488665Y-66205000D01*
X87771335Y-66205000D01*
X88048574Y-66149853D01*
X88309727Y-66041680D01*
X88544759Y-65884637D01*
X88744637Y-65684759D01*
X88900000Y-65452241D01*
X89055363Y-65684759D01*
X89255241Y-65884637D01*
X89490273Y-66041680D01*
X89751426Y-66149853D01*
X90028665Y-66205000D01*
X90311335Y-66205000D01*
X90588574Y-66149853D01*
X90849727Y-66041680D01*
X91084759Y-65884637D01*
X91284637Y-65684759D01*
X91440000Y-65452241D01*
X91595363Y-65684759D01*
X91795241Y-65884637D01*
X92030273Y-66041680D01*
X92291426Y-66149853D01*
X92568665Y-66205000D01*
X92851335Y-66205000D01*
X93128574Y-66149853D01*
X93389727Y-66041680D01*
X93624759Y-65884637D01*
X93824637Y-65684759D01*
X93980000Y-65452241D01*
X94135363Y-65684759D01*
X94335241Y-65884637D01*
X94570273Y-66041680D01*
X94831426Y-66149853D01*
X95108665Y-66205000D01*
X95391335Y-66205000D01*
X95668574Y-66149853D01*
X95929727Y-66041680D01*
X96164759Y-65884637D01*
X96364637Y-65684759D01*
X96520000Y-65452241D01*
X96675363Y-65684759D01*
X96875241Y-65884637D01*
X97110273Y-66041680D01*
X97371426Y-66149853D01*
X97648665Y-66205000D01*
X97931335Y-66205000D01*
X98208574Y-66149853D01*
X98469727Y-66041680D01*
X98704759Y-65884637D01*
X98904637Y-65684759D01*
X99060000Y-65452241D01*
X99215363Y-65684759D01*
X99415241Y-65884637D01*
X99650273Y-66041680D01*
X99911426Y-66149853D01*
X100188665Y-66205000D01*
X100471335Y-66205000D01*
X100748574Y-66149853D01*
X101009727Y-66041680D01*
X101244759Y-65884637D01*
X101444637Y-65684759D01*
X101600000Y-65452241D01*
X101755363Y-65684759D01*
X101955241Y-65884637D01*
X102190273Y-66041680D01*
X102451426Y-66149853D01*
X102728665Y-66205000D01*
X103011335Y-66205000D01*
X103288574Y-66149853D01*
X103549727Y-66041680D01*
X103784759Y-65884637D01*
X103984637Y-65684759D01*
X104140000Y-65452241D01*
X104295363Y-65684759D01*
X104495241Y-65884637D01*
X104730273Y-66041680D01*
X104991426Y-66149853D01*
X105268665Y-66205000D01*
X105551335Y-66205000D01*
X105828574Y-66149853D01*
X106089727Y-66041680D01*
X106324759Y-65884637D01*
X106524637Y-65684759D01*
X106680000Y-65452241D01*
X106835363Y-65684759D01*
X107035241Y-65884637D01*
X107270273Y-66041680D01*
X107531426Y-66149853D01*
X107808665Y-66205000D01*
X108091335Y-66205000D01*
X108368574Y-66149853D01*
X108629727Y-66041680D01*
X108864759Y-65884637D01*
X109064637Y-65684759D01*
X109220000Y-65452241D01*
X109375363Y-65684759D01*
X109575241Y-65884637D01*
X109810273Y-66041680D01*
X110071426Y-66149853D01*
X110348665Y-66205000D01*
X110631335Y-66205000D01*
X110908574Y-66149853D01*
X111169727Y-66041680D01*
X111404759Y-65884637D01*
X111604637Y-65684759D01*
X111760000Y-65452241D01*
X111915363Y-65684759D01*
X112115241Y-65884637D01*
X112350273Y-66041680D01*
X112611426Y-66149853D01*
X112888665Y-66205000D01*
X113171335Y-66205000D01*
X113448574Y-66149853D01*
X113709727Y-66041680D01*
X113944759Y-65884637D01*
X114066694Y-65762702D01*
X114756903Y-65762702D01*
X114828486Y-66006671D01*
X115083996Y-66127571D01*
X115358184Y-66196300D01*
X115640512Y-66210217D01*
X115920130Y-66168787D01*
X116186292Y-66073603D01*
X116311514Y-66006671D01*
X116383097Y-65762702D01*
X115570000Y-64949605D01*
X114756903Y-65762702D01*
X114066694Y-65762702D01*
X114144637Y-65684759D01*
X114300915Y-65450872D01*
X114333329Y-65511514D01*
X114577298Y-65583097D01*
X115390395Y-64770000D01*
X114577298Y-63956903D01*
X114333329Y-64028486D01*
X114302806Y-64092992D01*
X114301680Y-64090273D01*
X114144637Y-63855241D01*
X114066694Y-63777298D01*
X114756903Y-63777298D01*
X115570000Y-64590395D01*
X116383097Y-63777298D01*
X116311514Y-63533329D01*
X116056004Y-63412429D01*
X115781816Y-63343700D01*
X115499488Y-63329783D01*
X115219870Y-63371213D01*
X114953708Y-63466397D01*
X114828486Y-63533329D01*
X114756903Y-63777298D01*
X114066694Y-63777298D01*
X113944759Y-63655363D01*
X113709727Y-63498320D01*
X113448574Y-63390147D01*
X113171335Y-63335000D01*
X112888665Y-63335000D01*
X112611426Y-63390147D01*
X112350273Y-63498320D01*
X112115241Y-63655363D01*
X111915363Y-63855241D01*
X111760000Y-64087759D01*
X111604637Y-63855241D01*
X111404759Y-63655363D01*
X111169727Y-63498320D01*
X110908574Y-63390147D01*
X110631335Y-63335000D01*
X110348665Y-63335000D01*
X110071426Y-63390147D01*
X109810273Y-63498320D01*
X109575241Y-63655363D01*
X109375363Y-63855241D01*
X109220000Y-64087759D01*
X109064637Y-63855241D01*
X108864759Y-63655363D01*
X108629727Y-63498320D01*
X108368574Y-63390147D01*
X108091335Y-63335000D01*
X107808665Y-63335000D01*
X107531426Y-63390147D01*
X107270273Y-63498320D01*
X107035241Y-63655363D01*
X106835363Y-63855241D01*
X106680000Y-64087759D01*
X106524637Y-63855241D01*
X106324759Y-63655363D01*
X106089727Y-63498320D01*
X105828574Y-63390147D01*
X105551335Y-63335000D01*
X105268665Y-63335000D01*
X104991426Y-63390147D01*
X104730273Y-63498320D01*
X104495241Y-63655363D01*
X104295363Y-63855241D01*
X104140000Y-64087759D01*
X103984637Y-63855241D01*
X103784759Y-63655363D01*
X103549727Y-63498320D01*
X103288574Y-63390147D01*
X103011335Y-63335000D01*
X102728665Y-63335000D01*
X102451426Y-63390147D01*
X102190273Y-63498320D01*
X101955241Y-63655363D01*
X101755363Y-63855241D01*
X101600000Y-64087759D01*
X101444637Y-63855241D01*
X101244759Y-63655363D01*
X101009727Y-63498320D01*
X100748574Y-63390147D01*
X100471335Y-63335000D01*
X100188665Y-63335000D01*
X99911426Y-63390147D01*
X99650273Y-63498320D01*
X99415241Y-63655363D01*
X99215363Y-63855241D01*
X99060000Y-64087759D01*
X98904637Y-63855241D01*
X98704759Y-63655363D01*
X98469727Y-63498320D01*
X98208574Y-63390147D01*
X97931335Y-63335000D01*
X97648665Y-63335000D01*
X97371426Y-63390147D01*
X97110273Y-63498320D01*
X96875241Y-63655363D01*
X96675363Y-63855241D01*
X96520000Y-64087759D01*
X96364637Y-63855241D01*
X96164759Y-63655363D01*
X95929727Y-63498320D01*
X95668574Y-63390147D01*
X95391335Y-63335000D01*
X95108665Y-63335000D01*
X94831426Y-63390147D01*
X94570273Y-63498320D01*
X94335241Y-63655363D01*
X94135363Y-63855241D01*
X93980000Y-64087759D01*
X93824637Y-63855241D01*
X93624759Y-63655363D01*
X93389727Y-63498320D01*
X93128574Y-63390147D01*
X92851335Y-63335000D01*
X92568665Y-63335000D01*
X92291426Y-63390147D01*
X92030273Y-63498320D01*
X91795241Y-63655363D01*
X91595363Y-63855241D01*
X91440000Y-64087759D01*
X91284637Y-63855241D01*
X91084759Y-63655363D01*
X90849727Y-63498320D01*
X90588574Y-63390147D01*
X90311335Y-63335000D01*
X90028665Y-63335000D01*
X89751426Y-63390147D01*
X89490273Y-63498320D01*
X89255241Y-63655363D01*
X89055363Y-63855241D01*
X88900000Y-64087759D01*
X88744637Y-63855241D01*
X88544759Y-63655363D01*
X88309727Y-63498320D01*
X88048574Y-63390147D01*
X87771335Y-63335000D01*
X87488665Y-63335000D01*
X87211426Y-63390147D01*
X86950273Y-63498320D01*
X86715241Y-63655363D01*
X86515363Y-63855241D01*
X86360000Y-64087759D01*
X86204637Y-63855241D01*
X86004759Y-63655363D01*
X85769727Y-63498320D01*
X85508574Y-63390147D01*
X85231335Y-63335000D01*
X84948665Y-63335000D01*
X84671426Y-63390147D01*
X84410273Y-63498320D01*
X84175241Y-63655363D01*
X83975363Y-63855241D01*
X83820000Y-64087759D01*
X83664637Y-63855241D01*
X83464759Y-63655363D01*
X83229727Y-63498320D01*
X82968574Y-63390147D01*
X82691335Y-63335000D01*
X82408665Y-63335000D01*
X82131426Y-63390147D01*
X82040000Y-63428017D01*
X82040000Y-61274801D01*
X82224094Y-61090708D01*
X82268691Y-61104236D01*
X82479508Y-61125000D01*
X82620492Y-61125000D01*
X82831309Y-61104236D01*
X83101808Y-61022182D01*
X83351101Y-60888932D01*
X83569608Y-60709608D01*
X83748932Y-60491101D01*
X83820000Y-60358142D01*
X83891068Y-60491101D01*
X84070392Y-60709608D01*
X84288899Y-60888932D01*
X84538192Y-61022182D01*
X84808691Y-61104236D01*
X85019508Y-61125000D01*
X85160492Y-61125000D01*
X85371309Y-61104236D01*
X85641808Y-61022182D01*
X85891101Y-60888932D01*
X86109608Y-60709608D01*
X86288932Y-60491101D01*
X86360000Y-60358142D01*
X86431068Y-60491101D01*
X86610392Y-60709608D01*
X86828899Y-60888932D01*
X87078192Y-61022182D01*
X87348691Y-61104236D01*
X87559508Y-61125000D01*
X87700492Y-61125000D01*
X87911309Y-61104236D01*
X88181808Y-61022182D01*
X88431101Y-60888932D01*
X88649608Y-60709608D01*
X88828932Y-60491101D01*
X88902579Y-60353318D01*
X89017615Y-60545131D01*
X89206586Y-60753519D01*
X89432580Y-60921037D01*
X89686913Y-61041246D01*
X89820961Y-61081904D01*
X90043000Y-60959915D01*
X90043000Y-59817000D01*
X90023000Y-59817000D01*
X90023000Y-59563000D01*
X90043000Y-59563000D01*
X90043000Y-58420085D01*
X90297000Y-58420085D01*
X90297000Y-59563000D01*
X90317000Y-59563000D01*
X90317000Y-59817000D01*
X90297000Y-59817000D01*
X90297000Y-60959915D01*
X90519039Y-61081904D01*
X90653087Y-61041246D01*
X90907420Y-60921037D01*
X91133414Y-60753519D01*
X91281769Y-60589920D01*
X91284188Y-60614482D01*
X91320498Y-60734180D01*
X91379463Y-60844494D01*
X91458815Y-60941185D01*
X91555506Y-61020537D01*
X91665820Y-61079502D01*
X91785518Y-61115812D01*
X91910000Y-61128072D01*
X93510000Y-61128072D01*
X93634482Y-61115812D01*
X93754180Y-61079502D01*
X93864494Y-61020537D01*
X93961185Y-60941185D01*
X94040537Y-60844494D01*
X94099502Y-60734180D01*
X94135812Y-60614482D01*
X94148072Y-60490000D01*
X94148072Y-59201098D01*
X97945000Y-59201098D01*
X97945000Y-59670902D01*
X98036654Y-60131679D01*
X98216440Y-60565721D01*
X98477450Y-60956349D01*
X98809651Y-61288550D01*
X99200279Y-61549560D01*
X99634321Y-61729346D01*
X100095098Y-61821000D01*
X100564902Y-61821000D01*
X101025679Y-61729346D01*
X101459721Y-61549560D01*
X101850349Y-61288550D01*
X102182550Y-60956349D01*
X102443560Y-60565721D01*
X102623346Y-60131679D01*
X102715000Y-59670902D01*
X102715000Y-59201098D01*
X102623346Y-58740321D01*
X102443560Y-58306279D01*
X102182550Y-57915651D01*
X101850349Y-57583450D01*
X101459721Y-57322440D01*
X101025679Y-57142654D01*
X100564902Y-57051000D01*
X100095098Y-57051000D01*
X99634321Y-57142654D01*
X99200279Y-57322440D01*
X98809651Y-57583450D01*
X98477450Y-57915651D01*
X98216440Y-58306279D01*
X98036654Y-58740321D01*
X97945000Y-59201098D01*
X94148072Y-59201098D01*
X94148072Y-58890000D01*
X94135812Y-58765518D01*
X94099502Y-58645820D01*
X94040537Y-58535506D01*
X93961185Y-58438815D01*
X93864494Y-58359463D01*
X93754180Y-58300498D01*
X93634482Y-58264188D01*
X93510000Y-58251928D01*
X91910000Y-58251928D01*
X91785518Y-58264188D01*
X91665820Y-58300498D01*
X91555506Y-58359463D01*
X91458815Y-58438815D01*
X91379463Y-58535506D01*
X91320498Y-58645820D01*
X91284188Y-58765518D01*
X91281769Y-58790080D01*
X91133414Y-58626481D01*
X90907420Y-58458963D01*
X90653087Y-58338754D01*
X90519039Y-58298096D01*
X90297000Y-58420085D01*
X90043000Y-58420085D01*
X89820961Y-58298096D01*
X89686913Y-58338754D01*
X89432580Y-58458963D01*
X89206586Y-58626481D01*
X89017615Y-58834869D01*
X88902579Y-59026682D01*
X88828932Y-58888899D01*
X88649608Y-58670392D01*
X88431101Y-58491068D01*
X88181808Y-58357818D01*
X87911309Y-58275764D01*
X87700492Y-58255000D01*
X87559508Y-58255000D01*
X87348691Y-58275764D01*
X87078192Y-58357818D01*
X86828899Y-58491068D01*
X86610392Y-58670392D01*
X86431068Y-58888899D01*
X86360000Y-59021858D01*
X86288932Y-58888899D01*
X86109608Y-58670392D01*
X85891101Y-58491068D01*
X85641808Y-58357818D01*
X85371309Y-58275764D01*
X85160492Y-58255000D01*
X85019508Y-58255000D01*
X84808691Y-58275764D01*
X84538192Y-58357818D01*
X84288899Y-58491068D01*
X84070392Y-58670392D01*
X83891068Y-58888899D01*
X83820000Y-59021858D01*
X83748932Y-58888899D01*
X83569608Y-58670392D01*
X83351101Y-58491068D01*
X83101808Y-58357818D01*
X82831309Y-58275764D01*
X82620492Y-58255000D01*
X82479508Y-58255000D01*
X82268691Y-58275764D01*
X81998192Y-58357818D01*
X81748899Y-58491068D01*
X81530392Y-58670392D01*
X81351068Y-58888899D01*
X81280000Y-59021858D01*
X81208932Y-58888899D01*
X81029608Y-58670392D01*
X80811101Y-58491068D01*
X80561808Y-58357818D01*
X80291309Y-58275764D01*
X80080492Y-58255000D01*
X79939508Y-58255000D01*
X79728691Y-58275764D01*
X79458192Y-58357818D01*
X79208899Y-58491068D01*
X78990392Y-58670392D01*
X78811068Y-58888899D01*
X78677818Y-59138192D01*
X78595764Y-59408691D01*
X78568057Y-59690000D01*
X78595764Y-59971309D01*
X78677818Y-60241808D01*
X78811068Y-60491101D01*
X78990392Y-60709608D01*
X79208899Y-60888932D01*
X79458192Y-61022182D01*
X79728691Y-61104236D01*
X79939508Y-61125000D01*
X80080492Y-61125000D01*
X80291309Y-61104236D01*
X80520000Y-61034864D01*
X80520000Y-63428017D01*
X80428574Y-63390147D01*
X80151335Y-63335000D01*
X79868665Y-63335000D01*
X79591426Y-63390147D01*
X79330273Y-63498320D01*
X79095241Y-63655363D01*
X78895363Y-63855241D01*
X78738320Y-64090273D01*
X78630147Y-64351426D01*
X78575000Y-64628665D01*
X78575000Y-64911335D01*
X78630147Y-65188574D01*
X78738320Y-65449727D01*
X78895363Y-65684759D01*
X79095241Y-65884637D01*
X79330273Y-66041680D01*
X79591426Y-66149853D01*
X79868665Y-66205000D01*
X80151335Y-66205000D01*
X80428574Y-66149853D01*
X80520000Y-66111983D01*
X80520001Y-74892668D01*
X80516324Y-74930000D01*
X80530998Y-75078985D01*
X80574454Y-75222246D01*
X80645026Y-75354276D01*
X80716201Y-75441002D01*
X80740000Y-75470001D01*
X80768998Y-75493799D01*
X83891200Y-78616002D01*
X83914999Y-78645001D01*
X83943997Y-78668799D01*
X84030723Y-78739974D01*
X84162753Y-78810546D01*
X84258645Y-78839634D01*
X84175241Y-78895363D01*
X83975363Y-79095241D01*
X83820000Y-79327759D01*
X83664637Y-79095241D01*
X83464759Y-78895363D01*
X83229727Y-78738320D01*
X82968574Y-78630147D01*
X82691335Y-78575000D01*
X82408665Y-78575000D01*
X82131426Y-78630147D01*
X81870273Y-78738320D01*
X81635241Y-78895363D01*
X81436643Y-79093961D01*
X81435812Y-79085518D01*
X81399502Y-78965820D01*
X81340537Y-78855506D01*
X81261185Y-78758815D01*
X81164494Y-78679463D01*
X81054180Y-78620498D01*
X80934482Y-78584188D01*
X80810000Y-78571928D01*
X80295750Y-78575000D01*
X80137000Y-78733750D01*
X80137000Y-79883000D01*
X80157000Y-79883000D01*
X80157000Y-80137000D01*
X80137000Y-80137000D01*
X80137000Y-81286250D01*
X80295750Y-81445000D01*
X80810000Y-81448072D01*
X80934482Y-81435812D01*
X81054180Y-81399502D01*
X81164494Y-81340537D01*
X81261185Y-81261185D01*
X81340537Y-81164494D01*
X81399502Y-81054180D01*
X81435812Y-80934482D01*
X81436643Y-80926039D01*
X81635241Y-81124637D01*
X81870273Y-81281680D01*
X82131426Y-81389853D01*
X82408665Y-81445000D01*
X82691335Y-81445000D01*
X82968574Y-81389853D01*
X83229727Y-81281680D01*
X83464759Y-81124637D01*
X83664637Y-80924759D01*
X83820000Y-80692241D01*
X83975363Y-80924759D01*
X84175241Y-81124637D01*
X84410273Y-81281680D01*
X84671426Y-81389853D01*
X84948665Y-81445000D01*
X85231335Y-81445000D01*
X85508574Y-81389853D01*
X85769727Y-81281680D01*
X86004759Y-81124637D01*
X86204637Y-80924759D01*
X86360000Y-80692241D01*
X86515363Y-80924759D01*
X86715241Y-81124637D01*
X86950273Y-81281680D01*
X87211426Y-81389853D01*
X87488665Y-81445000D01*
X87771335Y-81445000D01*
X88048574Y-81389853D01*
X88309727Y-81281680D01*
X88544759Y-81124637D01*
X88744637Y-80924759D01*
X88900000Y-80692241D01*
X89055363Y-80924759D01*
X89255241Y-81124637D01*
X89490273Y-81281680D01*
X89751426Y-81389853D01*
X90028665Y-81445000D01*
X90311335Y-81445000D01*
X90588574Y-81389853D01*
X90849727Y-81281680D01*
X91084759Y-81124637D01*
X91284637Y-80924759D01*
X91440000Y-80692241D01*
X91595363Y-80924759D01*
X91795241Y-81124637D01*
X92030273Y-81281680D01*
X92291426Y-81389853D01*
X92568665Y-81445000D01*
X92851335Y-81445000D01*
X93128574Y-81389853D01*
X93389727Y-81281680D01*
X93624759Y-81124637D01*
X93824637Y-80924759D01*
X93980000Y-80692241D01*
X94135363Y-80924759D01*
X94335241Y-81124637D01*
X94570273Y-81281680D01*
X94831426Y-81389853D01*
X95108665Y-81445000D01*
X95391335Y-81445000D01*
X95668574Y-81389853D01*
X95929727Y-81281680D01*
X96164759Y-81124637D01*
X96364637Y-80924759D01*
X96520000Y-80692241D01*
X96675363Y-80924759D01*
X96875241Y-81124637D01*
X97110273Y-81281680D01*
X97371426Y-81389853D01*
X97648665Y-81445000D01*
X97931335Y-81445000D01*
X98113886Y-81408688D01*
X99131200Y-82426002D01*
X99154999Y-82455001D01*
X99270724Y-82549974D01*
X99402753Y-82620546D01*
X99495320Y-82648625D01*
X99310392Y-82800392D01*
X99131068Y-83018899D01*
X99060000Y-83151858D01*
X98988932Y-83018899D01*
X98809608Y-82800392D01*
X98591101Y-82621068D01*
X98341808Y-82487818D01*
X98071309Y-82405764D01*
X97860492Y-82385000D01*
X97719508Y-82385000D01*
X97508691Y-82405764D01*
X97238192Y-82487818D01*
X96988899Y-82621068D01*
X96770392Y-82800392D01*
X96591068Y-83018899D01*
X96517421Y-83156682D01*
X96402385Y-82964869D01*
X96213414Y-82756481D01*
X95987420Y-82588963D01*
X95733087Y-82468754D01*
X95599039Y-82428096D01*
X95377000Y-82550085D01*
X95377000Y-83693000D01*
X95397000Y-83693000D01*
X95397000Y-83947000D01*
X95377000Y-83947000D01*
X95377000Y-85089915D01*
X95599039Y-85211904D01*
X95733087Y-85171246D01*
X95987420Y-85051037D01*
X96213414Y-84883519D01*
X96402385Y-84675131D01*
X96517421Y-84483318D01*
X96591068Y-84621101D01*
X96770392Y-84839608D01*
X96988899Y-85018932D01*
X97238192Y-85152182D01*
X97508691Y-85234236D01*
X97719508Y-85255000D01*
X97860492Y-85255000D01*
X98071309Y-85234236D01*
X98341808Y-85152182D01*
X98591101Y-85018932D01*
X98809608Y-84839608D01*
X98988932Y-84621101D01*
X99060000Y-84488142D01*
X99131068Y-84621101D01*
X99310392Y-84839608D01*
X99528899Y-85018932D01*
X99778192Y-85152182D01*
X100048691Y-85234236D01*
X100259508Y-85255000D01*
X100400492Y-85255000D01*
X100611309Y-85234236D01*
X100881808Y-85152182D01*
X101131101Y-85018932D01*
X101349608Y-84839608D01*
X101528932Y-84621101D01*
X101600000Y-84488142D01*
X101671068Y-84621101D01*
X101850392Y-84839608D01*
X102068899Y-85018932D01*
X102318192Y-85152182D01*
X102588691Y-85234236D01*
X102799508Y-85255000D01*
X102940492Y-85255000D01*
X103151309Y-85234236D01*
X103421808Y-85152182D01*
X103671101Y-85018932D01*
X103889608Y-84839608D01*
X104068932Y-84621101D01*
X104140000Y-84488142D01*
X104211068Y-84621101D01*
X104390392Y-84839608D01*
X104608899Y-85018932D01*
X104858192Y-85152182D01*
X105128691Y-85234236D01*
X105339508Y-85255000D01*
X105480492Y-85255000D01*
X105691309Y-85234236D01*
X105961808Y-85152182D01*
X106211101Y-85018932D01*
X106429608Y-84839608D01*
X106608932Y-84621101D01*
X106680000Y-84488142D01*
X106751068Y-84621101D01*
X106930392Y-84839608D01*
X107148899Y-85018932D01*
X107398192Y-85152182D01*
X107668691Y-85234236D01*
X107879508Y-85255000D01*
X108020492Y-85255000D01*
X108231309Y-85234236D01*
X108501808Y-85152182D01*
X108751101Y-85018932D01*
X108969608Y-84839608D01*
X109148932Y-84621101D01*
X109220000Y-84488142D01*
X109291068Y-84621101D01*
X109470392Y-84839608D01*
X109688899Y-85018932D01*
X109938192Y-85152182D01*
X110208691Y-85234236D01*
X110419508Y-85255000D01*
X110560492Y-85255000D01*
X110771309Y-85234236D01*
X111041808Y-85152182D01*
X111291101Y-85018932D01*
X111509608Y-84839608D01*
X111688932Y-84621101D01*
X111760000Y-84488142D01*
X111831068Y-84621101D01*
X112010392Y-84839608D01*
X112228899Y-85018932D01*
X112478192Y-85152182D01*
X112748691Y-85234236D01*
X112959508Y-85255000D01*
X113100492Y-85255000D01*
X113311309Y-85234236D01*
X113581808Y-85152182D01*
X113831101Y-85018932D01*
X114049608Y-84839608D01*
X114228932Y-84621101D01*
X114300000Y-84488142D01*
X114371068Y-84621101D01*
X114550392Y-84839608D01*
X114768899Y-85018932D01*
X115018192Y-85152182D01*
X115288691Y-85234236D01*
X115499508Y-85255000D01*
X115640492Y-85255000D01*
X115851309Y-85234236D01*
X116121808Y-85152182D01*
X116371101Y-85018932D01*
X116589608Y-84839608D01*
X116682419Y-84726518D01*
X116684188Y-84744482D01*
X116720498Y-84864180D01*
X116779463Y-84974494D01*
X116858815Y-85071185D01*
X116955506Y-85150537D01*
X117065820Y-85209502D01*
X117185518Y-85245812D01*
X117310000Y-85258072D01*
X117824250Y-85255000D01*
X117983000Y-85096250D01*
X117983000Y-83947000D01*
X118237000Y-83947000D01*
X118237000Y-85096250D01*
X118395750Y-85255000D01*
X118910000Y-85258072D01*
X119034482Y-85245812D01*
X119154180Y-85209502D01*
X119264494Y-85150537D01*
X119361185Y-85071185D01*
X119440537Y-84974494D01*
X119499502Y-84864180D01*
X119535812Y-84744482D01*
X119548072Y-84620000D01*
X119545000Y-84105750D01*
X119386250Y-83947000D01*
X118237000Y-83947000D01*
X117983000Y-83947000D01*
X117963000Y-83947000D01*
X117963000Y-83693000D01*
X117983000Y-83693000D01*
X117983000Y-82543750D01*
X118237000Y-82543750D01*
X118237000Y-83693000D01*
X119386250Y-83693000D01*
X119545000Y-83534250D01*
X119548072Y-83020000D01*
X119535812Y-82895518D01*
X119499502Y-82775820D01*
X119440537Y-82665506D01*
X119361185Y-82568815D01*
X119264494Y-82489463D01*
X119154180Y-82430498D01*
X119034482Y-82394188D01*
X118910000Y-82381928D01*
X118395750Y-82385000D01*
X118237000Y-82543750D01*
X117983000Y-82543750D01*
X117824250Y-82385000D01*
X117310000Y-82381928D01*
X117185518Y-82394188D01*
X117065820Y-82430498D01*
X116955506Y-82489463D01*
X116858815Y-82568815D01*
X116779463Y-82665506D01*
X116720498Y-82775820D01*
X116684188Y-82895518D01*
X116682419Y-82913482D01*
X116589608Y-82800392D01*
X116371101Y-82621068D01*
X116121808Y-82487818D01*
X115851309Y-82405764D01*
X115640492Y-82385000D01*
X115499508Y-82385000D01*
X115288691Y-82405764D01*
X115018192Y-82487818D01*
X114768899Y-82621068D01*
X114550392Y-82800392D01*
X114371068Y-83018899D01*
X114300000Y-83151858D01*
X114228932Y-83018899D01*
X114049608Y-82800392D01*
X113831101Y-82621068D01*
X113581808Y-82487818D01*
X113311309Y-82405764D01*
X113100492Y-82385000D01*
X112959508Y-82385000D01*
X112748691Y-82405764D01*
X112478192Y-82487818D01*
X112228899Y-82621068D01*
X112010392Y-82800392D01*
X111831068Y-83018899D01*
X111760000Y-83151858D01*
X111688932Y-83018899D01*
X111509608Y-82800392D01*
X111291101Y-82621068D01*
X111041808Y-82487818D01*
X110771309Y-82405764D01*
X110560492Y-82385000D01*
X110419508Y-82385000D01*
X110208691Y-82405764D01*
X110164094Y-82419292D01*
X109148804Y-81404003D01*
X109125001Y-81374999D01*
X109009276Y-81280026D01*
X108877247Y-81209454D01*
X108781355Y-81180366D01*
X108864759Y-81124637D01*
X109064637Y-80924759D01*
X109220000Y-80692241D01*
X109375363Y-80924759D01*
X109575241Y-81124637D01*
X109810273Y-81281680D01*
X110071426Y-81389853D01*
X110348665Y-81445000D01*
X110631335Y-81445000D01*
X110908574Y-81389853D01*
X111169727Y-81281680D01*
X111404759Y-81124637D01*
X111604637Y-80924759D01*
X111760000Y-80692241D01*
X111915363Y-80924759D01*
X112115241Y-81124637D01*
X112350273Y-81281680D01*
X112611426Y-81389853D01*
X112888665Y-81445000D01*
X113171335Y-81445000D01*
X113448574Y-81389853D01*
X113709727Y-81281680D01*
X113944759Y-81124637D01*
X114144637Y-80924759D01*
X114300000Y-80692241D01*
X114455363Y-80924759D01*
X114655241Y-81124637D01*
X114890273Y-81281680D01*
X115151426Y-81389853D01*
X115428665Y-81445000D01*
X115711335Y-81445000D01*
X115988574Y-81389853D01*
X116249727Y-81281680D01*
X116484759Y-81124637D01*
X116684637Y-80924759D01*
X116840000Y-80692241D01*
X116995363Y-80924759D01*
X117195241Y-81124637D01*
X117430273Y-81281680D01*
X117691426Y-81389853D01*
X117968665Y-81445000D01*
X118251335Y-81445000D01*
X118528574Y-81389853D01*
X118789727Y-81281680D01*
X119024759Y-81124637D01*
X119224637Y-80924759D01*
X119380000Y-80692241D01*
X119535363Y-80924759D01*
X119735241Y-81124637D01*
X119970273Y-81281680D01*
X120231426Y-81389853D01*
X120508665Y-81445000D01*
X120791335Y-81445000D01*
X121068574Y-81389853D01*
X121329727Y-81281680D01*
X121564759Y-81124637D01*
X121764637Y-80924759D01*
X121920000Y-80692241D01*
X122075363Y-80924759D01*
X122275241Y-81124637D01*
X122510273Y-81281680D01*
X122771426Y-81389853D01*
X123048665Y-81445000D01*
X123331335Y-81445000D01*
X123608574Y-81389853D01*
X123869727Y-81281680D01*
X124104759Y-81124637D01*
X124304637Y-80924759D01*
X124460000Y-80692241D01*
X124615363Y-80924759D01*
X124815241Y-81124637D01*
X125050273Y-81281680D01*
X125311426Y-81389853D01*
X125588665Y-81445000D01*
X125871335Y-81445000D01*
X126148574Y-81389853D01*
X126409727Y-81281680D01*
X126644759Y-81124637D01*
X126844637Y-80924759D01*
X127000000Y-80692241D01*
X127155363Y-80924759D01*
X127355241Y-81124637D01*
X127590273Y-81281680D01*
X127851426Y-81389853D01*
X128128665Y-81445000D01*
X128411335Y-81445000D01*
X128688574Y-81389853D01*
X128880001Y-81310562D01*
X128880001Y-100940000D01*
X76860000Y-100940000D01*
X76860000Y-97555098D01*
X77625000Y-97555098D01*
X77625000Y-98024902D01*
X77716654Y-98485679D01*
X77896440Y-98919721D01*
X78157450Y-99310349D01*
X78489651Y-99642550D01*
X78880279Y-99903560D01*
X79314321Y-100083346D01*
X79775098Y-100175000D01*
X80244902Y-100175000D01*
X80705679Y-100083346D01*
X81139721Y-99903560D01*
X81530349Y-99642550D01*
X81862550Y-99310349D01*
X82123560Y-98919721D01*
X82303346Y-98485679D01*
X82395000Y-98024902D01*
X82395000Y-97555098D01*
X82303346Y-97094321D01*
X82123560Y-96660279D01*
X82029829Y-96520000D01*
X92474149Y-96520000D01*
X92503084Y-96813777D01*
X92588775Y-97096264D01*
X92727931Y-97356606D01*
X92915203Y-97584797D01*
X93143394Y-97772069D01*
X93176940Y-97790000D01*
X93143394Y-97807931D01*
X92915203Y-97995203D01*
X92727931Y-98223394D01*
X92588775Y-98483736D01*
X92503084Y-98766223D01*
X92474149Y-99060000D01*
X92503084Y-99353777D01*
X92588775Y-99636264D01*
X92727931Y-99896606D01*
X92915203Y-100124797D01*
X93143394Y-100312069D01*
X93403736Y-100451225D01*
X93686223Y-100536916D01*
X93906381Y-100558600D01*
X94053619Y-100558600D01*
X94273777Y-100536916D01*
X94556264Y-100451225D01*
X94816606Y-100312069D01*
X95044797Y-100124797D01*
X95232069Y-99896606D01*
X95255863Y-99852090D01*
X95313183Y-99948488D01*
X95509707Y-100166854D01*
X95745056Y-100342684D01*
X96010186Y-100469222D01*
X96160974Y-100514958D01*
X96393000Y-100393817D01*
X96393000Y-99187000D01*
X96647000Y-99187000D01*
X96647000Y-100393817D01*
X96879026Y-100514958D01*
X97029814Y-100469222D01*
X97294944Y-100342684D01*
X97530293Y-100166854D01*
X97726817Y-99948488D01*
X97790000Y-99842230D01*
X97853183Y-99948488D01*
X98049707Y-100166854D01*
X98285056Y-100342684D01*
X98550186Y-100469222D01*
X98700974Y-100514958D01*
X98933000Y-100393817D01*
X98933000Y-99187000D01*
X99187000Y-99187000D01*
X99187000Y-100393817D01*
X99419026Y-100514958D01*
X99569814Y-100469222D01*
X99834944Y-100342684D01*
X100070293Y-100166854D01*
X100266817Y-99948488D01*
X100330000Y-99842230D01*
X100393183Y-99948488D01*
X100589707Y-100166854D01*
X100825056Y-100342684D01*
X101090186Y-100469222D01*
X101240974Y-100514958D01*
X101473000Y-100393817D01*
X101473000Y-99187000D01*
X101727000Y-99187000D01*
X101727000Y-100393817D01*
X101959026Y-100514958D01*
X102109814Y-100469222D01*
X102374944Y-100342684D01*
X102610293Y-100166854D01*
X102806817Y-99948488D01*
X102870000Y-99842230D01*
X102933183Y-99948488D01*
X103129707Y-100166854D01*
X103365056Y-100342684D01*
X103630186Y-100469222D01*
X103780974Y-100514958D01*
X104013000Y-100393817D01*
X104013000Y-99187000D01*
X104267000Y-99187000D01*
X104267000Y-100393817D01*
X104499026Y-100514958D01*
X104649814Y-100469222D01*
X104914944Y-100342684D01*
X105150293Y-100166854D01*
X105346817Y-99948488D01*
X105410000Y-99842230D01*
X105473183Y-99948488D01*
X105669707Y-100166854D01*
X105905056Y-100342684D01*
X106170186Y-100469222D01*
X106320974Y-100514958D01*
X106553000Y-100393817D01*
X106553000Y-99187000D01*
X106807000Y-99187000D01*
X106807000Y-100393817D01*
X107039026Y-100514958D01*
X107189814Y-100469222D01*
X107454944Y-100342684D01*
X107690293Y-100166854D01*
X107886817Y-99948488D01*
X107950000Y-99842230D01*
X108013183Y-99948488D01*
X108209707Y-100166854D01*
X108445056Y-100342684D01*
X108710186Y-100469222D01*
X108860974Y-100514958D01*
X109093000Y-100393817D01*
X109093000Y-99187000D01*
X109347000Y-99187000D01*
X109347000Y-100393817D01*
X109579026Y-100514958D01*
X109729814Y-100469222D01*
X109994944Y-100342684D01*
X110230293Y-100166854D01*
X110426817Y-99948488D01*
X110490000Y-99842230D01*
X110553183Y-99948488D01*
X110749707Y-100166854D01*
X110985056Y-100342684D01*
X111250186Y-100469222D01*
X111400974Y-100514958D01*
X111633000Y-100393817D01*
X111633000Y-99187000D01*
X111887000Y-99187000D01*
X111887000Y-100393817D01*
X112119026Y-100514958D01*
X112269814Y-100469222D01*
X112534944Y-100342684D01*
X112770293Y-100166854D01*
X112966817Y-99948488D01*
X113030000Y-99842230D01*
X113093183Y-99948488D01*
X113289707Y-100166854D01*
X113525056Y-100342684D01*
X113790186Y-100469222D01*
X113940974Y-100514958D01*
X114173000Y-100393817D01*
X114173000Y-99187000D01*
X114427000Y-99187000D01*
X114427000Y-100393817D01*
X114659026Y-100514958D01*
X114809814Y-100469222D01*
X115074944Y-100342684D01*
X115310293Y-100166854D01*
X115506817Y-99948488D01*
X115570000Y-99842230D01*
X115633183Y-99948488D01*
X115829707Y-100166854D01*
X116065056Y-100342684D01*
X116330186Y-100469222D01*
X116480974Y-100514958D01*
X116713000Y-100393817D01*
X116713000Y-99187000D01*
X116967000Y-99187000D01*
X116967000Y-100393817D01*
X117199026Y-100514958D01*
X117349814Y-100469222D01*
X117614944Y-100342684D01*
X117850293Y-100166854D01*
X118046817Y-99948488D01*
X118110000Y-99842230D01*
X118173183Y-99948488D01*
X118369707Y-100166854D01*
X118605056Y-100342684D01*
X118870186Y-100469222D01*
X119020974Y-100514958D01*
X119253000Y-100393817D01*
X119253000Y-99187000D01*
X119507000Y-99187000D01*
X119507000Y-100393817D01*
X119739026Y-100514958D01*
X119889814Y-100469222D01*
X120154944Y-100342684D01*
X120390293Y-100166854D01*
X120586817Y-99948488D01*
X120650000Y-99842230D01*
X120713183Y-99948488D01*
X120909707Y-100166854D01*
X121145056Y-100342684D01*
X121410186Y-100469222D01*
X121560974Y-100514958D01*
X121793000Y-100393817D01*
X121793000Y-99187000D01*
X122047000Y-99187000D01*
X122047000Y-100393817D01*
X122279026Y-100514958D01*
X122429814Y-100469222D01*
X122694944Y-100342684D01*
X122930293Y-100166854D01*
X123126817Y-99948488D01*
X123190000Y-99842230D01*
X123253183Y-99948488D01*
X123449707Y-100166854D01*
X123685056Y-100342684D01*
X123950186Y-100469222D01*
X124100974Y-100514958D01*
X124333000Y-100393817D01*
X124333000Y-99187000D01*
X124587000Y-99187000D01*
X124587000Y-100393817D01*
X124819026Y-100514958D01*
X124969814Y-100469222D01*
X125234944Y-100342684D01*
X125470293Y-100166854D01*
X125666817Y-99948488D01*
X125816964Y-99695978D01*
X125914963Y-99419027D01*
X125794464Y-99187000D01*
X124587000Y-99187000D01*
X124333000Y-99187000D01*
X122047000Y-99187000D01*
X121793000Y-99187000D01*
X119507000Y-99187000D01*
X119253000Y-99187000D01*
X116967000Y-99187000D01*
X116713000Y-99187000D01*
X114427000Y-99187000D01*
X114173000Y-99187000D01*
X111887000Y-99187000D01*
X111633000Y-99187000D01*
X109347000Y-99187000D01*
X109093000Y-99187000D01*
X106807000Y-99187000D01*
X106553000Y-99187000D01*
X104267000Y-99187000D01*
X104013000Y-99187000D01*
X101727000Y-99187000D01*
X101473000Y-99187000D01*
X99187000Y-99187000D01*
X98933000Y-99187000D01*
X96647000Y-99187000D01*
X96393000Y-99187000D01*
X96373000Y-99187000D01*
X96373000Y-98933000D01*
X96393000Y-98933000D01*
X96393000Y-98913000D01*
X96647000Y-98913000D01*
X96647000Y-98933000D01*
X98933000Y-98933000D01*
X98933000Y-98913000D01*
X99187000Y-98913000D01*
X99187000Y-98933000D01*
X101473000Y-98933000D01*
X101473000Y-98913000D01*
X101727000Y-98913000D01*
X101727000Y-98933000D01*
X104013000Y-98933000D01*
X104013000Y-98913000D01*
X104267000Y-98913000D01*
X104267000Y-98933000D01*
X106553000Y-98933000D01*
X106553000Y-98913000D01*
X106807000Y-98913000D01*
X106807000Y-98933000D01*
X109093000Y-98933000D01*
X109093000Y-98913000D01*
X109347000Y-98913000D01*
X109347000Y-98933000D01*
X111633000Y-98933000D01*
X111633000Y-98913000D01*
X111887000Y-98913000D01*
X111887000Y-98933000D01*
X114173000Y-98933000D01*
X114173000Y-98913000D01*
X114427000Y-98913000D01*
X114427000Y-98933000D01*
X116713000Y-98933000D01*
X116713000Y-98913000D01*
X116967000Y-98913000D01*
X116967000Y-98933000D01*
X119253000Y-98933000D01*
X119253000Y-98913000D01*
X119507000Y-98913000D01*
X119507000Y-98933000D01*
X121793000Y-98933000D01*
X121793000Y-98913000D01*
X122047000Y-98913000D01*
X122047000Y-98933000D01*
X124333000Y-98933000D01*
X124333000Y-98913000D01*
X124587000Y-98913000D01*
X124587000Y-98933000D01*
X125794464Y-98933000D01*
X125914963Y-98700973D01*
X125816964Y-98424022D01*
X125666817Y-98171512D01*
X125505308Y-97992053D01*
X125567780Y-97973102D01*
X125678094Y-97914137D01*
X125774785Y-97834785D01*
X125854137Y-97738094D01*
X125913102Y-97627780D01*
X125949412Y-97508082D01*
X125961672Y-97383600D01*
X125961672Y-95656400D01*
X125949412Y-95531918D01*
X125913102Y-95412220D01*
X125854137Y-95301906D01*
X125774785Y-95205215D01*
X125678094Y-95125863D01*
X125567780Y-95066898D01*
X125448082Y-95030588D01*
X125323600Y-95018328D01*
X123596400Y-95018328D01*
X123471918Y-95030588D01*
X123352220Y-95066898D01*
X123241906Y-95125863D01*
X123145215Y-95205215D01*
X123065863Y-95301906D01*
X123006898Y-95412220D01*
X122991414Y-95463265D01*
X122984797Y-95455203D01*
X122756606Y-95267931D01*
X122496264Y-95128775D01*
X122213777Y-95043084D01*
X121993619Y-95021400D01*
X121846381Y-95021400D01*
X121626223Y-95043084D01*
X121343736Y-95128775D01*
X121083394Y-95267931D01*
X120855203Y-95455203D01*
X120667931Y-95683394D01*
X120650000Y-95716940D01*
X120632069Y-95683394D01*
X120444797Y-95455203D01*
X120216606Y-95267931D01*
X119956264Y-95128775D01*
X119673777Y-95043084D01*
X119453619Y-95021400D01*
X119306381Y-95021400D01*
X119086223Y-95043084D01*
X118803736Y-95128775D01*
X118543394Y-95267931D01*
X118315203Y-95455203D01*
X118127931Y-95683394D01*
X118110000Y-95716940D01*
X118092069Y-95683394D01*
X117904797Y-95455203D01*
X117676606Y-95267931D01*
X117416264Y-95128775D01*
X117133777Y-95043084D01*
X116913619Y-95021400D01*
X116766381Y-95021400D01*
X116546223Y-95043084D01*
X116263736Y-95128775D01*
X116003394Y-95267931D01*
X115775203Y-95455203D01*
X115587931Y-95683394D01*
X115570000Y-95716940D01*
X115552069Y-95683394D01*
X115364797Y-95455203D01*
X115136606Y-95267931D01*
X114876264Y-95128775D01*
X114593777Y-95043084D01*
X114373619Y-95021400D01*
X114226381Y-95021400D01*
X114006223Y-95043084D01*
X113723736Y-95128775D01*
X113463394Y-95267931D01*
X113235203Y-95455203D01*
X113047931Y-95683394D01*
X113030000Y-95716940D01*
X113012069Y-95683394D01*
X112824797Y-95455203D01*
X112596606Y-95267931D01*
X112336264Y-95128775D01*
X112053777Y-95043084D01*
X111833619Y-95021400D01*
X111686381Y-95021400D01*
X111466223Y-95043084D01*
X111183736Y-95128775D01*
X110923394Y-95267931D01*
X110695203Y-95455203D01*
X110507931Y-95683394D01*
X110490000Y-95716940D01*
X110472069Y-95683394D01*
X110284797Y-95455203D01*
X110056606Y-95267931D01*
X109796264Y-95128775D01*
X109513777Y-95043084D01*
X109293619Y-95021400D01*
X109146381Y-95021400D01*
X108926223Y-95043084D01*
X108643736Y-95128775D01*
X108383394Y-95267931D01*
X108155203Y-95455203D01*
X107967931Y-95683394D01*
X107950000Y-95716940D01*
X107932069Y-95683394D01*
X107744797Y-95455203D01*
X107516606Y-95267931D01*
X107256264Y-95128775D01*
X106973777Y-95043084D01*
X106753619Y-95021400D01*
X106606381Y-95021400D01*
X106386223Y-95043084D01*
X106103736Y-95128775D01*
X105843394Y-95267931D01*
X105615203Y-95455203D01*
X105427931Y-95683394D01*
X105410000Y-95716940D01*
X105392069Y-95683394D01*
X105204797Y-95455203D01*
X104976606Y-95267931D01*
X104716264Y-95128775D01*
X104433777Y-95043084D01*
X104213619Y-95021400D01*
X104066381Y-95021400D01*
X103846223Y-95043084D01*
X103563736Y-95128775D01*
X103303394Y-95267931D01*
X103075203Y-95455203D01*
X102887931Y-95683394D01*
X102870000Y-95716940D01*
X102852069Y-95683394D01*
X102664797Y-95455203D01*
X102436606Y-95267931D01*
X102176264Y-95128775D01*
X101893777Y-95043084D01*
X101673619Y-95021400D01*
X101526381Y-95021400D01*
X101306223Y-95043084D01*
X101023736Y-95128775D01*
X100763394Y-95267931D01*
X100535203Y-95455203D01*
X100347931Y-95683394D01*
X100330000Y-95716940D01*
X100312069Y-95683394D01*
X100124797Y-95455203D01*
X99896606Y-95267931D01*
X99636264Y-95128775D01*
X99353777Y-95043084D01*
X99133619Y-95021400D01*
X98986381Y-95021400D01*
X98766223Y-95043084D01*
X98483736Y-95128775D01*
X98223394Y-95267931D01*
X97995203Y-95455203D01*
X97807931Y-95683394D01*
X97790000Y-95716940D01*
X97772069Y-95683394D01*
X97584797Y-95455203D01*
X97356606Y-95267931D01*
X97096264Y-95128775D01*
X96813777Y-95043084D01*
X96593619Y-95021400D01*
X96446381Y-95021400D01*
X96226223Y-95043084D01*
X95943736Y-95128775D01*
X95683394Y-95267931D01*
X95455203Y-95455203D01*
X95267931Y-95683394D01*
X95250000Y-95716940D01*
X95232069Y-95683394D01*
X95044797Y-95455203D01*
X94816606Y-95267931D01*
X94556264Y-95128775D01*
X94273777Y-95043084D01*
X94053619Y-95021400D01*
X93906381Y-95021400D01*
X93686223Y-95043084D01*
X93403736Y-95128775D01*
X93143394Y-95267931D01*
X92915203Y-95455203D01*
X92727931Y-95683394D01*
X92588775Y-95943736D01*
X92503084Y-96226223D01*
X92474149Y-96520000D01*
X82029829Y-96520000D01*
X81862550Y-96269651D01*
X81530349Y-95937450D01*
X81139721Y-95676440D01*
X80705679Y-95496654D01*
X80244902Y-95405000D01*
X79775098Y-95405000D01*
X79314321Y-95496654D01*
X78880279Y-95676440D01*
X78489651Y-95937450D01*
X78157450Y-96269651D01*
X77896440Y-96660279D01*
X77716654Y-97094321D01*
X77625000Y-97555098D01*
X76860000Y-97555098D01*
X76860000Y-91081890D01*
X77173524Y-91081890D01*
X77265648Y-91344858D01*
X77412504Y-91596193D01*
X77605571Y-91814049D01*
X77837430Y-91990053D01*
X78099170Y-92117442D01*
X78380733Y-92191320D01*
X78613000Y-92051165D01*
X78613000Y-90852000D01*
X78867000Y-90852000D01*
X78867000Y-92051165D01*
X79099267Y-92191320D01*
X79380830Y-92117442D01*
X79642570Y-91990053D01*
X79874429Y-91814049D01*
X80067496Y-91596193D01*
X80158760Y-91440000D01*
X93808057Y-91440000D01*
X93835764Y-91721309D01*
X93917818Y-91991808D01*
X94051068Y-92241101D01*
X94230392Y-92459608D01*
X94448899Y-92638932D01*
X94698192Y-92772182D01*
X94968691Y-92854236D01*
X95179508Y-92875000D01*
X95320492Y-92875000D01*
X95531309Y-92854236D01*
X95801808Y-92772182D01*
X96051101Y-92638932D01*
X96269608Y-92459608D01*
X96448932Y-92241101D01*
X96520000Y-92108142D01*
X96591068Y-92241101D01*
X96770392Y-92459608D01*
X96988899Y-92638932D01*
X97238192Y-92772182D01*
X97508691Y-92854236D01*
X97719508Y-92875000D01*
X97860492Y-92875000D01*
X98071309Y-92854236D01*
X98341808Y-92772182D01*
X98591101Y-92638932D01*
X98809608Y-92459608D01*
X98988932Y-92241101D01*
X99060000Y-92108142D01*
X99131068Y-92241101D01*
X99310392Y-92459608D01*
X99528899Y-92638932D01*
X99778192Y-92772182D01*
X100048691Y-92854236D01*
X100259508Y-92875000D01*
X100400492Y-92875000D01*
X100611309Y-92854236D01*
X100881808Y-92772182D01*
X101131101Y-92638932D01*
X101349608Y-92459608D01*
X101528932Y-92241101D01*
X101602579Y-92103318D01*
X101717615Y-92295131D01*
X101906586Y-92503519D01*
X102132580Y-92671037D01*
X102386913Y-92791246D01*
X102520961Y-92831904D01*
X102743000Y-92709915D01*
X102743000Y-91567000D01*
X102723000Y-91567000D01*
X102723000Y-91313000D01*
X102743000Y-91313000D01*
X102743000Y-90170085D01*
X102997000Y-90170085D01*
X102997000Y-91313000D01*
X103017000Y-91313000D01*
X103017000Y-91567000D01*
X102997000Y-91567000D01*
X102997000Y-92709915D01*
X103219039Y-92831904D01*
X103353087Y-92791246D01*
X103607420Y-92671037D01*
X103833414Y-92503519D01*
X104022385Y-92295131D01*
X104137421Y-92103318D01*
X104211068Y-92241101D01*
X104390392Y-92459608D01*
X104608899Y-92638932D01*
X104858192Y-92772182D01*
X105128691Y-92854236D01*
X105339508Y-92875000D01*
X105480492Y-92875000D01*
X105691309Y-92854236D01*
X105961808Y-92772182D01*
X106211101Y-92638932D01*
X106429608Y-92459608D01*
X106608932Y-92241101D01*
X106680000Y-92108142D01*
X106751068Y-92241101D01*
X106930392Y-92459608D01*
X107148899Y-92638932D01*
X107398192Y-92772182D01*
X107668691Y-92854236D01*
X107879508Y-92875000D01*
X108020492Y-92875000D01*
X108231309Y-92854236D01*
X108501808Y-92772182D01*
X108751101Y-92638932D01*
X108969608Y-92459608D01*
X109148932Y-92241101D01*
X109222579Y-92103318D01*
X109337615Y-92295131D01*
X109526586Y-92503519D01*
X109752580Y-92671037D01*
X110006913Y-92791246D01*
X110140961Y-92831904D01*
X110363000Y-92709915D01*
X110363000Y-91567000D01*
X110617000Y-91567000D01*
X110617000Y-92709915D01*
X110839039Y-92831904D01*
X110973087Y-92791246D01*
X111227420Y-92671037D01*
X111453414Y-92503519D01*
X111642385Y-92295131D01*
X111760000Y-92099018D01*
X111877615Y-92295131D01*
X112066586Y-92503519D01*
X112292580Y-92671037D01*
X112546913Y-92791246D01*
X112680961Y-92831904D01*
X112903000Y-92709915D01*
X112903000Y-91567000D01*
X110617000Y-91567000D01*
X110363000Y-91567000D01*
X110343000Y-91567000D01*
X110343000Y-91313000D01*
X110363000Y-91313000D01*
X110363000Y-90170085D01*
X110617000Y-90170085D01*
X110617000Y-91313000D01*
X112903000Y-91313000D01*
X112903000Y-90170085D01*
X113157000Y-90170085D01*
X113157000Y-91313000D01*
X113177000Y-91313000D01*
X113177000Y-91567000D01*
X113157000Y-91567000D01*
X113157000Y-92709915D01*
X113379039Y-92831904D01*
X113513087Y-92791246D01*
X113767420Y-92671037D01*
X113993414Y-92503519D01*
X114182385Y-92295131D01*
X114297421Y-92103318D01*
X114371068Y-92241101D01*
X114550392Y-92459608D01*
X114768899Y-92638932D01*
X115018192Y-92772182D01*
X115288691Y-92854236D01*
X115499508Y-92875000D01*
X115640492Y-92875000D01*
X115851309Y-92854236D01*
X116121808Y-92772182D01*
X116371101Y-92638932D01*
X116589608Y-92459608D01*
X116768932Y-92241101D01*
X116840000Y-92108142D01*
X116911068Y-92241101D01*
X117090392Y-92459608D01*
X117308899Y-92638932D01*
X117558192Y-92772182D01*
X117828691Y-92854236D01*
X118039508Y-92875000D01*
X118180492Y-92875000D01*
X118391309Y-92854236D01*
X118661808Y-92772182D01*
X118911101Y-92638932D01*
X119129608Y-92459608D01*
X119308932Y-92241101D01*
X119442182Y-91991808D01*
X119524236Y-91721309D01*
X119551943Y-91440000D01*
X119524236Y-91158691D01*
X119442182Y-90888192D01*
X119308932Y-90638899D01*
X119129608Y-90420392D01*
X118911101Y-90241068D01*
X118661808Y-90107818D01*
X118391309Y-90025764D01*
X118180492Y-90005000D01*
X118039508Y-90005000D01*
X117828691Y-90025764D01*
X117558192Y-90107818D01*
X117308899Y-90241068D01*
X117090392Y-90420392D01*
X116911068Y-90638899D01*
X116840000Y-90771858D01*
X116768932Y-90638899D01*
X116589608Y-90420392D01*
X116371101Y-90241068D01*
X116121808Y-90107818D01*
X115851309Y-90025764D01*
X115640492Y-90005000D01*
X115499508Y-90005000D01*
X115288691Y-90025764D01*
X115018192Y-90107818D01*
X114768899Y-90241068D01*
X114550392Y-90420392D01*
X114371068Y-90638899D01*
X114297421Y-90776682D01*
X114182385Y-90584869D01*
X113993414Y-90376481D01*
X113767420Y-90208963D01*
X113513087Y-90088754D01*
X113379039Y-90048096D01*
X113157000Y-90170085D01*
X112903000Y-90170085D01*
X112680961Y-90048096D01*
X112546913Y-90088754D01*
X112292580Y-90208963D01*
X112066586Y-90376481D01*
X111877615Y-90584869D01*
X111760000Y-90780982D01*
X111642385Y-90584869D01*
X111453414Y-90376481D01*
X111227420Y-90208963D01*
X110973087Y-90088754D01*
X110839039Y-90048096D01*
X110617000Y-90170085D01*
X110363000Y-90170085D01*
X110140961Y-90048096D01*
X110006913Y-90088754D01*
X109752580Y-90208963D01*
X109526586Y-90376481D01*
X109337615Y-90584869D01*
X109222579Y-90776682D01*
X109148932Y-90638899D01*
X108969608Y-90420392D01*
X108751101Y-90241068D01*
X108501808Y-90107818D01*
X108231309Y-90025764D01*
X108020492Y-90005000D01*
X107879508Y-90005000D01*
X107668691Y-90025764D01*
X107398192Y-90107818D01*
X107148899Y-90241068D01*
X106930392Y-90420392D01*
X106751068Y-90638899D01*
X106680000Y-90771858D01*
X106608932Y-90638899D01*
X106429608Y-90420392D01*
X106211101Y-90241068D01*
X105961808Y-90107818D01*
X105691309Y-90025764D01*
X105480492Y-90005000D01*
X105339508Y-90005000D01*
X105128691Y-90025764D01*
X104858192Y-90107818D01*
X104608899Y-90241068D01*
X104390392Y-90420392D01*
X104211068Y-90638899D01*
X104137421Y-90776682D01*
X104022385Y-90584869D01*
X103833414Y-90376481D01*
X103607420Y-90208963D01*
X103353087Y-90088754D01*
X103219039Y-90048096D01*
X102997000Y-90170085D01*
X102743000Y-90170085D01*
X102520961Y-90048096D01*
X102386913Y-90088754D01*
X102132580Y-90208963D01*
X101906586Y-90376481D01*
X101717615Y-90584869D01*
X101602579Y-90776682D01*
X101528932Y-90638899D01*
X101349608Y-90420392D01*
X101131101Y-90241068D01*
X100881808Y-90107818D01*
X100611309Y-90025764D01*
X100400492Y-90005000D01*
X100259508Y-90005000D01*
X100048691Y-90025764D01*
X99778192Y-90107818D01*
X99528899Y-90241068D01*
X99310392Y-90420392D01*
X99131068Y-90638899D01*
X99060000Y-90771858D01*
X98988932Y-90638899D01*
X98809608Y-90420392D01*
X98591101Y-90241068D01*
X98341808Y-90107818D01*
X98071309Y-90025764D01*
X97860492Y-90005000D01*
X97719508Y-90005000D01*
X97508691Y-90025764D01*
X97238192Y-90107818D01*
X96988899Y-90241068D01*
X96770392Y-90420392D01*
X96591068Y-90638899D01*
X96520000Y-90771858D01*
X96448932Y-90638899D01*
X96269608Y-90420392D01*
X96051101Y-90241068D01*
X95801808Y-90107818D01*
X95531309Y-90025764D01*
X95320492Y-90005000D01*
X95179508Y-90005000D01*
X94968691Y-90025764D01*
X94698192Y-90107818D01*
X94448899Y-90241068D01*
X94230392Y-90420392D01*
X94051068Y-90638899D01*
X93917818Y-90888192D01*
X93835764Y-91158691D01*
X93808057Y-91440000D01*
X80158760Y-91440000D01*
X80214352Y-91344858D01*
X80306476Y-91081890D01*
X80185155Y-90852000D01*
X78867000Y-90852000D01*
X78613000Y-90852000D01*
X77294845Y-90852000D01*
X77173524Y-91081890D01*
X76860000Y-91081890D01*
X76860000Y-88225000D01*
X77122815Y-88225000D01*
X77151487Y-88516111D01*
X77236401Y-88796034D01*
X77374294Y-89054014D01*
X77559866Y-89280134D01*
X77785986Y-89465706D01*
X77811722Y-89479462D01*
X77605571Y-89635951D01*
X77412504Y-89853807D01*
X77265648Y-90105142D01*
X77173524Y-90368110D01*
X77294845Y-90598000D01*
X78613000Y-90598000D01*
X78613000Y-90578000D01*
X78867000Y-90578000D01*
X78867000Y-90598000D01*
X80185155Y-90598000D01*
X80306476Y-90368110D01*
X80214352Y-90105142D01*
X80067496Y-89853807D01*
X79874429Y-89635951D01*
X79668278Y-89479462D01*
X79694014Y-89465706D01*
X79920134Y-89280134D01*
X80105706Y-89054014D01*
X80243599Y-88796034D01*
X80328513Y-88516111D01*
X80357185Y-88225000D01*
X80328513Y-87933889D01*
X80243599Y-87653966D01*
X80105706Y-87395986D01*
X79920134Y-87169866D01*
X79856663Y-87117777D01*
X79919855Y-87084000D01*
X83651928Y-87084000D01*
X83651928Y-88684000D01*
X83664188Y-88808482D01*
X83700498Y-88928180D01*
X83759463Y-89038494D01*
X83838815Y-89135185D01*
X83935506Y-89214537D01*
X84045820Y-89273502D01*
X84165518Y-89309812D01*
X84290000Y-89322072D01*
X85890000Y-89322072D01*
X86014482Y-89309812D01*
X86134180Y-89273502D01*
X86244494Y-89214537D01*
X86341185Y-89135185D01*
X86420537Y-89038494D01*
X86479502Y-88928180D01*
X86495117Y-88876702D01*
X88076903Y-88876702D01*
X88148486Y-89120671D01*
X88403996Y-89241571D01*
X88678184Y-89310300D01*
X88960512Y-89324217D01*
X89240130Y-89282787D01*
X89506292Y-89187603D01*
X89631514Y-89120671D01*
X89703097Y-88876702D01*
X88890000Y-88063605D01*
X88076903Y-88876702D01*
X86495117Y-88876702D01*
X86515812Y-88808482D01*
X86528072Y-88684000D01*
X86528072Y-87954512D01*
X87449783Y-87954512D01*
X87491213Y-88234130D01*
X87586397Y-88500292D01*
X87653329Y-88625514D01*
X87897298Y-88697097D01*
X88710395Y-87884000D01*
X89069605Y-87884000D01*
X89882702Y-88697097D01*
X90126671Y-88625514D01*
X90247571Y-88370004D01*
X90316300Y-88095816D01*
X90330217Y-87813488D01*
X90288787Y-87533870D01*
X90239160Y-87395098D01*
X123345000Y-87395098D01*
X123345000Y-87864902D01*
X123436654Y-88325679D01*
X123616440Y-88759721D01*
X123877450Y-89150349D01*
X124209651Y-89482550D01*
X124600279Y-89743560D01*
X125034321Y-89923346D01*
X125495098Y-90015000D01*
X125964902Y-90015000D01*
X126425679Y-89923346D01*
X126859721Y-89743560D01*
X127250349Y-89482550D01*
X127582550Y-89150349D01*
X127843560Y-88759721D01*
X128023346Y-88325679D01*
X128115000Y-87864902D01*
X128115000Y-87395098D01*
X128023346Y-86934321D01*
X127843560Y-86500279D01*
X127582550Y-86109651D01*
X127250349Y-85777450D01*
X126859721Y-85516440D01*
X126425679Y-85336654D01*
X125964902Y-85245000D01*
X125495098Y-85245000D01*
X125034321Y-85336654D01*
X124600279Y-85516440D01*
X124209651Y-85777450D01*
X123877450Y-86109651D01*
X123616440Y-86500279D01*
X123436654Y-86934321D01*
X123345000Y-87395098D01*
X90239160Y-87395098D01*
X90193603Y-87267708D01*
X90126671Y-87142486D01*
X89882702Y-87070903D01*
X89069605Y-87884000D01*
X88710395Y-87884000D01*
X87897298Y-87070903D01*
X87653329Y-87142486D01*
X87532429Y-87397996D01*
X87463700Y-87672184D01*
X87449783Y-87954512D01*
X86528072Y-87954512D01*
X86528072Y-87084000D01*
X86515812Y-86959518D01*
X86495118Y-86891298D01*
X88076903Y-86891298D01*
X88890000Y-87704395D01*
X89703097Y-86891298D01*
X89631514Y-86647329D01*
X89376004Y-86526429D01*
X89101816Y-86457700D01*
X88819488Y-86443783D01*
X88539870Y-86485213D01*
X88273708Y-86580397D01*
X88148486Y-86647329D01*
X88076903Y-86891298D01*
X86495118Y-86891298D01*
X86479502Y-86839820D01*
X86420537Y-86729506D01*
X86341185Y-86632815D01*
X86244494Y-86553463D01*
X86134180Y-86494498D01*
X86014482Y-86458188D01*
X85890000Y-86445928D01*
X84290000Y-86445928D01*
X84165518Y-86458188D01*
X84045820Y-86494498D01*
X83935506Y-86553463D01*
X83838815Y-86632815D01*
X83759463Y-86729506D01*
X83700498Y-86839820D01*
X83664188Y-86959518D01*
X83651928Y-87084000D01*
X79919855Y-87084000D01*
X79958386Y-87063405D01*
X80092962Y-86952962D01*
X80203405Y-86818386D01*
X80285472Y-86664850D01*
X80336008Y-86498254D01*
X80353072Y-86325000D01*
X80353072Y-85125000D01*
X80336008Y-84951746D01*
X80335074Y-84948665D01*
X90005000Y-84948665D01*
X90005000Y-85231335D01*
X90060147Y-85508574D01*
X90168320Y-85769727D01*
X90325363Y-86004759D01*
X90525241Y-86204637D01*
X90760273Y-86361680D01*
X91021426Y-86469853D01*
X91298665Y-86525000D01*
X91581335Y-86525000D01*
X91858574Y-86469853D01*
X92119727Y-86361680D01*
X92354759Y-86204637D01*
X92554637Y-86004759D01*
X92711680Y-85769727D01*
X92819853Y-85508574D01*
X92875000Y-85231335D01*
X92875000Y-84948665D01*
X92819853Y-84671426D01*
X92711680Y-84410273D01*
X92554637Y-84175241D01*
X92548436Y-84169040D01*
X93858091Y-84169040D01*
X93952930Y-84433881D01*
X94097615Y-84675131D01*
X94286586Y-84883519D01*
X94512580Y-85051037D01*
X94766913Y-85171246D01*
X94900961Y-85211904D01*
X95123000Y-85089915D01*
X95123000Y-83947000D01*
X93979376Y-83947000D01*
X93858091Y-84169040D01*
X92548436Y-84169040D01*
X92354759Y-83975363D01*
X92119727Y-83818320D01*
X91858574Y-83710147D01*
X91581335Y-83655000D01*
X91298665Y-83655000D01*
X91021426Y-83710147D01*
X90760273Y-83818320D01*
X90525241Y-83975363D01*
X90325363Y-84175241D01*
X90168320Y-84410273D01*
X90060147Y-84671426D01*
X90005000Y-84948665D01*
X80335074Y-84948665D01*
X80285472Y-84785150D01*
X80203405Y-84631614D01*
X80092962Y-84497038D01*
X79958386Y-84386595D01*
X79804850Y-84304528D01*
X79638254Y-84253992D01*
X79465000Y-84236928D01*
X78015000Y-84236928D01*
X77841746Y-84253992D01*
X77675150Y-84304528D01*
X77521614Y-84386595D01*
X77387038Y-84497038D01*
X77276595Y-84631614D01*
X77194528Y-84785150D01*
X77143992Y-84951746D01*
X77126928Y-85125000D01*
X77126928Y-86325000D01*
X77143992Y-86498254D01*
X77194528Y-86664850D01*
X77276595Y-86818386D01*
X77387038Y-86952962D01*
X77521614Y-87063405D01*
X77623337Y-87117777D01*
X77559866Y-87169866D01*
X77374294Y-87395986D01*
X77236401Y-87653966D01*
X77151487Y-87933889D01*
X77122815Y-88225000D01*
X76860000Y-88225000D01*
X76860000Y-83470960D01*
X93858091Y-83470960D01*
X93979376Y-83693000D01*
X95123000Y-83693000D01*
X95123000Y-82550085D01*
X94900961Y-82428096D01*
X94766913Y-82468754D01*
X94512580Y-82588963D01*
X94286586Y-82756481D01*
X94097615Y-82964869D01*
X93952930Y-83206119D01*
X93858091Y-83470960D01*
X76860000Y-83470960D01*
X76860000Y-80810000D01*
X78571928Y-80810000D01*
X78584188Y-80934482D01*
X78620498Y-81054180D01*
X78679463Y-81164494D01*
X78758815Y-81261185D01*
X78855506Y-81340537D01*
X78965820Y-81399502D01*
X79085518Y-81435812D01*
X79210000Y-81448072D01*
X79724250Y-81445000D01*
X79883000Y-81286250D01*
X79883000Y-80137000D01*
X78733750Y-80137000D01*
X78575000Y-80295750D01*
X78571928Y-80810000D01*
X76860000Y-80810000D01*
X76860000Y-79210000D01*
X78571928Y-79210000D01*
X78575000Y-79724250D01*
X78733750Y-79883000D01*
X79883000Y-79883000D01*
X79883000Y-78733750D01*
X79724250Y-78575000D01*
X79210000Y-78571928D01*
X79085518Y-78584188D01*
X78965820Y-78620498D01*
X78855506Y-78679463D01*
X78758815Y-78758815D01*
X78679463Y-78855506D01*
X78620498Y-78965820D01*
X78584188Y-79085518D01*
X78571928Y-79210000D01*
X76860000Y-79210000D01*
X76860000Y-56540000D01*
X128880000Y-56540000D01*
X128880000Y-58332229D01*
X128880000Y-58332229D01*
G37*
X128880000Y-58332229D02*
X128841034Y-58311401D01*
X128561111Y-58226487D01*
X128342950Y-58205000D01*
X128197050Y-58205000D01*
X127978889Y-58226487D01*
X127698966Y-58311401D01*
X127440986Y-58449294D01*
X127214866Y-58634866D01*
X127029294Y-58860986D01*
X127000000Y-58915791D01*
X126970706Y-58860986D01*
X126785134Y-58634866D01*
X126559014Y-58449294D01*
X126301034Y-58311401D01*
X126021111Y-58226487D01*
X125802950Y-58205000D01*
X125657050Y-58205000D01*
X125438889Y-58226487D01*
X125158966Y-58311401D01*
X124900986Y-58449294D01*
X124674866Y-58634866D01*
X124489294Y-58860986D01*
X124460000Y-58915791D01*
X124430706Y-58860986D01*
X124245134Y-58634866D01*
X124019014Y-58449294D01*
X123761034Y-58311401D01*
X123481111Y-58226487D01*
X123262950Y-58205000D01*
X123117050Y-58205000D01*
X122898889Y-58226487D01*
X122618966Y-58311401D01*
X122360986Y-58449294D01*
X122134866Y-58634866D01*
X121949294Y-58860986D01*
X121920000Y-58915791D01*
X121890706Y-58860986D01*
X121705134Y-58634866D01*
X121479014Y-58449294D01*
X121221034Y-58311401D01*
X120941111Y-58226487D01*
X120722950Y-58205000D01*
X120577050Y-58205000D01*
X120358889Y-58226487D01*
X120078966Y-58311401D01*
X119820986Y-58449294D01*
X119594866Y-58634866D01*
X119409294Y-58860986D01*
X119380000Y-58915791D01*
X119350706Y-58860986D01*
X119165134Y-58634866D01*
X118939014Y-58449294D01*
X118681034Y-58311401D01*
X118401111Y-58226487D01*
X118182950Y-58205000D01*
X118037050Y-58205000D01*
X117818889Y-58226487D01*
X117538966Y-58311401D01*
X117280986Y-58449294D01*
X117054866Y-58634866D01*
X116869294Y-58860986D01*
X116840000Y-58915791D01*
X116810706Y-58860986D01*
X116625134Y-58634866D01*
X116399014Y-58449294D01*
X116141034Y-58311401D01*
X115861111Y-58226487D01*
X115642950Y-58205000D01*
X115497050Y-58205000D01*
X115278889Y-58226487D01*
X114998966Y-58311401D01*
X114740986Y-58449294D01*
X114514866Y-58634866D01*
X114329294Y-58860986D01*
X114300000Y-58915791D01*
X114270706Y-58860986D01*
X114085134Y-58634866D01*
X113859014Y-58449294D01*
X113601034Y-58311401D01*
X113321111Y-58226487D01*
X113102950Y-58205000D01*
X112957050Y-58205000D01*
X112738889Y-58226487D01*
X112458966Y-58311401D01*
X112200986Y-58449294D01*
X111974866Y-58634866D01*
X111789294Y-58860986D01*
X111760000Y-58915791D01*
X111730706Y-58860986D01*
X111545134Y-58634866D01*
X111319014Y-58449294D01*
X111061034Y-58311401D01*
X110781111Y-58226487D01*
X110562950Y-58205000D01*
X110417050Y-58205000D01*
X110198889Y-58226487D01*
X109918966Y-58311401D01*
X109660986Y-58449294D01*
X109434866Y-58634866D01*
X109410393Y-58664687D01*
X109389502Y-58595820D01*
X109330537Y-58485506D01*
X109251185Y-58388815D01*
X109154494Y-58309463D01*
X109044180Y-58250498D01*
X108924482Y-58214188D01*
X108800000Y-58201928D01*
X107100000Y-58201928D01*
X106975518Y-58214188D01*
X106855820Y-58250498D01*
X106745506Y-58309463D01*
X106648815Y-58388815D01*
X106569463Y-58485506D01*
X106510498Y-58595820D01*
X106474188Y-58715518D01*
X106461928Y-58840000D01*
X106461928Y-60540000D01*
X106474188Y-60664482D01*
X106510498Y-60784180D01*
X106569463Y-60894494D01*
X106648815Y-60991185D01*
X106745506Y-61070537D01*
X106855820Y-61129502D01*
X106975518Y-61165812D01*
X107100000Y-61178072D01*
X108800000Y-61178072D01*
X108924482Y-61165812D01*
X109044180Y-61129502D01*
X109154494Y-61070537D01*
X109251185Y-60991185D01*
X109330537Y-60894494D01*
X109389502Y-60784180D01*
X109410393Y-60715313D01*
X109434866Y-60745134D01*
X109660986Y-60930706D01*
X109918966Y-61068599D01*
X110198889Y-61153513D01*
X110417050Y-61175000D01*
X110562950Y-61175000D01*
X110781111Y-61153513D01*
X111061034Y-61068599D01*
X111319014Y-60930706D01*
X111545134Y-60745134D01*
X111730706Y-60519014D01*
X111760000Y-60464209D01*
X111789294Y-60519014D01*
X111974866Y-60745134D01*
X112200986Y-60930706D01*
X112458966Y-61068599D01*
X112738889Y-61153513D01*
X112957050Y-61175000D01*
X113102950Y-61175000D01*
X113321111Y-61153513D01*
X113601034Y-61068599D01*
X113859014Y-60930706D01*
X114085134Y-60745134D01*
X114270706Y-60519014D01*
X114300000Y-60464209D01*
X114329294Y-60519014D01*
X114514866Y-60745134D01*
X114740986Y-60930706D01*
X114998966Y-61068599D01*
X115278889Y-61153513D01*
X115497050Y-61175000D01*
X115642950Y-61175000D01*
X115861111Y-61153513D01*
X116141034Y-61068599D01*
X116399014Y-60930706D01*
X116625134Y-60745134D01*
X116810706Y-60519014D01*
X116840000Y-60464209D01*
X116869294Y-60519014D01*
X117054866Y-60745134D01*
X117280986Y-60930706D01*
X117538966Y-61068599D01*
X117818889Y-61153513D01*
X118037050Y-61175000D01*
X118182950Y-61175000D01*
X118401111Y-61153513D01*
X118681034Y-61068599D01*
X118939014Y-60930706D01*
X119165134Y-60745134D01*
X119350706Y-60519014D01*
X119380000Y-60464209D01*
X119409294Y-60519014D01*
X119594866Y-60745134D01*
X119820986Y-60930706D01*
X120078966Y-61068599D01*
X120358889Y-61153513D01*
X120577050Y-61175000D01*
X120722950Y-61175000D01*
X120941111Y-61153513D01*
X121221034Y-61068599D01*
X121479014Y-60930706D01*
X121705134Y-60745134D01*
X121890706Y-60519014D01*
X121920000Y-60464209D01*
X121949294Y-60519014D01*
X122134866Y-60745134D01*
X122360986Y-60930706D01*
X122618966Y-61068599D01*
X122898889Y-61153513D01*
X123117050Y-61175000D01*
X123262950Y-61175000D01*
X123481111Y-61153513D01*
X123761034Y-61068599D01*
X124019014Y-60930706D01*
X124245134Y-60745134D01*
X124430706Y-60519014D01*
X124460000Y-60464209D01*
X124489294Y-60519014D01*
X124674866Y-60745134D01*
X124900986Y-60930706D01*
X125158966Y-61068599D01*
X125438889Y-61153513D01*
X125657050Y-61175000D01*
X125802950Y-61175000D01*
X126021111Y-61153513D01*
X126301034Y-61068599D01*
X126559014Y-60930706D01*
X126785134Y-60745134D01*
X126970706Y-60519014D01*
X127000000Y-60464209D01*
X127029294Y-60519014D01*
X127214866Y-60745134D01*
X127440986Y-60930706D01*
X127698966Y-61068599D01*
X127978889Y-61153513D01*
X128197050Y-61175000D01*
X128342950Y-61175000D01*
X128561111Y-61153513D01*
X128841034Y-61068599D01*
X128880000Y-61047771D01*
X128880000Y-63469438D01*
X128688574Y-63390147D01*
X128411335Y-63335000D01*
X128128665Y-63335000D01*
X127851426Y-63390147D01*
X127590273Y-63498320D01*
X127355241Y-63655363D01*
X127155363Y-63855241D01*
X127000000Y-64087759D01*
X126844637Y-63855241D01*
X126644759Y-63655363D01*
X126409727Y-63498320D01*
X126148574Y-63390147D01*
X125871335Y-63335000D01*
X125588665Y-63335000D01*
X125311426Y-63390147D01*
X125050273Y-63498320D01*
X124815241Y-63655363D01*
X124615363Y-63855241D01*
X124460000Y-64087759D01*
X124304637Y-63855241D01*
X124104759Y-63655363D01*
X123869727Y-63498320D01*
X123608574Y-63390147D01*
X123331335Y-63335000D01*
X123048665Y-63335000D01*
X122771426Y-63390147D01*
X122510273Y-63498320D01*
X122275241Y-63655363D01*
X122075363Y-63855241D01*
X121920000Y-64087759D01*
X121764637Y-63855241D01*
X121564759Y-63655363D01*
X121329727Y-63498320D01*
X121068574Y-63390147D01*
X120791335Y-63335000D01*
X120508665Y-63335000D01*
X120231426Y-63390147D01*
X119970273Y-63498320D01*
X119735241Y-63655363D01*
X119535363Y-63855241D01*
X119380000Y-64087759D01*
X119224637Y-63855241D01*
X119024759Y-63655363D01*
X118789727Y-63498320D01*
X118528574Y-63390147D01*
X118251335Y-63335000D01*
X117968665Y-63335000D01*
X117691426Y-63390147D01*
X117430273Y-63498320D01*
X117195241Y-63655363D01*
X116995363Y-63855241D01*
X116839085Y-64089128D01*
X116806671Y-64028486D01*
X116562702Y-63956903D01*
X115749605Y-64770000D01*
X116562702Y-65583097D01*
X116806671Y-65511514D01*
X116837194Y-65447008D01*
X116838320Y-65449727D01*
X116995363Y-65684759D01*
X117195241Y-65884637D01*
X117430273Y-66041680D01*
X117691426Y-66149853D01*
X117968665Y-66205000D01*
X118251335Y-66205000D01*
X118528574Y-66149853D01*
X118789727Y-66041680D01*
X119024759Y-65884637D01*
X119224637Y-65684759D01*
X119380000Y-65452241D01*
X119535363Y-65684759D01*
X119735241Y-65884637D01*
X119970273Y-66041680D01*
X120231426Y-66149853D01*
X120508665Y-66205000D01*
X120791335Y-66205000D01*
X121068574Y-66149853D01*
X121329727Y-66041680D01*
X121564759Y-65884637D01*
X121764637Y-65684759D01*
X121920000Y-65452241D01*
X122075363Y-65684759D01*
X122275241Y-65884637D01*
X122510273Y-66041680D01*
X122771426Y-66149853D01*
X123048665Y-66205000D01*
X123331335Y-66205000D01*
X123608574Y-66149853D01*
X123869727Y-66041680D01*
X124104759Y-65884637D01*
X124304637Y-65684759D01*
X124460000Y-65452241D01*
X124615363Y-65684759D01*
X124815241Y-65884637D01*
X125050273Y-66041680D01*
X125311426Y-66149853D01*
X125588665Y-66205000D01*
X125871335Y-66205000D01*
X126148574Y-66149853D01*
X126409727Y-66041680D01*
X126644759Y-65884637D01*
X126844637Y-65684759D01*
X127000000Y-65452241D01*
X127155363Y-65684759D01*
X127355241Y-65884637D01*
X127590273Y-66041680D01*
X127851426Y-66149853D01*
X128128665Y-66205000D01*
X128411335Y-66205000D01*
X128688574Y-66149853D01*
X128880000Y-66070562D01*
X128880000Y-78709438D01*
X128688574Y-78630147D01*
X128411335Y-78575000D01*
X128128665Y-78575000D01*
X127851426Y-78630147D01*
X127590273Y-78738320D01*
X127355241Y-78895363D01*
X127155363Y-79095241D01*
X127000000Y-79327759D01*
X126844637Y-79095241D01*
X126644759Y-78895363D01*
X126409727Y-78738320D01*
X126148574Y-78630147D01*
X125871335Y-78575000D01*
X125588665Y-78575000D01*
X125311426Y-78630147D01*
X125050273Y-78738320D01*
X124815241Y-78895363D01*
X124615363Y-79095241D01*
X124460000Y-79327759D01*
X124304637Y-79095241D01*
X124104759Y-78895363D01*
X123869727Y-78738320D01*
X123608574Y-78630147D01*
X123331335Y-78575000D01*
X123048665Y-78575000D01*
X122771426Y-78630147D01*
X122510273Y-78738320D01*
X122275241Y-78895363D01*
X122075363Y-79095241D01*
X121920000Y-79327759D01*
X121764637Y-79095241D01*
X121564759Y-78895363D01*
X121329727Y-78738320D01*
X121068574Y-78630147D01*
X120791335Y-78575000D01*
X120508665Y-78575000D01*
X120231426Y-78630147D01*
X119970273Y-78738320D01*
X119735241Y-78895363D01*
X119535363Y-79095241D01*
X119380000Y-79327759D01*
X119224637Y-79095241D01*
X119024759Y-78895363D01*
X118789727Y-78738320D01*
X118528574Y-78630147D01*
X118251335Y-78575000D01*
X117968665Y-78575000D01*
X117691426Y-78630147D01*
X117430273Y-78738320D01*
X117195241Y-78895363D01*
X116995363Y-79095241D01*
X116840000Y-79327759D01*
X116684637Y-79095241D01*
X116484759Y-78895363D01*
X116249727Y-78738320D01*
X115988574Y-78630147D01*
X115711335Y-78575000D01*
X115428665Y-78575000D01*
X115151426Y-78630147D01*
X114890273Y-78738320D01*
X114655241Y-78895363D01*
X114455363Y-79095241D01*
X114300000Y-79327759D01*
X114144637Y-79095241D01*
X113944759Y-78895363D01*
X113709727Y-78738320D01*
X113448574Y-78630147D01*
X113171335Y-78575000D01*
X112888665Y-78575000D01*
X112611426Y-78630147D01*
X112350273Y-78738320D01*
X112115241Y-78895363D01*
X111915363Y-79095241D01*
X111760000Y-79327759D01*
X111604637Y-79095241D01*
X111404759Y-78895363D01*
X111169727Y-78738320D01*
X110908574Y-78630147D01*
X110631335Y-78575000D01*
X110348665Y-78575000D01*
X110071426Y-78630147D01*
X109810273Y-78738320D01*
X109575241Y-78895363D01*
X109375363Y-79095241D01*
X109220000Y-79327759D01*
X109064637Y-79095241D01*
X108864759Y-78895363D01*
X108629727Y-78738320D01*
X108368574Y-78630147D01*
X108091335Y-78575000D01*
X107808665Y-78575000D01*
X107531426Y-78630147D01*
X107270273Y-78738320D01*
X107035241Y-78895363D01*
X106835363Y-79095241D01*
X106680000Y-79327759D01*
X106524637Y-79095241D01*
X106324759Y-78895363D01*
X106089727Y-78738320D01*
X105828574Y-78630147D01*
X105551335Y-78575000D01*
X105268665Y-78575000D01*
X105086114Y-78611312D01*
X104068804Y-77594003D01*
X104045001Y-77564999D01*
X103929276Y-77470026D01*
X103797247Y-77399454D01*
X103653986Y-77355997D01*
X103542333Y-77345000D01*
X103542322Y-77345000D01*
X103505000Y-77341324D01*
X103467678Y-77345000D01*
X84769802Y-77345000D01*
X82354802Y-74930000D01*
X89998057Y-74930000D01*
X90025764Y-75211309D01*
X90107818Y-75481808D01*
X90241068Y-75731101D01*
X90420392Y-75949608D01*
X90638899Y-76128932D01*
X90888192Y-76262182D01*
X91158691Y-76344236D01*
X91369508Y-76365000D01*
X91510492Y-76365000D01*
X91721309Y-76344236D01*
X91991808Y-76262182D01*
X92241101Y-76128932D01*
X92459608Y-75949608D01*
X92638932Y-75731101D01*
X92772182Y-75481808D01*
X92854236Y-75211309D01*
X92881943Y-74930000D01*
X92854236Y-74648691D01*
X92772182Y-74378192D01*
X92638932Y-74128899D01*
X92459608Y-73910392D01*
X92241101Y-73731068D01*
X91991808Y-73597818D01*
X91721309Y-73515764D01*
X91510492Y-73495000D01*
X91369508Y-73495000D01*
X91158691Y-73515764D01*
X90888192Y-73597818D01*
X90638899Y-73731068D01*
X90420392Y-73910392D01*
X90241068Y-74128899D01*
X90107818Y-74378192D01*
X90025764Y-74648691D01*
X89998057Y-74930000D01*
X82354802Y-74930000D01*
X82040000Y-74615199D01*
X82040000Y-72390000D01*
X96399388Y-72390000D01*
X96421785Y-72617400D01*
X96488115Y-72836060D01*
X96589105Y-73025000D01*
X96488115Y-73213940D01*
X96421785Y-73432600D01*
X96399388Y-73660000D01*
X96421785Y-73887400D01*
X96488115Y-74106060D01*
X96595829Y-74307579D01*
X96740788Y-74484212D01*
X96917421Y-74629171D01*
X97118940Y-74736885D01*
X97337600Y-74803215D01*
X97508021Y-74820000D01*
X98071979Y-74820000D01*
X98242400Y-74803215D01*
X98461060Y-74736885D01*
X98662579Y-74629171D01*
X98839212Y-74484212D01*
X98984171Y-74307579D01*
X99091885Y-74106060D01*
X99158215Y-73887400D01*
X99180612Y-73660000D01*
X99158215Y-73432600D01*
X99091885Y-73213940D01*
X98990895Y-73025000D01*
X99091885Y-72836060D01*
X99158215Y-72617400D01*
X99180612Y-72390000D01*
X99158215Y-72162600D01*
X99094907Y-71953902D01*
X99129502Y-71889180D01*
X99165812Y-71769482D01*
X99178072Y-71645000D01*
X99175000Y-71405750D01*
X99016250Y-71247000D01*
X98243109Y-71247000D01*
X98242400Y-71246785D01*
X98071979Y-71230000D01*
X97508021Y-71230000D01*
X97337600Y-71246785D01*
X97336891Y-71247000D01*
X96563750Y-71247000D01*
X96405000Y-71405750D01*
X96401928Y-71645000D01*
X96414188Y-71769482D01*
X96450498Y-71889180D01*
X96485093Y-71953902D01*
X96421785Y-72162600D01*
X96399388Y-72390000D01*
X82040000Y-72390000D01*
X82040000Y-70595000D01*
X96401928Y-70595000D01*
X96405000Y-70834250D01*
X96563750Y-70993000D01*
X97663000Y-70993000D01*
X97663000Y-70118750D01*
X97917000Y-70118750D01*
X97917000Y-70993000D01*
X99016250Y-70993000D01*
X99175000Y-70834250D01*
X99178072Y-70595000D01*
X99165812Y-70470518D01*
X99129502Y-70350820D01*
X99070537Y-70240506D01*
X98991185Y-70143815D01*
X98894494Y-70064463D01*
X98784180Y-70005498D01*
X98664482Y-69969188D01*
X98540000Y-69956928D01*
X98075750Y-69960000D01*
X97917000Y-70118750D01*
X97663000Y-70118750D01*
X97504250Y-69960000D01*
X97040000Y-69956928D01*
X96915518Y-69969188D01*
X96795820Y-70005498D01*
X96685506Y-70064463D01*
X96588815Y-70143815D01*
X96509463Y-70240506D01*
X96450498Y-70350820D01*
X96414188Y-70470518D01*
X96401928Y-70595000D01*
X82040000Y-70595000D01*
X82040000Y-66111983D01*
X82131426Y-66149853D01*
X82408665Y-66205000D01*
X82691335Y-66205000D01*
X82968574Y-66149853D01*
X83229727Y-66041680D01*
X83464759Y-65884637D01*
X83664637Y-65684759D01*
X83820000Y-65452241D01*
X83975363Y-65684759D01*
X84175241Y-65884637D01*
X84410273Y-66041680D01*
X84671426Y-66149853D01*
X84948665Y-66205000D01*
X85231335Y-66205000D01*
X85508574Y-66149853D01*
X85769727Y-66041680D01*
X86004759Y-65884637D01*
X86204637Y-65684759D01*
X86360000Y-65452241D01*
X86515363Y-65684759D01*
X86715241Y-65884637D01*
X86950273Y-66041680D01*
X87211426Y-66149853D01*
X87488665Y-66205000D01*
X87771335Y-66205000D01*
X88048574Y-66149853D01*
X88309727Y-66041680D01*
X88544759Y-65884637D01*
X88744637Y-65684759D01*
X88900000Y-65452241D01*
X89055363Y-65684759D01*
X89255241Y-65884637D01*
X89490273Y-66041680D01*
X89751426Y-66149853D01*
X90028665Y-66205000D01*
X90311335Y-66205000D01*
X90588574Y-66149853D01*
X90849727Y-66041680D01*
X91084759Y-65884637D01*
X91284637Y-65684759D01*
X91440000Y-65452241D01*
X91595363Y-65684759D01*
X91795241Y-65884637D01*
X92030273Y-66041680D01*
X92291426Y-66149853D01*
X92568665Y-66205000D01*
X92851335Y-66205000D01*
X93128574Y-66149853D01*
X93389727Y-66041680D01*
X93624759Y-65884637D01*
X93824637Y-65684759D01*
X93980000Y-65452241D01*
X94135363Y-65684759D01*
X94335241Y-65884637D01*
X94570273Y-66041680D01*
X94831426Y-66149853D01*
X95108665Y-66205000D01*
X95391335Y-66205000D01*
X95668574Y-66149853D01*
X95929727Y-66041680D01*
X96164759Y-65884637D01*
X96364637Y-65684759D01*
X96520000Y-65452241D01*
X96675363Y-65684759D01*
X96875241Y-65884637D01*
X97110273Y-66041680D01*
X97371426Y-66149853D01*
X97648665Y-66205000D01*
X97931335Y-66205000D01*
X98208574Y-66149853D01*
X98469727Y-66041680D01*
X98704759Y-65884637D01*
X98904637Y-65684759D01*
X99060000Y-65452241D01*
X99215363Y-65684759D01*
X99415241Y-65884637D01*
X99650273Y-66041680D01*
X99911426Y-66149853D01*
X100188665Y-66205000D01*
X100471335Y-66205000D01*
X100748574Y-66149853D01*
X101009727Y-66041680D01*
X101244759Y-65884637D01*
X101444637Y-65684759D01*
X101600000Y-65452241D01*
X101755363Y-65684759D01*
X101955241Y-65884637D01*
X102190273Y-66041680D01*
X102451426Y-66149853D01*
X102728665Y-66205000D01*
X103011335Y-66205000D01*
X103288574Y-66149853D01*
X103549727Y-66041680D01*
X103784759Y-65884637D01*
X103984637Y-65684759D01*
X104140000Y-65452241D01*
X104295363Y-65684759D01*
X104495241Y-65884637D01*
X104730273Y-66041680D01*
X104991426Y-66149853D01*
X105268665Y-66205000D01*
X105551335Y-66205000D01*
X105828574Y-66149853D01*
X106089727Y-66041680D01*
X106324759Y-65884637D01*
X106524637Y-65684759D01*
X106680000Y-65452241D01*
X106835363Y-65684759D01*
X107035241Y-65884637D01*
X107270273Y-66041680D01*
X107531426Y-66149853D01*
X107808665Y-66205000D01*
X108091335Y-66205000D01*
X108368574Y-66149853D01*
X108629727Y-66041680D01*
X108864759Y-65884637D01*
X109064637Y-65684759D01*
X109220000Y-65452241D01*
X109375363Y-65684759D01*
X109575241Y-65884637D01*
X109810273Y-66041680D01*
X110071426Y-66149853D01*
X110348665Y-66205000D01*
X110631335Y-66205000D01*
X110908574Y-66149853D01*
X111169727Y-66041680D01*
X111404759Y-65884637D01*
X111604637Y-65684759D01*
X111760000Y-65452241D01*
X111915363Y-65684759D01*
X112115241Y-65884637D01*
X112350273Y-66041680D01*
X112611426Y-66149853D01*
X112888665Y-66205000D01*
X113171335Y-66205000D01*
X113448574Y-66149853D01*
X113709727Y-66041680D01*
X113944759Y-65884637D01*
X114066694Y-65762702D01*
X114756903Y-65762702D01*
X114828486Y-66006671D01*
X115083996Y-66127571D01*
X115358184Y-66196300D01*
X115640512Y-66210217D01*
X115920130Y-66168787D01*
X116186292Y-66073603D01*
X116311514Y-66006671D01*
X116383097Y-65762702D01*
X115570000Y-64949605D01*
X114756903Y-65762702D01*
X114066694Y-65762702D01*
X114144637Y-65684759D01*
X114300915Y-65450872D01*
X114333329Y-65511514D01*
X114577298Y-65583097D01*
X115390395Y-64770000D01*
X114577298Y-63956903D01*
X114333329Y-64028486D01*
X114302806Y-64092992D01*
X114301680Y-64090273D01*
X114144637Y-63855241D01*
X114066694Y-63777298D01*
X114756903Y-63777298D01*
X115570000Y-64590395D01*
X116383097Y-63777298D01*
X116311514Y-63533329D01*
X116056004Y-63412429D01*
X115781816Y-63343700D01*
X115499488Y-63329783D01*
X115219870Y-63371213D01*
X114953708Y-63466397D01*
X114828486Y-63533329D01*
X114756903Y-63777298D01*
X114066694Y-63777298D01*
X113944759Y-63655363D01*
X113709727Y-63498320D01*
X113448574Y-63390147D01*
X113171335Y-63335000D01*
X112888665Y-63335000D01*
X112611426Y-63390147D01*
X112350273Y-63498320D01*
X112115241Y-63655363D01*
X111915363Y-63855241D01*
X111760000Y-64087759D01*
X111604637Y-63855241D01*
X111404759Y-63655363D01*
X111169727Y-63498320D01*
X110908574Y-63390147D01*
X110631335Y-63335000D01*
X110348665Y-63335000D01*
X110071426Y-63390147D01*
X109810273Y-63498320D01*
X109575241Y-63655363D01*
X109375363Y-63855241D01*
X109220000Y-64087759D01*
X109064637Y-63855241D01*
X108864759Y-63655363D01*
X108629727Y-63498320D01*
X108368574Y-63390147D01*
X108091335Y-63335000D01*
X107808665Y-63335000D01*
X107531426Y-63390147D01*
X107270273Y-63498320D01*
X107035241Y-63655363D01*
X106835363Y-63855241D01*
X106680000Y-64087759D01*
X106524637Y-63855241D01*
X106324759Y-63655363D01*
X106089727Y-63498320D01*
X105828574Y-63390147D01*
X105551335Y-63335000D01*
X105268665Y-63335000D01*
X104991426Y-63390147D01*
X104730273Y-63498320D01*
X104495241Y-63655363D01*
X104295363Y-63855241D01*
X104140000Y-64087759D01*
X103984637Y-63855241D01*
X103784759Y-63655363D01*
X103549727Y-63498320D01*
X103288574Y-63390147D01*
X103011335Y-63335000D01*
X102728665Y-63335000D01*
X102451426Y-63390147D01*
X102190273Y-63498320D01*
X101955241Y-63655363D01*
X101755363Y-63855241D01*
X101600000Y-64087759D01*
X101444637Y-63855241D01*
X101244759Y-63655363D01*
X101009727Y-63498320D01*
X100748574Y-63390147D01*
X100471335Y-63335000D01*
X100188665Y-63335000D01*
X99911426Y-63390147D01*
X99650273Y-63498320D01*
X99415241Y-63655363D01*
X99215363Y-63855241D01*
X99060000Y-64087759D01*
X98904637Y-63855241D01*
X98704759Y-63655363D01*
X98469727Y-63498320D01*
X98208574Y-63390147D01*
X97931335Y-63335000D01*
X97648665Y-63335000D01*
X97371426Y-63390147D01*
X97110273Y-63498320D01*
X96875241Y-63655363D01*
X96675363Y-63855241D01*
X96520000Y-64087759D01*
X96364637Y-63855241D01*
X96164759Y-63655363D01*
X95929727Y-63498320D01*
X95668574Y-63390147D01*
X95391335Y-63335000D01*
X95108665Y-63335000D01*
X94831426Y-63390147D01*
X94570273Y-63498320D01*
X94335241Y-63655363D01*
X94135363Y-63855241D01*
X93980000Y-64087759D01*
X93824637Y-63855241D01*
X93624759Y-63655363D01*
X93389727Y-63498320D01*
X93128574Y-63390147D01*
X92851335Y-63335000D01*
X92568665Y-63335000D01*
X92291426Y-63390147D01*
X92030273Y-63498320D01*
X91795241Y-63655363D01*
X91595363Y-63855241D01*
X91440000Y-64087759D01*
X91284637Y-63855241D01*
X91084759Y-63655363D01*
X90849727Y-63498320D01*
X90588574Y-63390147D01*
X90311335Y-63335000D01*
X90028665Y-63335000D01*
X89751426Y-63390147D01*
X89490273Y-63498320D01*
X89255241Y-63655363D01*
X89055363Y-63855241D01*
X88900000Y-64087759D01*
X88744637Y-63855241D01*
X88544759Y-63655363D01*
X88309727Y-63498320D01*
X88048574Y-63390147D01*
X87771335Y-63335000D01*
X87488665Y-63335000D01*
X87211426Y-63390147D01*
X86950273Y-63498320D01*
X86715241Y-63655363D01*
X86515363Y-63855241D01*
X86360000Y-64087759D01*
X86204637Y-63855241D01*
X86004759Y-63655363D01*
X85769727Y-63498320D01*
X85508574Y-63390147D01*
X85231335Y-63335000D01*
X84948665Y-63335000D01*
X84671426Y-63390147D01*
X84410273Y-63498320D01*
X84175241Y-63655363D01*
X83975363Y-63855241D01*
X83820000Y-64087759D01*
X83664637Y-63855241D01*
X83464759Y-63655363D01*
X83229727Y-63498320D01*
X82968574Y-63390147D01*
X82691335Y-63335000D01*
X82408665Y-63335000D01*
X82131426Y-63390147D01*
X82040000Y-63428017D01*
X82040000Y-61274801D01*
X82224094Y-61090708D01*
X82268691Y-61104236D01*
X82479508Y-61125000D01*
X82620492Y-61125000D01*
X82831309Y-61104236D01*
X83101808Y-61022182D01*
X83351101Y-60888932D01*
X83569608Y-60709608D01*
X83748932Y-60491101D01*
X83820000Y-60358142D01*
X83891068Y-60491101D01*
X84070392Y-60709608D01*
X84288899Y-60888932D01*
X84538192Y-61022182D01*
X84808691Y-61104236D01*
X85019508Y-61125000D01*
X85160492Y-61125000D01*
X85371309Y-61104236D01*
X85641808Y-61022182D01*
X85891101Y-60888932D01*
X86109608Y-60709608D01*
X86288932Y-60491101D01*
X86360000Y-60358142D01*
X86431068Y-60491101D01*
X86610392Y-60709608D01*
X86828899Y-60888932D01*
X87078192Y-61022182D01*
X87348691Y-61104236D01*
X87559508Y-61125000D01*
X87700492Y-61125000D01*
X87911309Y-61104236D01*
X88181808Y-61022182D01*
X88431101Y-60888932D01*
X88649608Y-60709608D01*
X88828932Y-60491101D01*
X88902579Y-60353318D01*
X89017615Y-60545131D01*
X89206586Y-60753519D01*
X89432580Y-60921037D01*
X89686913Y-61041246D01*
X89820961Y-61081904D01*
X90043000Y-60959915D01*
X90043000Y-59817000D01*
X90023000Y-59817000D01*
X90023000Y-59563000D01*
X90043000Y-59563000D01*
X90043000Y-58420085D01*
X90297000Y-58420085D01*
X90297000Y-59563000D01*
X90317000Y-59563000D01*
X90317000Y-59817000D01*
X90297000Y-59817000D01*
X90297000Y-60959915D01*
X90519039Y-61081904D01*
X90653087Y-61041246D01*
X90907420Y-60921037D01*
X91133414Y-60753519D01*
X91281769Y-60589920D01*
X91284188Y-60614482D01*
X91320498Y-60734180D01*
X91379463Y-60844494D01*
X91458815Y-60941185D01*
X91555506Y-61020537D01*
X91665820Y-61079502D01*
X91785518Y-61115812D01*
X91910000Y-61128072D01*
X93510000Y-61128072D01*
X93634482Y-61115812D01*
X93754180Y-61079502D01*
X93864494Y-61020537D01*
X93961185Y-60941185D01*
X94040537Y-60844494D01*
X94099502Y-60734180D01*
X94135812Y-60614482D01*
X94148072Y-60490000D01*
X94148072Y-59201098D01*
X97945000Y-59201098D01*
X97945000Y-59670902D01*
X98036654Y-60131679D01*
X98216440Y-60565721D01*
X98477450Y-60956349D01*
X98809651Y-61288550D01*
X99200279Y-61549560D01*
X99634321Y-61729346D01*
X100095098Y-61821000D01*
X100564902Y-61821000D01*
X101025679Y-61729346D01*
X101459721Y-61549560D01*
X101850349Y-61288550D01*
X102182550Y-60956349D01*
X102443560Y-60565721D01*
X102623346Y-60131679D01*
X102715000Y-59670902D01*
X102715000Y-59201098D01*
X102623346Y-58740321D01*
X102443560Y-58306279D01*
X102182550Y-57915651D01*
X101850349Y-57583450D01*
X101459721Y-57322440D01*
X101025679Y-57142654D01*
X100564902Y-57051000D01*
X100095098Y-57051000D01*
X99634321Y-57142654D01*
X99200279Y-57322440D01*
X98809651Y-57583450D01*
X98477450Y-57915651D01*
X98216440Y-58306279D01*
X98036654Y-58740321D01*
X97945000Y-59201098D01*
X94148072Y-59201098D01*
X94148072Y-58890000D01*
X94135812Y-58765518D01*
X94099502Y-58645820D01*
X94040537Y-58535506D01*
X93961185Y-58438815D01*
X93864494Y-58359463D01*
X93754180Y-58300498D01*
X93634482Y-58264188D01*
X93510000Y-58251928D01*
X91910000Y-58251928D01*
X91785518Y-58264188D01*
X91665820Y-58300498D01*
X91555506Y-58359463D01*
X91458815Y-58438815D01*
X91379463Y-58535506D01*
X91320498Y-58645820D01*
X91284188Y-58765518D01*
X91281769Y-58790080D01*
X91133414Y-58626481D01*
X90907420Y-58458963D01*
X90653087Y-58338754D01*
X90519039Y-58298096D01*
X90297000Y-58420085D01*
X90043000Y-58420085D01*
X89820961Y-58298096D01*
X89686913Y-58338754D01*
X89432580Y-58458963D01*
X89206586Y-58626481D01*
X89017615Y-58834869D01*
X88902579Y-59026682D01*
X88828932Y-58888899D01*
X88649608Y-58670392D01*
X88431101Y-58491068D01*
X88181808Y-58357818D01*
X87911309Y-58275764D01*
X87700492Y-58255000D01*
X87559508Y-58255000D01*
X87348691Y-58275764D01*
X87078192Y-58357818D01*
X86828899Y-58491068D01*
X86610392Y-58670392D01*
X86431068Y-58888899D01*
X86360000Y-59021858D01*
X86288932Y-58888899D01*
X86109608Y-58670392D01*
X85891101Y-58491068D01*
X85641808Y-58357818D01*
X85371309Y-58275764D01*
X85160492Y-58255000D01*
X85019508Y-58255000D01*
X84808691Y-58275764D01*
X84538192Y-58357818D01*
X84288899Y-58491068D01*
X84070392Y-58670392D01*
X83891068Y-58888899D01*
X83820000Y-59021858D01*
X83748932Y-58888899D01*
X83569608Y-58670392D01*
X83351101Y-58491068D01*
X83101808Y-58357818D01*
X82831309Y-58275764D01*
X82620492Y-58255000D01*
X82479508Y-58255000D01*
X82268691Y-58275764D01*
X81998192Y-58357818D01*
X81748899Y-58491068D01*
X81530392Y-58670392D01*
X81351068Y-58888899D01*
X81280000Y-59021858D01*
X81208932Y-58888899D01*
X81029608Y-58670392D01*
X80811101Y-58491068D01*
X80561808Y-58357818D01*
X80291309Y-58275764D01*
X80080492Y-58255000D01*
X79939508Y-58255000D01*
X79728691Y-58275764D01*
X79458192Y-58357818D01*
X79208899Y-58491068D01*
X78990392Y-58670392D01*
X78811068Y-58888899D01*
X78677818Y-59138192D01*
X78595764Y-59408691D01*
X78568057Y-59690000D01*
X78595764Y-59971309D01*
X78677818Y-60241808D01*
X78811068Y-60491101D01*
X78990392Y-60709608D01*
X79208899Y-60888932D01*
X79458192Y-61022182D01*
X79728691Y-61104236D01*
X79939508Y-61125000D01*
X80080492Y-61125000D01*
X80291309Y-61104236D01*
X80520000Y-61034864D01*
X80520000Y-63428017D01*
X80428574Y-63390147D01*
X80151335Y-63335000D01*
X79868665Y-63335000D01*
X79591426Y-63390147D01*
X79330273Y-63498320D01*
X79095241Y-63655363D01*
X78895363Y-63855241D01*
X78738320Y-64090273D01*
X78630147Y-64351426D01*
X78575000Y-64628665D01*
X78575000Y-64911335D01*
X78630147Y-65188574D01*
X78738320Y-65449727D01*
X78895363Y-65684759D01*
X79095241Y-65884637D01*
X79330273Y-66041680D01*
X79591426Y-66149853D01*
X79868665Y-66205000D01*
X80151335Y-66205000D01*
X80428574Y-66149853D01*
X80520000Y-66111983D01*
X80520001Y-74892668D01*
X80516324Y-74930000D01*
X80530998Y-75078985D01*
X80574454Y-75222246D01*
X80645026Y-75354276D01*
X80716201Y-75441002D01*
X80740000Y-75470001D01*
X80768998Y-75493799D01*
X83891200Y-78616002D01*
X83914999Y-78645001D01*
X83943997Y-78668799D01*
X84030723Y-78739974D01*
X84162753Y-78810546D01*
X84258645Y-78839634D01*
X84175241Y-78895363D01*
X83975363Y-79095241D01*
X83820000Y-79327759D01*
X83664637Y-79095241D01*
X83464759Y-78895363D01*
X83229727Y-78738320D01*
X82968574Y-78630147D01*
X82691335Y-78575000D01*
X82408665Y-78575000D01*
X82131426Y-78630147D01*
X81870273Y-78738320D01*
X81635241Y-78895363D01*
X81436643Y-79093961D01*
X81435812Y-79085518D01*
X81399502Y-78965820D01*
X81340537Y-78855506D01*
X81261185Y-78758815D01*
X81164494Y-78679463D01*
X81054180Y-78620498D01*
X80934482Y-78584188D01*
X80810000Y-78571928D01*
X80295750Y-78575000D01*
X80137000Y-78733750D01*
X80137000Y-79883000D01*
X80157000Y-79883000D01*
X80157000Y-80137000D01*
X80137000Y-80137000D01*
X80137000Y-81286250D01*
X80295750Y-81445000D01*
X80810000Y-81448072D01*
X80934482Y-81435812D01*
X81054180Y-81399502D01*
X81164494Y-81340537D01*
X81261185Y-81261185D01*
X81340537Y-81164494D01*
X81399502Y-81054180D01*
X81435812Y-80934482D01*
X81436643Y-80926039D01*
X81635241Y-81124637D01*
X81870273Y-81281680D01*
X82131426Y-81389853D01*
X82408665Y-81445000D01*
X82691335Y-81445000D01*
X82968574Y-81389853D01*
X83229727Y-81281680D01*
X83464759Y-81124637D01*
X83664637Y-80924759D01*
X83820000Y-80692241D01*
X83975363Y-80924759D01*
X84175241Y-81124637D01*
X84410273Y-81281680D01*
X84671426Y-81389853D01*
X84948665Y-81445000D01*
X85231335Y-81445000D01*
X85508574Y-81389853D01*
X85769727Y-81281680D01*
X86004759Y-81124637D01*
X86204637Y-80924759D01*
X86360000Y-80692241D01*
X86515363Y-80924759D01*
X86715241Y-81124637D01*
X86950273Y-81281680D01*
X87211426Y-81389853D01*
X87488665Y-81445000D01*
X87771335Y-81445000D01*
X88048574Y-81389853D01*
X88309727Y-81281680D01*
X88544759Y-81124637D01*
X88744637Y-80924759D01*
X88900000Y-80692241D01*
X89055363Y-80924759D01*
X89255241Y-81124637D01*
X89490273Y-81281680D01*
X89751426Y-81389853D01*
X90028665Y-81445000D01*
X90311335Y-81445000D01*
X90588574Y-81389853D01*
X90849727Y-81281680D01*
X91084759Y-81124637D01*
X91284637Y-80924759D01*
X91440000Y-80692241D01*
X91595363Y-80924759D01*
X91795241Y-81124637D01*
X92030273Y-81281680D01*
X92291426Y-81389853D01*
X92568665Y-81445000D01*
X92851335Y-81445000D01*
X93128574Y-81389853D01*
X93389727Y-81281680D01*
X93624759Y-81124637D01*
X93824637Y-80924759D01*
X93980000Y-80692241D01*
X94135363Y-80924759D01*
X94335241Y-81124637D01*
X94570273Y-81281680D01*
X94831426Y-81389853D01*
X95108665Y-81445000D01*
X95391335Y-81445000D01*
X95668574Y-81389853D01*
X95929727Y-81281680D01*
X96164759Y-81124637D01*
X96364637Y-80924759D01*
X96520000Y-80692241D01*
X96675363Y-80924759D01*
X96875241Y-81124637D01*
X97110273Y-81281680D01*
X97371426Y-81389853D01*
X97648665Y-81445000D01*
X97931335Y-81445000D01*
X98113886Y-81408688D01*
X99131200Y-82426002D01*
X99154999Y-82455001D01*
X99270724Y-82549974D01*
X99402753Y-82620546D01*
X99495320Y-82648625D01*
X99310392Y-82800392D01*
X99131068Y-83018899D01*
X99060000Y-83151858D01*
X98988932Y-83018899D01*
X98809608Y-82800392D01*
X98591101Y-82621068D01*
X98341808Y-82487818D01*
X98071309Y-82405764D01*
X97860492Y-82385000D01*
X97719508Y-82385000D01*
X97508691Y-82405764D01*
X97238192Y-82487818D01*
X96988899Y-82621068D01*
X96770392Y-82800392D01*
X96591068Y-83018899D01*
X96517421Y-83156682D01*
X96402385Y-82964869D01*
X96213414Y-82756481D01*
X95987420Y-82588963D01*
X95733087Y-82468754D01*
X95599039Y-82428096D01*
X95377000Y-82550085D01*
X95377000Y-83693000D01*
X95397000Y-83693000D01*
X95397000Y-83947000D01*
X95377000Y-83947000D01*
X95377000Y-85089915D01*
X95599039Y-85211904D01*
X95733087Y-85171246D01*
X95987420Y-85051037D01*
X96213414Y-84883519D01*
X96402385Y-84675131D01*
X96517421Y-84483318D01*
X96591068Y-84621101D01*
X96770392Y-84839608D01*
X96988899Y-85018932D01*
X97238192Y-85152182D01*
X97508691Y-85234236D01*
X97719508Y-85255000D01*
X97860492Y-85255000D01*
X98071309Y-85234236D01*
X98341808Y-85152182D01*
X98591101Y-85018932D01*
X98809608Y-84839608D01*
X98988932Y-84621101D01*
X99060000Y-84488142D01*
X99131068Y-84621101D01*
X99310392Y-84839608D01*
X99528899Y-85018932D01*
X99778192Y-85152182D01*
X100048691Y-85234236D01*
X100259508Y-85255000D01*
X100400492Y-85255000D01*
X100611309Y-85234236D01*
X100881808Y-85152182D01*
X101131101Y-85018932D01*
X101349608Y-84839608D01*
X101528932Y-84621101D01*
X101600000Y-84488142D01*
X101671068Y-84621101D01*
X101850392Y-84839608D01*
X102068899Y-85018932D01*
X102318192Y-85152182D01*
X102588691Y-85234236D01*
X102799508Y-85255000D01*
X102940492Y-85255000D01*
X103151309Y-85234236D01*
X103421808Y-85152182D01*
X103671101Y-85018932D01*
X103889608Y-84839608D01*
X104068932Y-84621101D01*
X104140000Y-84488142D01*
X104211068Y-84621101D01*
X104390392Y-84839608D01*
X104608899Y-85018932D01*
X104858192Y-85152182D01*
X105128691Y-85234236D01*
X105339508Y-85255000D01*
X105480492Y-85255000D01*
X105691309Y-85234236D01*
X105961808Y-85152182D01*
X106211101Y-85018932D01*
X106429608Y-84839608D01*
X106608932Y-84621101D01*
X106680000Y-84488142D01*
X106751068Y-84621101D01*
X106930392Y-84839608D01*
X107148899Y-85018932D01*
X107398192Y-85152182D01*
X107668691Y-85234236D01*
X107879508Y-85255000D01*
X108020492Y-85255000D01*
X108231309Y-85234236D01*
X108501808Y-85152182D01*
X108751101Y-85018932D01*
X108969608Y-84839608D01*
X109148932Y-84621101D01*
X109220000Y-84488142D01*
X109291068Y-84621101D01*
X109470392Y-84839608D01*
X109688899Y-85018932D01*
X109938192Y-85152182D01*
X110208691Y-85234236D01*
X110419508Y-85255000D01*
X110560492Y-85255000D01*
X110771309Y-85234236D01*
X111041808Y-85152182D01*
X111291101Y-85018932D01*
X111509608Y-84839608D01*
X111688932Y-84621101D01*
X111760000Y-84488142D01*
X111831068Y-84621101D01*
X112010392Y-84839608D01*
X112228899Y-85018932D01*
X112478192Y-85152182D01*
X112748691Y-85234236D01*
X112959508Y-85255000D01*
X113100492Y-85255000D01*
X113311309Y-85234236D01*
X113581808Y-85152182D01*
X113831101Y-85018932D01*
X114049608Y-84839608D01*
X114228932Y-84621101D01*
X114300000Y-84488142D01*
X114371068Y-84621101D01*
X114550392Y-84839608D01*
X114768899Y-85018932D01*
X115018192Y-85152182D01*
X115288691Y-85234236D01*
X115499508Y-85255000D01*
X115640492Y-85255000D01*
X115851309Y-85234236D01*
X116121808Y-85152182D01*
X116371101Y-85018932D01*
X116589608Y-84839608D01*
X116682419Y-84726518D01*
X116684188Y-84744482D01*
X116720498Y-84864180D01*
X116779463Y-84974494D01*
X116858815Y-85071185D01*
X116955506Y-85150537D01*
X117065820Y-85209502D01*
X117185518Y-85245812D01*
X117310000Y-85258072D01*
X117824250Y-85255000D01*
X117983000Y-85096250D01*
X117983000Y-83947000D01*
X118237000Y-83947000D01*
X118237000Y-85096250D01*
X118395750Y-85255000D01*
X118910000Y-85258072D01*
X119034482Y-85245812D01*
X119154180Y-85209502D01*
X119264494Y-85150537D01*
X119361185Y-85071185D01*
X119440537Y-84974494D01*
X119499502Y-84864180D01*
X119535812Y-84744482D01*
X119548072Y-84620000D01*
X119545000Y-84105750D01*
X119386250Y-83947000D01*
X118237000Y-83947000D01*
X117983000Y-83947000D01*
X117963000Y-83947000D01*
X117963000Y-83693000D01*
X117983000Y-83693000D01*
X117983000Y-82543750D01*
X118237000Y-82543750D01*
X118237000Y-83693000D01*
X119386250Y-83693000D01*
X119545000Y-83534250D01*
X119548072Y-83020000D01*
X119535812Y-82895518D01*
X119499502Y-82775820D01*
X119440537Y-82665506D01*
X119361185Y-82568815D01*
X119264494Y-82489463D01*
X119154180Y-82430498D01*
X119034482Y-82394188D01*
X118910000Y-82381928D01*
X118395750Y-82385000D01*
X118237000Y-82543750D01*
X117983000Y-82543750D01*
X117824250Y-82385000D01*
X117310000Y-82381928D01*
X117185518Y-82394188D01*
X117065820Y-82430498D01*
X116955506Y-82489463D01*
X116858815Y-82568815D01*
X116779463Y-82665506D01*
X116720498Y-82775820D01*
X116684188Y-82895518D01*
X116682419Y-82913482D01*
X116589608Y-82800392D01*
X116371101Y-82621068D01*
X116121808Y-82487818D01*
X115851309Y-82405764D01*
X115640492Y-82385000D01*
X115499508Y-82385000D01*
X115288691Y-82405764D01*
X115018192Y-82487818D01*
X114768899Y-82621068D01*
X114550392Y-82800392D01*
X114371068Y-83018899D01*
X114300000Y-83151858D01*
X114228932Y-83018899D01*
X114049608Y-82800392D01*
X113831101Y-82621068D01*
X113581808Y-82487818D01*
X113311309Y-82405764D01*
X113100492Y-82385000D01*
X112959508Y-82385000D01*
X112748691Y-82405764D01*
X112478192Y-82487818D01*
X112228899Y-82621068D01*
X112010392Y-82800392D01*
X111831068Y-83018899D01*
X111760000Y-83151858D01*
X111688932Y-83018899D01*
X111509608Y-82800392D01*
X111291101Y-82621068D01*
X111041808Y-82487818D01*
X110771309Y-82405764D01*
X110560492Y-82385000D01*
X110419508Y-82385000D01*
X110208691Y-82405764D01*
X110164094Y-82419292D01*
X109148804Y-81404003D01*
X109125001Y-81374999D01*
X109009276Y-81280026D01*
X108877247Y-81209454D01*
X108781355Y-81180366D01*
X108864759Y-81124637D01*
X109064637Y-80924759D01*
X109220000Y-80692241D01*
X109375363Y-80924759D01*
X109575241Y-81124637D01*
X109810273Y-81281680D01*
X110071426Y-81389853D01*
X110348665Y-81445000D01*
X110631335Y-81445000D01*
X110908574Y-81389853D01*
X111169727Y-81281680D01*
X111404759Y-81124637D01*
X111604637Y-80924759D01*
X111760000Y-80692241D01*
X111915363Y-80924759D01*
X112115241Y-81124637D01*
X112350273Y-81281680D01*
X112611426Y-81389853D01*
X112888665Y-81445000D01*
X113171335Y-81445000D01*
X113448574Y-81389853D01*
X113709727Y-81281680D01*
X113944759Y-81124637D01*
X114144637Y-80924759D01*
X114300000Y-80692241D01*
X114455363Y-80924759D01*
X114655241Y-81124637D01*
X114890273Y-81281680D01*
X115151426Y-81389853D01*
X115428665Y-81445000D01*
X115711335Y-81445000D01*
X115988574Y-81389853D01*
X116249727Y-81281680D01*
X116484759Y-81124637D01*
X116684637Y-80924759D01*
X116840000Y-80692241D01*
X116995363Y-80924759D01*
X117195241Y-81124637D01*
X117430273Y-81281680D01*
X117691426Y-81389853D01*
X117968665Y-81445000D01*
X118251335Y-81445000D01*
X118528574Y-81389853D01*
X118789727Y-81281680D01*
X119024759Y-81124637D01*
X119224637Y-80924759D01*
X119380000Y-80692241D01*
X119535363Y-80924759D01*
X119735241Y-81124637D01*
X119970273Y-81281680D01*
X120231426Y-81389853D01*
X120508665Y-81445000D01*
X120791335Y-81445000D01*
X121068574Y-81389853D01*
X121329727Y-81281680D01*
X121564759Y-81124637D01*
X121764637Y-80924759D01*
X121920000Y-80692241D01*
X122075363Y-80924759D01*
X122275241Y-81124637D01*
X122510273Y-81281680D01*
X122771426Y-81389853D01*
X123048665Y-81445000D01*
X123331335Y-81445000D01*
X123608574Y-81389853D01*
X123869727Y-81281680D01*
X124104759Y-81124637D01*
X124304637Y-80924759D01*
X124460000Y-80692241D01*
X124615363Y-80924759D01*
X124815241Y-81124637D01*
X125050273Y-81281680D01*
X125311426Y-81389853D01*
X125588665Y-81445000D01*
X125871335Y-81445000D01*
X126148574Y-81389853D01*
X126409727Y-81281680D01*
X126644759Y-81124637D01*
X126844637Y-80924759D01*
X127000000Y-80692241D01*
X127155363Y-80924759D01*
X127355241Y-81124637D01*
X127590273Y-81281680D01*
X127851426Y-81389853D01*
X128128665Y-81445000D01*
X128411335Y-81445000D01*
X128688574Y-81389853D01*
X128880001Y-81310562D01*
X128880001Y-100940000D01*
X76860000Y-100940000D01*
X76860000Y-97555098D01*
X77625000Y-97555098D01*
X77625000Y-98024902D01*
X77716654Y-98485679D01*
X77896440Y-98919721D01*
X78157450Y-99310349D01*
X78489651Y-99642550D01*
X78880279Y-99903560D01*
X79314321Y-100083346D01*
X79775098Y-100175000D01*
X80244902Y-100175000D01*
X80705679Y-100083346D01*
X81139721Y-99903560D01*
X81530349Y-99642550D01*
X81862550Y-99310349D01*
X82123560Y-98919721D01*
X82303346Y-98485679D01*
X82395000Y-98024902D01*
X82395000Y-97555098D01*
X82303346Y-97094321D01*
X82123560Y-96660279D01*
X82029829Y-96520000D01*
X92474149Y-96520000D01*
X92503084Y-96813777D01*
X92588775Y-97096264D01*
X92727931Y-97356606D01*
X92915203Y-97584797D01*
X93143394Y-97772069D01*
X93176940Y-97790000D01*
X93143394Y-97807931D01*
X92915203Y-97995203D01*
X92727931Y-98223394D01*
X92588775Y-98483736D01*
X92503084Y-98766223D01*
X92474149Y-99060000D01*
X92503084Y-99353777D01*
X92588775Y-99636264D01*
X92727931Y-99896606D01*
X92915203Y-100124797D01*
X93143394Y-100312069D01*
X93403736Y-100451225D01*
X93686223Y-100536916D01*
X93906381Y-100558600D01*
X94053619Y-100558600D01*
X94273777Y-100536916D01*
X94556264Y-100451225D01*
X94816606Y-100312069D01*
X95044797Y-100124797D01*
X95232069Y-99896606D01*
X95255863Y-99852090D01*
X95313183Y-99948488D01*
X95509707Y-100166854D01*
X95745056Y-100342684D01*
X96010186Y-100469222D01*
X96160974Y-100514958D01*
X96393000Y-100393817D01*
X96393000Y-99187000D01*
X96647000Y-99187000D01*
X96647000Y-100393817D01*
X96879026Y-100514958D01*
X97029814Y-100469222D01*
X97294944Y-100342684D01*
X97530293Y-100166854D01*
X97726817Y-99948488D01*
X97790000Y-99842230D01*
X97853183Y-99948488D01*
X98049707Y-100166854D01*
X98285056Y-100342684D01*
X98550186Y-100469222D01*
X98700974Y-100514958D01*
X98933000Y-100393817D01*
X98933000Y-99187000D01*
X99187000Y-99187000D01*
X99187000Y-100393817D01*
X99419026Y-100514958D01*
X99569814Y-100469222D01*
X99834944Y-100342684D01*
X100070293Y-100166854D01*
X100266817Y-99948488D01*
X100330000Y-99842230D01*
X100393183Y-99948488D01*
X100589707Y-100166854D01*
X100825056Y-100342684D01*
X101090186Y-100469222D01*
X101240974Y-100514958D01*
X101473000Y-100393817D01*
X101473000Y-99187000D01*
X101727000Y-99187000D01*
X101727000Y-100393817D01*
X101959026Y-100514958D01*
X102109814Y-100469222D01*
X102374944Y-100342684D01*
X102610293Y-100166854D01*
X102806817Y-99948488D01*
X102870000Y-99842230D01*
X102933183Y-99948488D01*
X103129707Y-100166854D01*
X103365056Y-100342684D01*
X103630186Y-100469222D01*
X103780974Y-100514958D01*
X104013000Y-100393817D01*
X104013000Y-99187000D01*
X104267000Y-99187000D01*
X104267000Y-100393817D01*
X104499026Y-100514958D01*
X104649814Y-100469222D01*
X104914944Y-100342684D01*
X105150293Y-100166854D01*
X105346817Y-99948488D01*
X105410000Y-99842230D01*
X105473183Y-99948488D01*
X105669707Y-100166854D01*
X105905056Y-100342684D01*
X106170186Y-100469222D01*
X106320974Y-100514958D01*
X106553000Y-100393817D01*
X106553000Y-99187000D01*
X106807000Y-99187000D01*
X106807000Y-100393817D01*
X107039026Y-100514958D01*
X107189814Y-100469222D01*
X107454944Y-100342684D01*
X107690293Y-100166854D01*
X107886817Y-99948488D01*
X107950000Y-99842230D01*
X108013183Y-99948488D01*
X108209707Y-100166854D01*
X108445056Y-100342684D01*
X108710186Y-100469222D01*
X108860974Y-100514958D01*
X109093000Y-100393817D01*
X109093000Y-99187000D01*
X109347000Y-99187000D01*
X109347000Y-100393817D01*
X109579026Y-100514958D01*
X109729814Y-100469222D01*
X109994944Y-100342684D01*
X110230293Y-100166854D01*
X110426817Y-99948488D01*
X110490000Y-99842230D01*
X110553183Y-99948488D01*
X110749707Y-100166854D01*
X110985056Y-100342684D01*
X111250186Y-100469222D01*
X111400974Y-100514958D01*
X111633000Y-100393817D01*
X111633000Y-99187000D01*
X111887000Y-99187000D01*
X111887000Y-100393817D01*
X112119026Y-100514958D01*
X112269814Y-100469222D01*
X112534944Y-100342684D01*
X112770293Y-100166854D01*
X112966817Y-99948488D01*
X113030000Y-99842230D01*
X113093183Y-99948488D01*
X113289707Y-100166854D01*
X113525056Y-100342684D01*
X113790186Y-100469222D01*
X113940974Y-100514958D01*
X114173000Y-100393817D01*
X114173000Y-99187000D01*
X114427000Y-99187000D01*
X114427000Y-100393817D01*
X114659026Y-100514958D01*
X114809814Y-100469222D01*
X115074944Y-100342684D01*
X115310293Y-100166854D01*
X115506817Y-99948488D01*
X115570000Y-99842230D01*
X115633183Y-99948488D01*
X115829707Y-100166854D01*
X116065056Y-100342684D01*
X116330186Y-100469222D01*
X116480974Y-100514958D01*
X116713000Y-100393817D01*
X116713000Y-99187000D01*
X116967000Y-99187000D01*
X116967000Y-100393817D01*
X117199026Y-100514958D01*
X117349814Y-100469222D01*
X117614944Y-100342684D01*
X117850293Y-100166854D01*
X118046817Y-99948488D01*
X118110000Y-99842230D01*
X118173183Y-99948488D01*
X118369707Y-100166854D01*
X118605056Y-100342684D01*
X118870186Y-100469222D01*
X119020974Y-100514958D01*
X119253000Y-100393817D01*
X119253000Y-99187000D01*
X119507000Y-99187000D01*
X119507000Y-100393817D01*
X119739026Y-100514958D01*
X119889814Y-100469222D01*
X120154944Y-100342684D01*
X120390293Y-100166854D01*
X120586817Y-99948488D01*
X120650000Y-99842230D01*
X120713183Y-99948488D01*
X120909707Y-100166854D01*
X121145056Y-100342684D01*
X121410186Y-100469222D01*
X121560974Y-100514958D01*
X121793000Y-100393817D01*
X121793000Y-99187000D01*
X122047000Y-99187000D01*
X122047000Y-100393817D01*
X122279026Y-100514958D01*
X122429814Y-100469222D01*
X122694944Y-100342684D01*
X122930293Y-100166854D01*
X123126817Y-99948488D01*
X123190000Y-99842230D01*
X123253183Y-99948488D01*
X123449707Y-100166854D01*
X123685056Y-100342684D01*
X123950186Y-100469222D01*
X124100974Y-100514958D01*
X124333000Y-100393817D01*
X124333000Y-99187000D01*
X124587000Y-99187000D01*
X124587000Y-100393817D01*
X124819026Y-100514958D01*
X124969814Y-100469222D01*
X125234944Y-100342684D01*
X125470293Y-100166854D01*
X125666817Y-99948488D01*
X125816964Y-99695978D01*
X125914963Y-99419027D01*
X125794464Y-99187000D01*
X124587000Y-99187000D01*
X124333000Y-99187000D01*
X122047000Y-99187000D01*
X121793000Y-99187000D01*
X119507000Y-99187000D01*
X119253000Y-99187000D01*
X116967000Y-99187000D01*
X116713000Y-99187000D01*
X114427000Y-99187000D01*
X114173000Y-99187000D01*
X111887000Y-99187000D01*
X111633000Y-99187000D01*
X109347000Y-99187000D01*
X109093000Y-99187000D01*
X106807000Y-99187000D01*
X106553000Y-99187000D01*
X104267000Y-99187000D01*
X104013000Y-99187000D01*
X101727000Y-99187000D01*
X101473000Y-99187000D01*
X99187000Y-99187000D01*
X98933000Y-99187000D01*
X96647000Y-99187000D01*
X96393000Y-99187000D01*
X96373000Y-99187000D01*
X96373000Y-98933000D01*
X96393000Y-98933000D01*
X96393000Y-98913000D01*
X96647000Y-98913000D01*
X96647000Y-98933000D01*
X98933000Y-98933000D01*
X98933000Y-98913000D01*
X99187000Y-98913000D01*
X99187000Y-98933000D01*
X101473000Y-98933000D01*
X101473000Y-98913000D01*
X101727000Y-98913000D01*
X101727000Y-98933000D01*
X104013000Y-98933000D01*
X104013000Y-98913000D01*
X104267000Y-98913000D01*
X104267000Y-98933000D01*
X106553000Y-98933000D01*
X106553000Y-98913000D01*
X106807000Y-98913000D01*
X106807000Y-98933000D01*
X109093000Y-98933000D01*
X109093000Y-98913000D01*
X109347000Y-98913000D01*
X109347000Y-98933000D01*
X111633000Y-98933000D01*
X111633000Y-98913000D01*
X111887000Y-98913000D01*
X111887000Y-98933000D01*
X114173000Y-98933000D01*
X114173000Y-98913000D01*
X114427000Y-98913000D01*
X114427000Y-98933000D01*
X116713000Y-98933000D01*
X116713000Y-98913000D01*
X116967000Y-98913000D01*
X116967000Y-98933000D01*
X119253000Y-98933000D01*
X119253000Y-98913000D01*
X119507000Y-98913000D01*
X119507000Y-98933000D01*
X121793000Y-98933000D01*
X121793000Y-98913000D01*
X122047000Y-98913000D01*
X122047000Y-98933000D01*
X124333000Y-98933000D01*
X124333000Y-98913000D01*
X124587000Y-98913000D01*
X124587000Y-98933000D01*
X125794464Y-98933000D01*
X125914963Y-98700973D01*
X125816964Y-98424022D01*
X125666817Y-98171512D01*
X125505308Y-97992053D01*
X125567780Y-97973102D01*
X125678094Y-97914137D01*
X125774785Y-97834785D01*
X125854137Y-97738094D01*
X125913102Y-97627780D01*
X125949412Y-97508082D01*
X125961672Y-97383600D01*
X125961672Y-95656400D01*
X125949412Y-95531918D01*
X125913102Y-95412220D01*
X125854137Y-95301906D01*
X125774785Y-95205215D01*
X125678094Y-95125863D01*
X125567780Y-95066898D01*
X125448082Y-95030588D01*
X125323600Y-95018328D01*
X123596400Y-95018328D01*
X123471918Y-95030588D01*
X123352220Y-95066898D01*
X123241906Y-95125863D01*
X123145215Y-95205215D01*
X123065863Y-95301906D01*
X123006898Y-95412220D01*
X122991414Y-95463265D01*
X122984797Y-95455203D01*
X122756606Y-95267931D01*
X122496264Y-95128775D01*
X122213777Y-95043084D01*
X121993619Y-95021400D01*
X121846381Y-95021400D01*
X121626223Y-95043084D01*
X121343736Y-95128775D01*
X121083394Y-95267931D01*
X120855203Y-95455203D01*
X120667931Y-95683394D01*
X120650000Y-95716940D01*
X120632069Y-95683394D01*
X120444797Y-95455203D01*
X120216606Y-95267931D01*
X119956264Y-95128775D01*
X119673777Y-95043084D01*
X119453619Y-95021400D01*
X119306381Y-95021400D01*
X119086223Y-95043084D01*
X118803736Y-95128775D01*
X118543394Y-95267931D01*
X118315203Y-95455203D01*
X118127931Y-95683394D01*
X118110000Y-95716940D01*
X118092069Y-95683394D01*
X117904797Y-95455203D01*
X117676606Y-95267931D01*
X117416264Y-95128775D01*
X117133777Y-95043084D01*
X116913619Y-95021400D01*
X116766381Y-95021400D01*
X116546223Y-95043084D01*
X116263736Y-95128775D01*
X116003394Y-95267931D01*
X115775203Y-95455203D01*
X115587931Y-95683394D01*
X115570000Y-95716940D01*
X115552069Y-95683394D01*
X115364797Y-95455203D01*
X115136606Y-95267931D01*
X114876264Y-95128775D01*
X114593777Y-95043084D01*
X114373619Y-95021400D01*
X114226381Y-95021400D01*
X114006223Y-95043084D01*
X113723736Y-95128775D01*
X113463394Y-95267931D01*
X113235203Y-95455203D01*
X113047931Y-95683394D01*
X113030000Y-95716940D01*
X113012069Y-95683394D01*
X112824797Y-95455203D01*
X112596606Y-95267931D01*
X112336264Y-95128775D01*
X112053777Y-95043084D01*
X111833619Y-95021400D01*
X111686381Y-95021400D01*
X111466223Y-95043084D01*
X111183736Y-95128775D01*
X110923394Y-95267931D01*
X110695203Y-95455203D01*
X110507931Y-95683394D01*
X110490000Y-95716940D01*
X110472069Y-95683394D01*
X110284797Y-95455203D01*
X110056606Y-95267931D01*
X109796264Y-95128775D01*
X109513777Y-95043084D01*
X109293619Y-95021400D01*
X109146381Y-95021400D01*
X108926223Y-95043084D01*
X108643736Y-95128775D01*
X108383394Y-95267931D01*
X108155203Y-95455203D01*
X107967931Y-95683394D01*
X107950000Y-95716940D01*
X107932069Y-95683394D01*
X107744797Y-95455203D01*
X107516606Y-95267931D01*
X107256264Y-95128775D01*
X106973777Y-95043084D01*
X106753619Y-95021400D01*
X106606381Y-95021400D01*
X106386223Y-95043084D01*
X106103736Y-95128775D01*
X105843394Y-95267931D01*
X105615203Y-95455203D01*
X105427931Y-95683394D01*
X105410000Y-95716940D01*
X105392069Y-95683394D01*
X105204797Y-95455203D01*
X104976606Y-95267931D01*
X104716264Y-95128775D01*
X104433777Y-95043084D01*
X104213619Y-95021400D01*
X104066381Y-95021400D01*
X103846223Y-95043084D01*
X103563736Y-95128775D01*
X103303394Y-95267931D01*
X103075203Y-95455203D01*
X102887931Y-95683394D01*
X102870000Y-95716940D01*
X102852069Y-95683394D01*
X102664797Y-95455203D01*
X102436606Y-95267931D01*
X102176264Y-95128775D01*
X101893777Y-95043084D01*
X101673619Y-95021400D01*
X101526381Y-95021400D01*
X101306223Y-95043084D01*
X101023736Y-95128775D01*
X100763394Y-95267931D01*
X100535203Y-95455203D01*
X100347931Y-95683394D01*
X100330000Y-95716940D01*
X100312069Y-95683394D01*
X100124797Y-95455203D01*
X99896606Y-95267931D01*
X99636264Y-95128775D01*
X99353777Y-95043084D01*
X99133619Y-95021400D01*
X98986381Y-95021400D01*
X98766223Y-95043084D01*
X98483736Y-95128775D01*
X98223394Y-95267931D01*
X97995203Y-95455203D01*
X97807931Y-95683394D01*
X97790000Y-95716940D01*
X97772069Y-95683394D01*
X97584797Y-95455203D01*
X97356606Y-95267931D01*
X97096264Y-95128775D01*
X96813777Y-95043084D01*
X96593619Y-95021400D01*
X96446381Y-95021400D01*
X96226223Y-95043084D01*
X95943736Y-95128775D01*
X95683394Y-95267931D01*
X95455203Y-95455203D01*
X95267931Y-95683394D01*
X95250000Y-95716940D01*
X95232069Y-95683394D01*
X95044797Y-95455203D01*
X94816606Y-95267931D01*
X94556264Y-95128775D01*
X94273777Y-95043084D01*
X94053619Y-95021400D01*
X93906381Y-95021400D01*
X93686223Y-95043084D01*
X93403736Y-95128775D01*
X93143394Y-95267931D01*
X92915203Y-95455203D01*
X92727931Y-95683394D01*
X92588775Y-95943736D01*
X92503084Y-96226223D01*
X92474149Y-96520000D01*
X82029829Y-96520000D01*
X81862550Y-96269651D01*
X81530349Y-95937450D01*
X81139721Y-95676440D01*
X80705679Y-95496654D01*
X80244902Y-95405000D01*
X79775098Y-95405000D01*
X79314321Y-95496654D01*
X78880279Y-95676440D01*
X78489651Y-95937450D01*
X78157450Y-96269651D01*
X77896440Y-96660279D01*
X77716654Y-97094321D01*
X77625000Y-97555098D01*
X76860000Y-97555098D01*
X76860000Y-91081890D01*
X77173524Y-91081890D01*
X77265648Y-91344858D01*
X77412504Y-91596193D01*
X77605571Y-91814049D01*
X77837430Y-91990053D01*
X78099170Y-92117442D01*
X78380733Y-92191320D01*
X78613000Y-92051165D01*
X78613000Y-90852000D01*
X78867000Y-90852000D01*
X78867000Y-92051165D01*
X79099267Y-92191320D01*
X79380830Y-92117442D01*
X79642570Y-91990053D01*
X79874429Y-91814049D01*
X80067496Y-91596193D01*
X80158760Y-91440000D01*
X93808057Y-91440000D01*
X93835764Y-91721309D01*
X93917818Y-91991808D01*
X94051068Y-92241101D01*
X94230392Y-92459608D01*
X94448899Y-92638932D01*
X94698192Y-92772182D01*
X94968691Y-92854236D01*
X95179508Y-92875000D01*
X95320492Y-92875000D01*
X95531309Y-92854236D01*
X95801808Y-92772182D01*
X96051101Y-92638932D01*
X96269608Y-92459608D01*
X96448932Y-92241101D01*
X96520000Y-92108142D01*
X96591068Y-92241101D01*
X96770392Y-92459608D01*
X96988899Y-92638932D01*
X97238192Y-92772182D01*
X97508691Y-92854236D01*
X97719508Y-92875000D01*
X97860492Y-92875000D01*
X98071309Y-92854236D01*
X98341808Y-92772182D01*
X98591101Y-92638932D01*
X98809608Y-92459608D01*
X98988932Y-92241101D01*
X99060000Y-92108142D01*
X99131068Y-92241101D01*
X99310392Y-92459608D01*
X99528899Y-92638932D01*
X99778192Y-92772182D01*
X100048691Y-92854236D01*
X100259508Y-92875000D01*
X100400492Y-92875000D01*
X100611309Y-92854236D01*
X100881808Y-92772182D01*
X101131101Y-92638932D01*
X101349608Y-92459608D01*
X101528932Y-92241101D01*
X101602579Y-92103318D01*
X101717615Y-92295131D01*
X101906586Y-92503519D01*
X102132580Y-92671037D01*
X102386913Y-92791246D01*
X102520961Y-92831904D01*
X102743000Y-92709915D01*
X102743000Y-91567000D01*
X102723000Y-91567000D01*
X102723000Y-91313000D01*
X102743000Y-91313000D01*
X102743000Y-90170085D01*
X102997000Y-90170085D01*
X102997000Y-91313000D01*
X103017000Y-91313000D01*
X103017000Y-91567000D01*
X102997000Y-91567000D01*
X102997000Y-92709915D01*
X103219039Y-92831904D01*
X103353087Y-92791246D01*
X103607420Y-92671037D01*
X103833414Y-92503519D01*
X104022385Y-92295131D01*
X104137421Y-92103318D01*
X104211068Y-92241101D01*
X104390392Y-92459608D01*
X104608899Y-92638932D01*
X104858192Y-92772182D01*
X105128691Y-92854236D01*
X105339508Y-92875000D01*
X105480492Y-92875000D01*
X105691309Y-92854236D01*
X105961808Y-92772182D01*
X106211101Y-92638932D01*
X106429608Y-92459608D01*
X106608932Y-92241101D01*
X106680000Y-92108142D01*
X106751068Y-92241101D01*
X106930392Y-92459608D01*
X107148899Y-92638932D01*
X107398192Y-92772182D01*
X107668691Y-92854236D01*
X107879508Y-92875000D01*
X108020492Y-92875000D01*
X108231309Y-92854236D01*
X108501808Y-92772182D01*
X108751101Y-92638932D01*
X108969608Y-92459608D01*
X109148932Y-92241101D01*
X109222579Y-92103318D01*
X109337615Y-92295131D01*
X109526586Y-92503519D01*
X109752580Y-92671037D01*
X110006913Y-92791246D01*
X110140961Y-92831904D01*
X110363000Y-92709915D01*
X110363000Y-91567000D01*
X110617000Y-91567000D01*
X110617000Y-92709915D01*
X110839039Y-92831904D01*
X110973087Y-92791246D01*
X111227420Y-92671037D01*
X111453414Y-92503519D01*
X111642385Y-92295131D01*
X111760000Y-92099018D01*
X111877615Y-92295131D01*
X112066586Y-92503519D01*
X112292580Y-92671037D01*
X112546913Y-92791246D01*
X112680961Y-92831904D01*
X112903000Y-92709915D01*
X112903000Y-91567000D01*
X110617000Y-91567000D01*
X110363000Y-91567000D01*
X110343000Y-91567000D01*
X110343000Y-91313000D01*
X110363000Y-91313000D01*
X110363000Y-90170085D01*
X110617000Y-90170085D01*
X110617000Y-91313000D01*
X112903000Y-91313000D01*
X112903000Y-90170085D01*
X113157000Y-90170085D01*
X113157000Y-91313000D01*
X113177000Y-91313000D01*
X113177000Y-91567000D01*
X113157000Y-91567000D01*
X113157000Y-92709915D01*
X113379039Y-92831904D01*
X113513087Y-92791246D01*
X113767420Y-92671037D01*
X113993414Y-92503519D01*
X114182385Y-92295131D01*
X114297421Y-92103318D01*
X114371068Y-92241101D01*
X114550392Y-92459608D01*
X114768899Y-92638932D01*
X115018192Y-92772182D01*
X115288691Y-92854236D01*
X115499508Y-92875000D01*
X115640492Y-92875000D01*
X115851309Y-92854236D01*
X116121808Y-92772182D01*
X116371101Y-92638932D01*
X116589608Y-92459608D01*
X116768932Y-92241101D01*
X116840000Y-92108142D01*
X116911068Y-92241101D01*
X117090392Y-92459608D01*
X117308899Y-92638932D01*
X117558192Y-92772182D01*
X117828691Y-92854236D01*
X118039508Y-92875000D01*
X118180492Y-92875000D01*
X118391309Y-92854236D01*
X118661808Y-92772182D01*
X118911101Y-92638932D01*
X119129608Y-92459608D01*
X119308932Y-92241101D01*
X119442182Y-91991808D01*
X119524236Y-91721309D01*
X119551943Y-91440000D01*
X119524236Y-91158691D01*
X119442182Y-90888192D01*
X119308932Y-90638899D01*
X119129608Y-90420392D01*
X118911101Y-90241068D01*
X118661808Y-90107818D01*
X118391309Y-90025764D01*
X118180492Y-90005000D01*
X118039508Y-90005000D01*
X117828691Y-90025764D01*
X117558192Y-90107818D01*
X117308899Y-90241068D01*
X117090392Y-90420392D01*
X116911068Y-90638899D01*
X116840000Y-90771858D01*
X116768932Y-90638899D01*
X116589608Y-90420392D01*
X116371101Y-90241068D01*
X116121808Y-90107818D01*
X115851309Y-90025764D01*
X115640492Y-90005000D01*
X115499508Y-90005000D01*
X115288691Y-90025764D01*
X115018192Y-90107818D01*
X114768899Y-90241068D01*
X114550392Y-90420392D01*
X114371068Y-90638899D01*
X114297421Y-90776682D01*
X114182385Y-90584869D01*
X113993414Y-90376481D01*
X113767420Y-90208963D01*
X113513087Y-90088754D01*
X113379039Y-90048096D01*
X113157000Y-90170085D01*
X112903000Y-90170085D01*
X112680961Y-90048096D01*
X112546913Y-90088754D01*
X112292580Y-90208963D01*
X112066586Y-90376481D01*
X111877615Y-90584869D01*
X111760000Y-90780982D01*
X111642385Y-90584869D01*
X111453414Y-90376481D01*
X111227420Y-90208963D01*
X110973087Y-90088754D01*
X110839039Y-90048096D01*
X110617000Y-90170085D01*
X110363000Y-90170085D01*
X110140961Y-90048096D01*
X110006913Y-90088754D01*
X109752580Y-90208963D01*
X109526586Y-90376481D01*
X109337615Y-90584869D01*
X109222579Y-90776682D01*
X109148932Y-90638899D01*
X108969608Y-90420392D01*
X108751101Y-90241068D01*
X108501808Y-90107818D01*
X108231309Y-90025764D01*
X108020492Y-90005000D01*
X107879508Y-90005000D01*
X107668691Y-90025764D01*
X107398192Y-90107818D01*
X107148899Y-90241068D01*
X106930392Y-90420392D01*
X106751068Y-90638899D01*
X106680000Y-90771858D01*
X106608932Y-90638899D01*
X106429608Y-90420392D01*
X106211101Y-90241068D01*
X105961808Y-90107818D01*
X105691309Y-90025764D01*
X105480492Y-90005000D01*
X105339508Y-90005000D01*
X105128691Y-90025764D01*
X104858192Y-90107818D01*
X104608899Y-90241068D01*
X104390392Y-90420392D01*
X104211068Y-90638899D01*
X104137421Y-90776682D01*
X104022385Y-90584869D01*
X103833414Y-90376481D01*
X103607420Y-90208963D01*
X103353087Y-90088754D01*
X103219039Y-90048096D01*
X102997000Y-90170085D01*
X102743000Y-90170085D01*
X102520961Y-90048096D01*
X102386913Y-90088754D01*
X102132580Y-90208963D01*
X101906586Y-90376481D01*
X101717615Y-90584869D01*
X101602579Y-90776682D01*
X101528932Y-90638899D01*
X101349608Y-90420392D01*
X101131101Y-90241068D01*
X100881808Y-90107818D01*
X100611309Y-90025764D01*
X100400492Y-90005000D01*
X100259508Y-90005000D01*
X100048691Y-90025764D01*
X99778192Y-90107818D01*
X99528899Y-90241068D01*
X99310392Y-90420392D01*
X99131068Y-90638899D01*
X99060000Y-90771858D01*
X98988932Y-90638899D01*
X98809608Y-90420392D01*
X98591101Y-90241068D01*
X98341808Y-90107818D01*
X98071309Y-90025764D01*
X97860492Y-90005000D01*
X97719508Y-90005000D01*
X97508691Y-90025764D01*
X97238192Y-90107818D01*
X96988899Y-90241068D01*
X96770392Y-90420392D01*
X96591068Y-90638899D01*
X96520000Y-90771858D01*
X96448932Y-90638899D01*
X96269608Y-90420392D01*
X96051101Y-90241068D01*
X95801808Y-90107818D01*
X95531309Y-90025764D01*
X95320492Y-90005000D01*
X95179508Y-90005000D01*
X94968691Y-90025764D01*
X94698192Y-90107818D01*
X94448899Y-90241068D01*
X94230392Y-90420392D01*
X94051068Y-90638899D01*
X93917818Y-90888192D01*
X93835764Y-91158691D01*
X93808057Y-91440000D01*
X80158760Y-91440000D01*
X80214352Y-91344858D01*
X80306476Y-91081890D01*
X80185155Y-90852000D01*
X78867000Y-90852000D01*
X78613000Y-90852000D01*
X77294845Y-90852000D01*
X77173524Y-91081890D01*
X76860000Y-91081890D01*
X76860000Y-88225000D01*
X77122815Y-88225000D01*
X77151487Y-88516111D01*
X77236401Y-88796034D01*
X77374294Y-89054014D01*
X77559866Y-89280134D01*
X77785986Y-89465706D01*
X77811722Y-89479462D01*
X77605571Y-89635951D01*
X77412504Y-89853807D01*
X77265648Y-90105142D01*
X77173524Y-90368110D01*
X77294845Y-90598000D01*
X78613000Y-90598000D01*
X78613000Y-90578000D01*
X78867000Y-90578000D01*
X78867000Y-90598000D01*
X80185155Y-90598000D01*
X80306476Y-90368110D01*
X80214352Y-90105142D01*
X80067496Y-89853807D01*
X79874429Y-89635951D01*
X79668278Y-89479462D01*
X79694014Y-89465706D01*
X79920134Y-89280134D01*
X80105706Y-89054014D01*
X80243599Y-88796034D01*
X80328513Y-88516111D01*
X80357185Y-88225000D01*
X80328513Y-87933889D01*
X80243599Y-87653966D01*
X80105706Y-87395986D01*
X79920134Y-87169866D01*
X79856663Y-87117777D01*
X79919855Y-87084000D01*
X83651928Y-87084000D01*
X83651928Y-88684000D01*
X83664188Y-88808482D01*
X83700498Y-88928180D01*
X83759463Y-89038494D01*
X83838815Y-89135185D01*
X83935506Y-89214537D01*
X84045820Y-89273502D01*
X84165518Y-89309812D01*
X84290000Y-89322072D01*
X85890000Y-89322072D01*
X86014482Y-89309812D01*
X86134180Y-89273502D01*
X86244494Y-89214537D01*
X86341185Y-89135185D01*
X86420537Y-89038494D01*
X86479502Y-88928180D01*
X86495117Y-88876702D01*
X88076903Y-88876702D01*
X88148486Y-89120671D01*
X88403996Y-89241571D01*
X88678184Y-89310300D01*
X88960512Y-89324217D01*
X89240130Y-89282787D01*
X89506292Y-89187603D01*
X89631514Y-89120671D01*
X89703097Y-88876702D01*
X88890000Y-88063605D01*
X88076903Y-88876702D01*
X86495117Y-88876702D01*
X86515812Y-88808482D01*
X86528072Y-88684000D01*
X86528072Y-87954512D01*
X87449783Y-87954512D01*
X87491213Y-88234130D01*
X87586397Y-88500292D01*
X87653329Y-88625514D01*
X87897298Y-88697097D01*
X88710395Y-87884000D01*
X89069605Y-87884000D01*
X89882702Y-88697097D01*
X90126671Y-88625514D01*
X90247571Y-88370004D01*
X90316300Y-88095816D01*
X90330217Y-87813488D01*
X90288787Y-87533870D01*
X90239160Y-87395098D01*
X123345000Y-87395098D01*
X123345000Y-87864902D01*
X123436654Y-88325679D01*
X123616440Y-88759721D01*
X123877450Y-89150349D01*
X124209651Y-89482550D01*
X124600279Y-89743560D01*
X125034321Y-89923346D01*
X125495098Y-90015000D01*
X125964902Y-90015000D01*
X126425679Y-89923346D01*
X126859721Y-89743560D01*
X127250349Y-89482550D01*
X127582550Y-89150349D01*
X127843560Y-88759721D01*
X128023346Y-88325679D01*
X128115000Y-87864902D01*
X128115000Y-87395098D01*
X128023346Y-86934321D01*
X127843560Y-86500279D01*
X127582550Y-86109651D01*
X127250349Y-85777450D01*
X126859721Y-85516440D01*
X126425679Y-85336654D01*
X125964902Y-85245000D01*
X125495098Y-85245000D01*
X125034321Y-85336654D01*
X124600279Y-85516440D01*
X124209651Y-85777450D01*
X123877450Y-86109651D01*
X123616440Y-86500279D01*
X123436654Y-86934321D01*
X123345000Y-87395098D01*
X90239160Y-87395098D01*
X90193603Y-87267708D01*
X90126671Y-87142486D01*
X89882702Y-87070903D01*
X89069605Y-87884000D01*
X88710395Y-87884000D01*
X87897298Y-87070903D01*
X87653329Y-87142486D01*
X87532429Y-87397996D01*
X87463700Y-87672184D01*
X87449783Y-87954512D01*
X86528072Y-87954512D01*
X86528072Y-87084000D01*
X86515812Y-86959518D01*
X86495118Y-86891298D01*
X88076903Y-86891298D01*
X88890000Y-87704395D01*
X89703097Y-86891298D01*
X89631514Y-86647329D01*
X89376004Y-86526429D01*
X89101816Y-86457700D01*
X88819488Y-86443783D01*
X88539870Y-86485213D01*
X88273708Y-86580397D01*
X88148486Y-86647329D01*
X88076903Y-86891298D01*
X86495118Y-86891298D01*
X86479502Y-86839820D01*
X86420537Y-86729506D01*
X86341185Y-86632815D01*
X86244494Y-86553463D01*
X86134180Y-86494498D01*
X86014482Y-86458188D01*
X85890000Y-86445928D01*
X84290000Y-86445928D01*
X84165518Y-86458188D01*
X84045820Y-86494498D01*
X83935506Y-86553463D01*
X83838815Y-86632815D01*
X83759463Y-86729506D01*
X83700498Y-86839820D01*
X83664188Y-86959518D01*
X83651928Y-87084000D01*
X79919855Y-87084000D01*
X79958386Y-87063405D01*
X80092962Y-86952962D01*
X80203405Y-86818386D01*
X80285472Y-86664850D01*
X80336008Y-86498254D01*
X80353072Y-86325000D01*
X80353072Y-85125000D01*
X80336008Y-84951746D01*
X80335074Y-84948665D01*
X90005000Y-84948665D01*
X90005000Y-85231335D01*
X90060147Y-85508574D01*
X90168320Y-85769727D01*
X90325363Y-86004759D01*
X90525241Y-86204637D01*
X90760273Y-86361680D01*
X91021426Y-86469853D01*
X91298665Y-86525000D01*
X91581335Y-86525000D01*
X91858574Y-86469853D01*
X92119727Y-86361680D01*
X92354759Y-86204637D01*
X92554637Y-86004759D01*
X92711680Y-85769727D01*
X92819853Y-85508574D01*
X92875000Y-85231335D01*
X92875000Y-84948665D01*
X92819853Y-84671426D01*
X92711680Y-84410273D01*
X92554637Y-84175241D01*
X92548436Y-84169040D01*
X93858091Y-84169040D01*
X93952930Y-84433881D01*
X94097615Y-84675131D01*
X94286586Y-84883519D01*
X94512580Y-85051037D01*
X94766913Y-85171246D01*
X94900961Y-85211904D01*
X95123000Y-85089915D01*
X95123000Y-83947000D01*
X93979376Y-83947000D01*
X93858091Y-84169040D01*
X92548436Y-84169040D01*
X92354759Y-83975363D01*
X92119727Y-83818320D01*
X91858574Y-83710147D01*
X91581335Y-83655000D01*
X91298665Y-83655000D01*
X91021426Y-83710147D01*
X90760273Y-83818320D01*
X90525241Y-83975363D01*
X90325363Y-84175241D01*
X90168320Y-84410273D01*
X90060147Y-84671426D01*
X90005000Y-84948665D01*
X80335074Y-84948665D01*
X80285472Y-84785150D01*
X80203405Y-84631614D01*
X80092962Y-84497038D01*
X79958386Y-84386595D01*
X79804850Y-84304528D01*
X79638254Y-84253992D01*
X79465000Y-84236928D01*
X78015000Y-84236928D01*
X77841746Y-84253992D01*
X77675150Y-84304528D01*
X77521614Y-84386595D01*
X77387038Y-84497038D01*
X77276595Y-84631614D01*
X77194528Y-84785150D01*
X77143992Y-84951746D01*
X77126928Y-85125000D01*
X77126928Y-86325000D01*
X77143992Y-86498254D01*
X77194528Y-86664850D01*
X77276595Y-86818386D01*
X77387038Y-86952962D01*
X77521614Y-87063405D01*
X77623337Y-87117777D01*
X77559866Y-87169866D01*
X77374294Y-87395986D01*
X77236401Y-87653966D01*
X77151487Y-87933889D01*
X77122815Y-88225000D01*
X76860000Y-88225000D01*
X76860000Y-83470960D01*
X93858091Y-83470960D01*
X93979376Y-83693000D01*
X95123000Y-83693000D01*
X95123000Y-82550085D01*
X94900961Y-82428096D01*
X94766913Y-82468754D01*
X94512580Y-82588963D01*
X94286586Y-82756481D01*
X94097615Y-82964869D01*
X93952930Y-83206119D01*
X93858091Y-83470960D01*
X76860000Y-83470960D01*
X76860000Y-80810000D01*
X78571928Y-80810000D01*
X78584188Y-80934482D01*
X78620498Y-81054180D01*
X78679463Y-81164494D01*
X78758815Y-81261185D01*
X78855506Y-81340537D01*
X78965820Y-81399502D01*
X79085518Y-81435812D01*
X79210000Y-81448072D01*
X79724250Y-81445000D01*
X79883000Y-81286250D01*
X79883000Y-80137000D01*
X78733750Y-80137000D01*
X78575000Y-80295750D01*
X78571928Y-80810000D01*
X76860000Y-80810000D01*
X76860000Y-79210000D01*
X78571928Y-79210000D01*
X78575000Y-79724250D01*
X78733750Y-79883000D01*
X79883000Y-79883000D01*
X79883000Y-78733750D01*
X79724250Y-78575000D01*
X79210000Y-78571928D01*
X79085518Y-78584188D01*
X78965820Y-78620498D01*
X78855506Y-78679463D01*
X78758815Y-78758815D01*
X78679463Y-78855506D01*
X78620498Y-78965820D01*
X78584188Y-79085518D01*
X78571928Y-79210000D01*
X76860000Y-79210000D01*
X76860000Y-56540000D01*
X128880000Y-56540000D01*
X128880000Y-58332229D01*
M02*
